<?xml version="1.0" standalone="no"?>
<!DOCTYPE svg PUBLIC "-//W3C//DTD SVG 1.1//EN" "http://www.w3.org/Graphics/SVG/1.1/DTD/svg11.dtd" >
<svg xmlns="http://www.w3.org/2000/svg" xmlns:xlink="http://www.w3.org/1999/xlink" version="1.1">
<metadata>
Created by FontForge 20170924 at Sat Aug  1 12:11:01 2009
 By www-data
Copyright (c) Ang Rotanak, 2007. All rights reserved.
</metadata>
<defs>
<font id="KhmerRotanakTraiyB" horiz-adv-x="0" >
  <font-face 
    font-family="Khmer Rotanak Traiy B"
    font-weight="400"
    font-stretch="normal"
    units-per-em="2048"
    panose-1="2 0 5 6 0 0 0 2 0 4"
    ascent="1638"
    descent="-410"
    x-height="1117"
    cap-height="1489"
    bbox="-3804 -2378 8840 3040"
    underline-thickness="130"
    underline-position="-235"
    unicode-range="U+0020-25CC"
  />
<missing-glyph horiz-adv-x="2048" 
d="M256 0v1536h1536v-1536h-1536zM384 128h1280v1280h-1280v-1280z" />
    <glyph glyph-name="uni1780.sub1" unicode="&#x17d2;&#x1780;" 
d="M-1366 -180q83 -3 394 -172h-5q17 0 177 69l219 106q134 -59 354 -195l45 -35v-561l-68 -52h-21q-140 111 -154 128v48q16 16 116 79q14 27 14 86v6q-3 104 -1 104q-117 92 -376 201q-117 -19 -245 -100v-497q-63 -55 -92 -55l-151 124v56q115 75 116 75q12 33 12 82v19
q-2 102 1 102q-86 70 -219 134l-162 75q-87 -11 -269 -115v-274q146 -10 146 -30l17 -182q-42 -49 -42 -66q-43 0 -108 55q-102 80 -132 109v440q14 14 218 121z" />
    <glyph glyph-name="uni178017B6" unicode="&#x1780;&#x17b6;" horiz-adv-x="3564" 
d="M1300 1424q194 -66 470 -177q79 -35 152 -56q151 26 446 111l410 123q325 -162 800 -356l11 -11v-24l2 -873l2 -115l-82 -64h-22l-185 151v63q19 19 156 105l3 59v96q0 117 -15 411q-174 100 -618 287l-197 76q-264 -55 -546 -140q-200 -62 -294 -101q-250 120 -412 187
q-116 41 -194 64q-240 -54 -437 -192l57 -95h-40l-153 -19l-139 127v23q477 206 795 333zM1146 1023q100 -4 490 -216h-5q24 0 225 87l272 132q165 -73 440 -242l54 -42v-700l-81 -62h-22q-173 138 -189 157v57q18 18 145 98q18 36 18 110v8q-3 136 -5 136
q-145 114 -473 252q-151 -25 -315 -128v-624q-75 -66 -106 -66l-186 153v65q143 93 145 95q16 42 16 105v23l-3 133q-106 87 -274 167l-204 95q-114 -14 -345 -146v-351q182 -13 182 -34l22 -226q-53 -61 -53 -79q-45 0 -124 68q-128 100 -164 134v548q16 16 270 149z" />
    <glyph glyph-name="uni1781.sub1" unicode="&#x17d2;&#x1781;" 
d="M-656 -177q235 0 374 -114q60 -55 78 -118q11 -36 11 -63l-435 -294l90 -71q6 -2 12 -2q22 3 42 22q175 211 246 308q6 14 6 34q0 16 -44 170q88 -79 107 -122q19 -46 19 -96q0 -46 -347 -443l-54 -62l-297 222q283 193 469 315q44 34 44 51v7q-4 27 -62 78
q-64 47 -136 64q-54 19 -135 19q-130 0 -224 -49q-60 -34 -79 -75q-20 -36 -20 -70q0 -39 58 -71q18 -7 36 -7h4q32 0 44 32q3 9 3 21q0 24 -45 33q-8 5 -57 18v24q45 31 120 31q53 0 91 -45q18 -26 18 -48v-11q0 -75 -81 -125q-59 -28 -105 -28q-40 0 -98 22q-39 21 -67 55
q-43 59 -43 113q0 104 141 198q128 77 316 77z" />
    <glyph glyph-name="uni178117B6" unicode="&#x1781;&#x17b6;" horiz-adv-x="2800" 
d="M1104 1423q330 0 523 -202q58 -76 58 -54q439 225 513 260l630 -396v-996q-80 -55 -106 -55l-183 143v54q0 11 168 121q-8 0 -8 54q0 161 -23 471q-64 54 -194 137q-286 189 -415 260q-71 -17 -315 -171q49 -95 49 -210v-5q0 -75 -444 -718l-109 -149l-394 366
q292 253 562 477q60 45 114 101q32 41 32 68v7q-3 48 -75 137q-59 60 -106 84q-140 78 -272 78l-24 2q-184 0 -319 -90q-93 -65 -128 -181q-13 -42 -13 -81q0 -85 91 -143q25 -12 51 -12h2q62 0 77 88l2 22q0 50 -68 71q-27 13 -74 27v23q54 47 158 47q71 0 121 -74
q22 -42 22 -87q0 -117 -96 -200q-84 -58 -157 -58q-58 0 -142 42q-54 45 -72 76q-65 103 -65 194q0 184 196 341q175 131 433 131zM1726 1033q10 -32 16 -102l-618 -523l142 -140q10 -5 23 -5q18 0 61 42q246 376 347 546q9 26 9 70q0 25 -19 105h27z" />
    <glyph glyph-name="uni1782.sub1" unicode="&#x17d2;&#x1782;" 
d="M-609 -184l530 -220v-566l-69 -55h-23l-156 128v56l120 78q12 23 12 83q0 51 -13 125q-29 30 -259 126q-117 49 -226 84q-39 12 -44 12q-85 -5 -365 -139l-15 -287l11 -5l48 106l303 116l-202 -209l-16 -96l20 -96l-44 -100q-213 179 -223 191v432q8 15 92 44
q501 192 512 192h7z" />
    <glyph glyph-name="uni178217B6" unicode="&#x1782;&#x17b6;" horiz-adv-x="2936" 
d="M2237 1420q335 -172 729 -410v-960l-91 -79l-195 166v65l155 103l4 102q0 124 -16 458q-269 145 -523 268q-172 79 -183 79q-105 -32 -227 -83l-365 -159q-71 49 -193 123q-190 107 -278 122q-127 -42 -213 -93q-58 -33 -92 -63v9q6 -18 65 -78v-27q-165 -17 -195 -17
l-157 143q285 147 559 266q91 38 166 59l353 -179q52 -27 91 -36q188 56 487 180q99 41 119 41zM1328 983l633 -263v-675l-80 -64h-23l-185 151v64l143 93q16 30 16 103q0 61 -16 151q-36 38 -314 153q-140 59 -272 102q-47 14 -54 14q-103 -6 -443 -168l-19 -350l21 -10
l60 131l343 131l-231 -238l-19 -117l23 -115l-49 -114q-249 210 -261 224v517q10 16 108 50q600 230 612 230h7z" />
    <glyph glyph-name="uni1783.sub1" unicode="&#x17d2;&#x1783;" horiz-adv-x="790" 
d="M569 -748v1652q-66 85 -129 85q-49 -3 -78 -15l-106 52q255 345 309 408q189 -148 219 -155q15 -6 62 -6h61l21 -21q-85 -148 -213 -148q-91 8 -184 69l2 -1q-16 -16 -43 -47q74 -14 134 -71q66 -64 91 -112v-1815l-160 -154h-366q-18 0 -56 36l-118 95l-122 -131h-442
l-255 267q91 168 91 188q12 27 18 57l-98 137q-9 -8 -9 -14q0 7 33 -5q24 -26 24 -57q0 -46 -68 -52l-12 -2q-99 9 -99 26l-32 62v11l194 246q36 -51 185 -332l-96 -253l239 -189l-3 2q224 0 258 37q64 63 149 152q-4 147 -2 147q-42 101 -96 137q-25 16 -44 16
q-30 -2 -49 -9q-72 29 -72 50l190 226h25q118 -84 132 -84q13 -2 37 -2h44l2 -2h29q-70 -113 -159 -113q-43 2 -100 28l-16 10l-12 -12q37 -7 78 -43q55 -50 73 -89q23 -59 23 -110l7 -151l183 -180l216 19z" />
    <glyph glyph-name="uni178317B6" unicode="&#x1783;&#x17b6;" horiz-adv-x="4071" 
d="M3393 1470q653 -395 711 -434v-990q-78 -66 -108 -66l-179 147l-8 8v62q17 19 160 109l6 104q-11 373 -26 373q-5 51 -41 94l-644 375l-361 -174q87 -84 106 -132q31 -78 45 -143l10 -549q-188 -222 -238 -272h-582l-239 222q0 43 -216 -222h-680q-36 36 -392 465
q73 152 107 236q61 171 61 201l-168 267q-29 -30 -29 -49v4q3 -3 63 -31q27 -42 27 -80q0 -49 -52 -72q-31 -11 -62 -11q-142 12 -142 37q-47 103 -47 119q62 86 272 396h32q30 -46 263 -548l-153 -456l382 -343h11q295 0 391 53q111 114 256 294l-6 269q-22 110 -122 230
q-60 59 -110 59q-48 -4 -76 -16l-98 46v21l292 393h26q189 -149 207 -149q26 -4 63 -4h11l8 -2l11 2h33l2 -2h28q-88 -171 -224 -171q-71 0 -182 67l-3 2l-63 -67v25h-21q70 -8 150 -59q119 -97 151 -214q29 -67 29 -239q7 -182 -1 -182l308 -342q380 16 380 44
q88 91 171 207l59 78l-7 283q-29 117 -100 175q-48 39 -83 39h-26q-31 0 -131 -46l-69 118q383 223 619 337q214 104 238 104z" />
    <glyph glyph-name="uni178317B6.sub1" unicode="&#x237;&#x17b6;" horiz-adv-x="1620" 
d="M570 796q-11 52 -44 85q-27 17 -47 17h-29q-14 0 -58 -17l-79 108q27 26 281 172q382 225 470 266q294 -162 585 -362v-1015q-75 -66 -104 -66l-183 150v63q33 28 155 102l5 114q-6 424 -1 424q-304 219 -507 333l-32 17q-135 -55 -318 -157q0 -1 50 -209v-1694
l-159 -154h-366q-18 0 -56 36l-118 95l-122 -131h-442l-255 267q91 168 91 188q12 27 18 57l-98 137q-9 -8 -9 -14q0 7 33 -5q24 -26 24 -57q0 -46 -68 -52l-12 -2q-99 9 -99 26l-32 62v11l194 246q36 -51 185 -332l-96 -253l239 -189l-3 2q224 0 258 37q64 63 149 152
q-4 147 -2 147q-42 101 -96 137q-25 16 -44 16q-30 -2 -49 -9q-72 29 -72 50l190 226h25q118 -84 132 -84q13 -2 37 -2h44l2 -2h29q-70 -113 -159 -113q-43 2 -100 28l-16 10l-12 -12q37 -7 78 -43q55 -50 73 -89q23 -59 23 -110l7 -151l183 -180l217 19l110 160v1544z" />
    <glyph glyph-name="uni178317B6.sub2" unicode="&#x238;&#x17b6;" horiz-adv-x="1625" 
d="M569 797q-8 51 -41 84q-27 17 -47 17h-29q-14 0 -58 -17l-79 108q27 26 281 172q382 225 470 266q294 -162 585 -362v-1015q-75 -66 -104 -66l-183 150v63q33 28 155 102l5 114q-6 424 -1 424q-304 219 -507 333l-32 17q-135 -55 -318 -157q0 -1 49 -209v-2594l-160 -154
h-366q-18 0 -56 36l-118 95l-122 -131h-442l-255 267q91 168 91 188q12 27 18 57l-98 137q-9 -8 -9 -14q0 7 33 -5q24 -26 24 -57q0 -46 -68 -52l-12 -2q-99 9 -99 26l-32 62v11l194 246q36 -51 185 -332l-96 -253l239 -189l-3 2q224 0 258 37q64 63 149 152q-4 147 -2 147
q-42 101 -96 137q-25 16 -44 16q-30 -2 -49 -9q-72 29 -72 50l190 226h25q118 -84 132 -84q13 -2 37 -2h44l2 -2h29q-70 -113 -159 -113q-43 2 -100 28l-16 10l-12 -12q37 -7 78 -43q55 -50 73 -89q23 -59 23 -110l7 -151l183 -180l216 19l110 160v2445z" />
    <glyph glyph-name="uni1784.sub1" unicode="&#x17d2;&#x1784;" 
d="M-247 -180h4q25 0 54 -25q0 -31 -109 -261q-58 -115 -146 -225q-129 -134 -215 -200q-115 -90 -162 -117l-217 250v14q115 206 128 218q74 59 124 59h13q50 0 95 -69q8 -18 8 -36q0 -64 -79 -97q-11 -6 -31 -6h-2q-47 0 -74 33q-6 0 -22 -81q23 -67 86 -100q25 0 25 10
q67 28 275 253q96 115 131 242q45 138 114 138z" />
    <glyph glyph-name="uni178417B6" unicode="&#x1784;&#x17b6;" horiz-adv-x="2813" 
d="M1334 1389q102 -27 312 -179l54 -46q466 241 517 263q621 -391 629 -405v-987l-84 -55h-23l-183 143v64q149 98 158 103l3 58q0 185 -24 476q-151 118 -525 348l-84 47q-65 -12 -299 -167v12q35 -50 35 -94v-17q0 -97 -83 -184q-84 -60 -166 -60h-16q-78 0 -164 76
q-27 42 -27 85q0 44 24 52l54 51h24q90 -60 114 -60q39 0 56 51v14q0 39 -97 125q-108 83 -191 116q-126 59 -184 77h7q-173 -51 -414 -227q0 3 231 -298l20 -30v-19q-116 -68 -272 -272l-7 -10q190 -204 206 -204h8q48 0 281 225h25q281 -248 291 -248h4q37 0 160 234
q-19 46 -19 73v8q0 39 51 72q82 -19 82 -59q13 -47 13 -103l-330 -463l-355 256h17l-305 -245h-24l-366 362q332 314 350 353l-312 308v21q492 297 559 328h64q-120 0 -209 71q-55 56 -55 118q0 91 84 131l51 8q88 0 122 -98l2 -18q0 -39 -16 -60q45 -17 94 -17h2
q116 0 232 79q107 102 139 175q51 106 51 135l-7 91q56 48 100 48l4 -79v-2q0 -236 -197 -431q-99 -97 -192 -120z" />
    <glyph glyph-name="uni1785.sub1" unicode="&#x17d2;&#x1785;" 
d="M-487 -58q76 0 102 -71l4 -42v-17q0 -86 -65 -199q-29 -53 -294 -299q-57 -49 -62 -59q25 -39 159 -180q92 69 153 128q-61 41 -61 117v2q0 112 122 154h19q88 0 136 -93l1 -17v-21q0 -53 -27 -91l-11 1q56 2 81 10q48 0 61 -57q0 -78 -93 -78h-45q-42 0 -94 19
l-282 -285h-27l-340 340q179 137 299 257q130 139 164 227q19 62 19 74q-20 29 -20 83q0 59 57 89zM-439 -651v-18q0 -31 39 -55h-18q32 35 32 64q-3 37 -32 37h-4q-13 0 -17 -28z" />
    <glyph glyph-name="uni178517B6" unicode="&#x1785;&#x17b6;" horiz-adv-x="2826" 
d="M1152 1423q357 -187 459 -233q15 -5 35 -5q158 0 558 238h19l633 -411v-968l-83 -64h-22l-187 153v64l159 105l3 87v37q0 190 -14 384q-24 43 -116 109q-261 167 -493 276q-140 0 -435 -212q-24 -17 -58 -34q-529 244 -594 244q-104 0 -300 -146l-26 -25
q289 -223 318 -250q-223 -213 -316 -306l356 -340h-9q465 0 519 28q104 53 155 154q29 61 29 118v9q0 34 -33 47h14q-28 -22 -71 -22q-79 0 -110 78l-1 22q0 76 104 131q37 11 61 11q118 0 181 -137q11 -44 11 -87q0 -133 -78 -273q-59 -86 -172 -168l-69 -43l-347 2h-389
q-52 53 -374 414l282 294l-276 305q610 386 660 414h17z" />
    <glyph glyph-name="uni1786.sub1" unicode="&#x17d2;&#x1786;" 
d="M-1071 -172l103 -74l6 -507h301l166 -146q20 -5 56 -5h37q132 0 208 172l5 35q0 77 -31 116q17 0 9 -16q-34 -36 -76 -36h-2q-95 0 -122 105v16q0 73 83 98l33 3h6q119 0 192 -131q26 -64 26 -151q0 -83 -40 -181l-171 -146h-344q-146 173 -239 173q-74 8 -118 8h23v-124
q-9 -16 -79 -55h-23l-183 164v82l15 19h138v389q-153 77 -153 94q6 15 174 98z" />
    <glyph glyph-name="uni178617B6" unicode="&#x1786;&#x17b6;" horiz-adv-x="2865" 
d="M1179 1427l383 -196q86 -46 115 -46h13q134 0 475 192q75 46 98 46l631 -411v-969q-82 -63 -106 -63l-184 151v67l157 103l4 110q0 189 -14 399q-11 25 -81 81q-177 127 -466 275l-60 30q-82 -6 -207 -67q-93 -49 -285 -182q-526 244 -599 247q-95 -5 -263 -121
q-41 -30 -42 -32q-39 0 63 -83v-661h355q22 0 84 -62l134 -117q47 -8 100 -8q143 0 220 110q62 76 68 135v15q0 96 -40 146q14 0 12 -8q-41 -56 -95 -56h-9q-83 0 -131 90q-10 34 -10 50q0 86 88 116q22 6 46 6h11q132 0 224 -142q37 -84 37 -184v-4q0 -125 -49 -231
l-205 -173h-420q-120 137 -170 164q-65 46 -132 46q-53 9 -118 11v-165q-91 -56 -116 -56l-220 198v102l17 17l165 3v488l-182 189v20z" />
    <glyph glyph-name="uni1787.sub1" unicode="&#x17d2;&#x1787;" 
d="M-392 -183q189 0 250 -172l19 -63l78 52l30 8q42 0 74 -44q-123 -119 -187 -157q-2 -44 -64 -193q-70 -152 -278 -233q-44 -16 -71 -16l-268 294l-226 -290h-28q-176 179 -233 267q-26 38 -30 60q76 100 204 251l-70 69v14q98 125 113 125l8 2q42 0 83 -37q35 -53 35 -74
v-6q0 -84 -162 -251q-36 -39 -47 -57q29 -52 97 -126q51 -48 72 -58h-13q29 22 66 74q89 122 166 215h34q205 -298 311 -298q68 0 122 164q15 45 15 26q-30 -12 -78 -12q-161 0 -219 152q-11 37 -11 68v25q0 122 98 191q51 30 110 30zM-453 -410q0 -75 76 -102q16 -5 34 -5
q30 0 63 13q0 135 -84 159l-21 4q-46 0 -64 -47z" />
    <glyph glyph-name="uni178717B6" unicode="&#x1787;&#x17b6;" horiz-adv-x="2900" 
d="M1915 1071l-1 -39q-67 -165 -79 -181l-123 -43h-32v25q77 178 77 226q-1 21 -153 143q-69 56 -77 60l-565 28q-320 -276 -309 -276v24q146 -111 354 -275l-316 -308q204 -223 245 -239h1q51 0 271 263h25l336 -265h-21l188 216q24 99 35 114l93 35q25 -169 25 -201
l-309 -409l-377 326l-347 -325q-117 124 -381 422v16l275 286l-266 293v15l450 417h626q88 -56 241 -197q6 -10 -17 9q15 58 15 141q0 137 -144 213v18l14 19h53q110 0 167 -93q30 -39 30 -53l-3 -244l-30 -15l408 211l631 -419v-974q-79 -55 -108 -55l-181 143v61
q19 19 155 105l4 82q0 150 -23 452q-54 47 -219 154q-375 243 -388 243q-53 -5 -291 -180v3z" />
    <glyph glyph-name="uni1788.sub1" unicode="&#x17d2;&#x1788;" horiz-adv-x="768" 
d="M710 -870l-146 -150h-363l-153 131q-102 -117 -117 -131h-420q-65 67 -245 267l124 232q-86 70 -263 201l-224 -160l-8 -331l110 -9l16 -149l-47 -50h-24q-148 109 -158 121v456l376 269l376 -322v-15l-149 -234l224 -184q167 0 229 26q53 45 100 100l57 61
q-4 141 -1 141q-65 157 -139 157q-9 0 -46 -8q-56 24 -72 40l188 232h24q115 -83 126 -83l60 -3h50q-68 -113 -149 -113h-1q-56 0 -123 41l8 -6l-2 -2q-13 0 50 -38q50 -40 68 -68q40 -68 40 -141l6 -148l174 -179l228 28l77 112l-1 1683q-66 85 -129 85q-49 -3 -78 -15
l-106 52q255 345 309 408q189 -148 219 -155q15 -6 62 -6h61l21 -21q-85 -148 -213 -148q-91 8 -184 69l2 -1q-16 -16 -43 -47q74 -14 134 -71q66 -65 85 -113v-1811z" />
    <glyph glyph-name="uni178817B6" unicode="&#x1788;&#x17b6;" horiz-adv-x="4500" 
d="M3828 1426l693 -422v-958l-90 -74q-162 124 -198 161v62l155 101l5 106q0 343 -40 413q-17 35 -43 45l-601 350l-361 -173v14q44 -35 82 -85q35 -40 54 -123q14 0 21 -602l-228 -259h-565l-264 245h21l-198 -245h-660l-380 452l202 407q-79 70 -446 373h15l-379 -296
l-12 -601q178 -10 178 -34l21 -223l-67 -75h-25q-228 182 -243 200v780l568 451h24q337 -312 581 -546l-245 -424l369 -333q357 0 409 74q96 106 226 262q-7 283 -10 283q-52 132 -121 206q-52 48 -94 48h-17l-71 -10l-86 41q0 26 119 183l164 218h26q180 -142 201 -142
q24 -5 63 -5h56l22 -22q-85 -148 -200 -148q-97 0 -188 69l-59 -64v23q61 0 165 -93q102 -111 114 -193q17 0 25 -369l2 -26l288 -320q367 14 367 43q85 87 221 272v-2l-5 277q-42 205 -174 205q-47 0 -145 -42l-61 99v22q454 259 761 402z" />
    <glyph glyph-name="uni1789.sub1" unicode="&#x17d2;&#x1789;" 
d="M-209 -155q127 0 164 -131l2 -31v-24q0 -165 -271 -281q-214 -88 -466 -88q-227 0 -489 63q-178 56 -210 95q-41 58 -41 88h33q357 -142 694 -142q313 0 525 143q27 22 27 1h21q-79 11 -97 30q-63 54 -63 118v6q0 115 134 151z" />
    <glyph glyph-name="uni178917B6" unicode="&#x1789;&#x17b6;" horiz-adv-x="3878" 
d="M2290 1429l545 -368h-16q454 326 513 362h20l548 -377v-1004l-78 -62h-25q-172 137 -185 155v59l158 107q6 96 6 181v240l-3 119l-500 343l-11 2h-5q-19 0 -110 -59q-291 -165 -296 -170v-913l-80 -64h-24l-184 150v66l156 102q8 101 8 305l-2 236q-484 335 -505 346
l-4 1h-7q-16 0 -87 -40l-301 -156v-946l-81 -64h-24l-183 150v60q11 17 155 108q4 31 4 91v12q0 176 -16 449l-252 245q-62 64 -68 64l-12 2q-27 0 -138 -114l-103 -102h-26l-273 235q-169 -159 -188 -184l-1 -7l-20 -598l133 -147q100 78 156 163q24 40 27 69q0 39 -42 63
l-31 6q-60 0 -107 -115h-40l-51 117q56 125 112 148q56 25 116 25h2q98 0 169 -121q25 -54 25 -99v-52q0 -93 -18 -110q-88 -146 -209 -287l-84 -77l-278 359v715l388 373h28q249 -249 250 -249l7 -3q54 0 107 62q81 79 167 190h29l336 -333h-18zM2658 -278q149 0 194 -155
l2 -38v-28q0 -197 -326 -337q-257 -106 -562 -106q-275 0 -591 76q-214 67 -252 113q-49 70 -49 101h33q433 -172 843 -172q381 0 640 174q34 28 34 8h21q-94 13 -114 36q-74 64 -74 140v7q0 136 157 178z" />
    <glyph glyph-name="uni178A.sub1" unicode="&#x17d2;&#x178a;" 
d="M-1087 -178l285 -229v-17l-235 -226l173 -162l263 241l255 -262q126 87 171 214v4q0 11 -20 39v16l100 91q23 -87 23 -144q0 -114 -328 -418l-261 251l-259 -250l-305 337l227 223q-13 11 -213 234v22z" />
    <glyph glyph-name="uni178A17B6" unicode="&#x178a;&#x17b6;" horiz-adv-x="2900" 
d="M1651 1080q-30 -19 -60 -30q-140 -60 -250 -60q-199 0 -489 216h17l-215 -175v15q23 -15 350 -277v-18l-308 -298l237 -221q67 68 325 302h26l322 -329q183 143 223 271q7 8 7 21t-34 70l130 109q20 -89 20 -157v-17q0 -80 -81 -178q-30 -62 -290 -320l-31 -27h-28
l-336 324h20l-336 -321h-25q-33 30 -376 417l296 290l-288 316l469 424h23q264 -212 353 -234q61 -13 100 -13q74 0 179 48q153 85 222 267q24 83 24 207l-6 164q148 0 148 -161v-17q0 -235 -106 -383l414 121l628 -417v-974q-79 -55 -108 -55l-181 143v61q19 19 155 105
l4 82q0 150 -23 452q-54 47 -219 154q-375 243 -388 243q-55 -6 -514 -140z" />
    <glyph glyph-name="uni178B.sub1" unicode="&#x17d2;&#x178b;" 
d="M-163 -196q33 -433 58 -962l-16 -17h-14q-342 0 -501 220q-22 -37 -125 -130q-130 -100 -265 -100q-139 293 -249 633l133 103q231 -21 406 -21q351 0 434 55v-4q0 35 -29 79l-52 92q17 21 220 52zM-608 -606h-26l-311 12q-109 0 -125 -25q-8 -15 -8 -33v-4
q10 -106 175 -318q32 -32 38 -32h-7q141 153 234 277q268 -259 414 -259h-19q-13 179 -43 440q-159 -58 -322 -58z" />
    <glyph glyph-name="uni178B17B6" unicode="&#x178b;&#x17b6;" horiz-adv-x="3000" 
d="M2076 1160q-26 -19 -62 -32l-45 -8h-27q-85 7 -169 63l-7 5l-42 -46q42 -5 126 -67q111 -110 127 -188q31 -59 31 -233q4 0 8 -208q-35 -226 -55 -226l-195 -240h-670l-381 454v12q90 171 140 331l23 89l-163 264q-26 -26 -31 -48q0 1 54 -20q35 -35 35 -79v-15
q0 -65 -105 -73h-5q-143 8 -143 37q-45 99 -45 117l282 406q35 -39 277 -557l-150 -448l375 -339q361 0 415 74q95 105 231 268q-7 293 -13 293q-106 255 -217 255h-11l-77 -11l-98 49q265 363 312 415q138 -153 185 -153h15q34 0 87 68q30 49 30 112q0 114 -93 219
q-73 62 -171 62h-10q-91 0 -217 -50v48q53 26 221 135q93 0 223 -83q142 -122 142 -298q-2 -115 -16 -157l201 69q620 -389 628 -403v-988q-78 -55 -107 -55l-181 143v61q19 19 155 105l4 82q0 150 -23 452q-54 47 -219 154q-375 243 -388 243q-47 -4 -191 -60z" />
    <glyph glyph-name="uni178C.sub1" unicode="&#x17d2;&#x178c;" 
d="M-471 -173q256 -187 283 -209v-142l1 -69l-422 -290l60 -82l312 172l49 -39v-432q-82 -72 -97 -72h-21l-24 79l47 54l-11 264l-299 -181h-24l-141 224v15l454 331l-3 105l-196 109l-139 -128h-22l-176 126q-77 -74 -76 -72v3l-11 -226l62 -58l51 15q5 12 5 22
q0 25 -24 45q-3 2 -7 2q-14 0 -54 -66q-36 91 -36 117q0 50 70 63h10q85 0 126 -81q17 -37 17 -68v-4q0 -81 -107 -112q-35 -15 -76 -27q-120 129 -120 141v265l211 207l171 -137q128 115 157 136z" />
    <glyph glyph-name="uni178C17B6" unicode="&#x178c;&#x17b6;" horiz-adv-x="2700" 
d="M1730 1079v-184l1 -103l-663 -455l108 -147l489 271l65 -51v-665q-120 -106 -138 -106h-20l-35 110l72 83l-18 437l-484 -293h-25l-214 341v16l708 517l-5 173l-321 179l-221 -203h-23l-281 201l-132 -125v2l-17 -356l107 -101q97 29 97 35q9 19 9 37q0 44 -42 77
q-9 7 -21 7q-31 0 -82 -82q-44 111 -44 150q0 69 97 88h14q122 0 183 -119q25 -56 25 -103v-5q0 -119 -158 -166q-56 -24 -108 -37q-178 190 -178 205v410l317 310l265 -214q210 189 245 214q239 -174 326 -238l74 35l393 203q623 -390 631 -404v-988q-78 -55 -107 -55
l-181 143v61q19 19 155 105l4 82q0 150 -23 452q-54 47 -219 154q-375 243 -388 243q-52 -5 -237 -141z" />
    <glyph glyph-name="uni178D.sub1" unicode="&#x17d2;&#x178d;" horiz-adv-x="774" 
d="M571 -861v1759q-63 83 -120 83h-18q-19 0 -72 -11q-83 39 -94 61l302 398q197 -157 217 -157l90 -5h34l2 -3h27q-94 -165 -210 -165h-20q-64 0 -169 65l-3 2l-37 -40q17 0 119 -71q90 -89 91 -124v-1810l-172 -141h-301l-160 111l-119 -3v-68q-4 -16 -75 -44l-129 86v44
l102 61q1 5 1 33q0 113 -10 274l-160 138q-36 34 -42 34l-6 2q-16 0 -123 -102l-25 -22h-23l-172 133q-111 -95 -111 -93l-2 -9l-13 -338l77 -76q106 79 106 123v4q-5 26 -34 26q-36 0 -63 -65h-29q-18 14 -46 75q46 90 73 90q39 19 83 19q58 0 109 -62q25 -35 25 -73v-46
q0 -48 -19 -61q-49 -75 -190 -203l-187 210v417l255 219h25l163 -143h2q28 0 70 41q42 39 99 102h25q244 -220 244 -229v-411h207l177 -120l160 6z" />
    <glyph glyph-name="uni178D17B6" unicode="&#x178d;&#x17b6;" horiz-adv-x="3835" 
d="M3171 1426l693 -423v-958l-81 -65h-22l-185 150v63q22 19 156 104l3 64v61q-8 331 -18 331q-21 79 -47 97l-627 363h13q-317 -152 -353 -172q54 -43 93 -109q45 -115 45 -164l10 -560q-113 -196 -133 -205l-450 -6l-249 187l-203 -4l-3 -129v-11q-76 -56 -105 -56
l-180 144v63q24 21 155 101l4 101q-11 438 -8 438l-329 317l-11 2q-30 0 -161 -139l-78 -76h-27l-273 234l-184 -183l-23 -598q122 -141 141 -158h-19q193 157 193 239q0 30 -29 56q-15 11 -35 11h-6q-64 0 -108 -112h-40l-51 115q69 145 110 145q48 28 116 28
q90 0 162 -102q35 -58 35 -139q0 -145 -24 -145q-65 -119 -210 -285q-21 -22 -77 -69l-276 353v714l401 380l266 -259h14q46 0 114 79q79 80 159 183q239 -235 387 -390v-732h144l195 -2l261 -206q237 9 259 11l76 117q-16 518 -18 518q-60 187 -182 187q-39 0 -136 -44
q-49 72 -69 115q422 246 767 408z" />
    <glyph glyph-name="uni178E.sub1" unicode="&#x17d2;&#x178e;" 
d="M-2244 -167l527 -459v-15l-145 -216q191 -238 178 -228l258 265l260 -226l-20 -11q124 172 124 243v36q0 97 -85 164q-17 9 -22 9l-39 -10l-65 85q552 353 574 353l459 -290v-780q-65 -52 -78 -52h-11l-145 120v53q16 14 115 76l6 5l5 131l-6 289h-2l-457 272l-260 -177
v15q145 -151 145 -315q0 -154 -228 -423l-56 -62q-82 110 -166 207q-73 79 -88 79h-2q-11 0 -164 -180l-79 -91h-76l-286 375l206 230l-394 331q-277 -218 -281 -220l-1 -11l-8 -434h-22l159 -13l20 -194q-42 -45 -42 -63h-38q-183 146 -193 160v589z" />
    <glyph glyph-name="uni178E17B6" unicode="&#x178e;&#x17b6;" horiz-adv-x="4622" 
d="M3606 954l1 -906q-83 -66 -97 -66h-12l-183 151v63q17 17 147 98l10 8l6 172l-8 375q0 3 -7 6l-594 353l-345 -233v14q189 -195 189 -406q0 -197 -295 -544l-66 -73q-100 135 -209 261q-97 105 -120 105h-2q-18 0 -219 -236l-100 -116h-90l-366 480l267 299l-519 436
q-364 -286 -372 -290l-1 -18l-10 -567h-22l200 -17l24 -244q-53 -58 -53 -77h-39q-235 187 -246 202v760l541 489l675 -588v-15l-189 -282q251 -313 240 -304l333 343l336 -291l-20 -11q163 225 163 319v46q0 129 -112 217q-25 13 -37 13l-45 -10l-77 100q708 453 732 453
l558 -356l497 356h20l553 -377l-2 -1005l-80 -61h-23l-184 150v63q22 21 156 104q7 78 7 260l-1 272q0 7 2 7q-500 347 -501 347l-15 2h-5q-16 0 -111 -53z" />
    <glyph glyph-name="uni178F.sub1" unicode="&#x17d2;&#x178f;" 
d="M-662 -168l536 -222v-105l-2 -468l-69 -53h-23l-158 128v52q17 19 109 75q21 9 21 63l3 29v10q-5 113 -9 114q-160 102 -513 221l-29 6q-68 0 -363 -142l-18 -240l169 -157q87 122 87 192q-2 24 -14 24h-9q-6 -1 -6 14l48 -69l-127 -18q-107 37 -107 116q0 92 104 130
q30 7 59 7q125 0 172 -121l5 -50q-8 -144 -30 -144q-138 -236 -171 -258l-282 281v351q25 18 219 88q378 146 398 146z" />
    <glyph glyph-name="uni178F17B6" unicode="&#x178f;&#x17b6;" horiz-adv-x="2948" 
d="M2227 1423q20 0 467 -234l280 -150v-984l-80 -64h-23l-184 150v64l156 103q3 24 3 84v13q0 132 -15 460q-514 277 -698 343l-18 6q-20 0 -356 -141l-230 -101q-340 222 -473 246q-96 -31 -179 -74q-65 -34 -125 -80q7 -18 76 -86q-38 -16 -207 -32l-159 145
q406 210 670 309q44 16 63 16q408 -213 428 -213l14 -2q18 0 273 96zM1279 990l647 -262l-1 -678l-101 -67q-174 140 -193 159v63l142 93q14 33 14 88v21q-6 137 -10 137q-51 50 -353 174q-255 99 -287 99q-90 0 -442 -167l-21 -288l205 -193q109 152 109 235q0 32 -32 32
q-11 0 -7 3l48 -69l-141 -20q-86 30 -114 81q-9 28 -9 51q0 110 124 151q28 7 50 7h19q127 0 184 -118q15 -38 15 -83q0 -39 -15 -132l-196 -327h-29l-322 321v411q13 13 140 61z" />
    <glyph glyph-name="uni1790.sub1" unicode="&#x17d2;&#x1790;" 
d="M-562 -183q250 0 437 -195q114 -133 114 -312v-17q0 -166 -99 -365q-16 -37 -45 -37q-12 -5 -159 -49v36q146 197 146 397v4q0 185 -130 307q-93 77 -231 77q-136 0 -296 -84q-141 -159 -212 -252q-9 -22 -13 -56q0 -62 144 -116l8 -4q82 73 82 139v11q0 36 -57 82
q42 56 105 56q54 -12 90 -54q30 -51 30 -106q0 -175 -138 -265q-88 -63 -144 -81h-8q-85 0 -388 284q335 414 393 480q187 120 371 120z" />
    <glyph glyph-name="uni179017B6" unicode="&#x1790;&#x17b6;" horiz-adv-x="2900" 
d="M1983 1591q-24 -179 -101 -287l414 122q620 -389 628 -403v-988q-78 -55 -107 -55l-181 143v61q19 19 155 105l4 82q0 150 -23 452q-54 47 -219 154q-375 243 -388 243q-55 -6 -514 -140q-30 -19 -60 -30q-74 -32 -171 -53v3q-25 -6 -79 -6q-199 0 -478 212l-207 -171v14
q229 -177 349 -276v-21q-76 -49 -276 -250q-40 -49 -40 -40l358 -334l17 -15q379 0 497 23q55 16 127 90q77 96 77 186v18q0 32 -24 42q-30 -18 -62 -18h-14q-54 0 -92 55q-12 26 -12 37v11q0 67 88 120q39 20 72 20h11q99 0 165 -106q26 -50 26 -105v-25q0 -121 -78 -266
q-62 -90 -181 -175q-64 -40 -78 -40h-740q-274 304 -371 415v15l291 279l-280 308v15q441 407 474 425q271 -212 329 -226q62 -28 128 -28h6q106 0 228 79q148 114 184 286q12 66 12 154l-5 144v12l15 15q63 0 110 -51q23 -48 23 -129q0 -51 -7 -102z" />
    <glyph glyph-name="uni1791.sub1" unicode="&#x17d2;&#x1791;" 
d="M-571 -44h13q69 0 93 -65q9 -24 9 -49q0 -163 -135 -308q-112 -115 -270 -257l-36 -39q31 -44 167 -187q68 47 190 159q66 63 115 193q36 91 36 150v30h46q27 -58 57 -364q34 -256 110 -256v-31l-221 -143l-21 -21l-27 27v8l7 366l-336 -337h-25l-346 345v18
q133 96 299 254l53 57q123 147 136 235l7 28q-21 41 -21 82v3q0 73 69 98z" />
    <glyph glyph-name="uni179117B6" unicode="&#x1791;&#x17b6;" horiz-adv-x="2900" 
d="M1874 1211l12 6l407 210q623 -390 631 -404v-988q-78 -55 -107 -55l-181 143v61q19 19 155 105l4 82q0 150 -23 452q-54 47 -219 154q-375 243 -388 243q-53 -5 -240 -144v-27q0 -186 -149 -255q-51 -30 -109 -30q-126 0 -204 117q-22 43 -22 76q0 81 85 112q13 6 42 6
q93 0 130 -108q1 -1 3 -1q19 0 47 42q9 21 9 40v22q0 55 -53 116q-57 75 -59 76l-666 34l-282 -257l333 -264v-17l-302 -293l259 -208q280 246 317 257q107 59 234 59q198 0 310 -123q73 -83 73 -189q0 -155 -88 -232q-53 -41 -121 -41q-72 0 -126 54q-29 36 -29 83v1
q0 99 114 147l84 18l24 -45h-30q1 3 4 35q0 78 -137 145q-53 18 -100 18h-18q-87 0 -183 -54l-407 -404h-27l-372 415v15l292 279v7q0 29 -104 115l-188 176v15l431 409l757 3z" />
    <glyph glyph-name="uni1792.sub1" unicode="&#x17d2;&#x1792;" 
d="M-691 -90q66 0 91 -55l8 -46q0 -78 -62 -173q-23 -38 -180 -176q-91 -77 -166 -134l197 -187q65 42 65 135q0 41 -22 63q-57 85 -57 104q69 48 82 48h12q70 -56 115 -73q82 22 82 114v15q0 71 -27 145q45 33 120 33q51 -106 51 -282q-8 -68 -93 -153q-58 -21 -107 -21h-1
v-4q0 -129 -125 -226q-97 -86 -218 -86q-29 55 -143 161q-70 57 -150 110l-15 80q97 58 275 200l61 56q115 119 121 197l1 3q-19 29 -19 67v4q0 73 97 81h7z" />
    <glyph glyph-name="uni179217B6" unicode="&#x1792;&#x17b6;" horiz-adv-x="2866" 
d="M1193 1423q451 -237 468 -237h37q145 0 558 242l641 -415l-1 -305v-663q-80 -65 -104 -65l-185 151v65q21 18 157 103q4 59 4 114q0 179 -15 398q-21 38 -107 101q-242 161 -504 283q-58 0 -191 -60q-96 -49 -278 -176l-20 -10l-189 85q-354 160 -407 160
q-82 0 -269 -127q-58 -44 -72 -59l305 -241q-108 -82 -268 -241l-58 -66q276 -261 268 -261h-8l386 318l365 -344l180 229l71 219h34q54 -65 60 -116q0 -52 -55 -199l-324 -335l-420 292l-395 -293l-382 424v15l292 282l-300 294q24 21 433 270q243 149 278 168h15z" />
    <glyph glyph-name="uni1793.sub1" unicode="&#x17d2;&#x1793;" horiz-adv-x="264" 
d="M-408 -180q69 0 94 -77v-118h-19l75 -19q237 -53 393 -53q19 0 90 11v-25q0 -38 -86 -78q-88 -28 -167 -28q-90 0 -286 30v-230q67 -36 83 -86q8 -16 8 -43v-4q0 -75 -85 -126q-42 -15 -72 -15q-103 0 -146 93q-5 8 -8 32q0 28 3 32h45q-281 -95 -461 -135
q-208 0 -319 208q-24 55 -24 101q0 194 140 291q85 51 175 51q109 0 228 -51q14 -4 23 -4q11 0 102 50q47 19 87 19l36 -3v-21l2 125q0 24 40 62q26 11 49 11zM-1137 -659v-4q0 -97 54 -125q56 -35 143 -35h45q10 0 303 51q74 14 88 15v242l-29 5q-45 0 -116 -167h-22
q-42 0 -143 128q-70 64 -139 64q-108 0 -170 -113q-14 -32 -14 -61z" />
    <glyph glyph-name="uni179317B6" unicode="&#x1793;&#x17b6;" horiz-adv-x="2800" 
d="M1167 1423h20q396 -232 502 -232h12q13 0 115 56q285 147 329 147h3q26 0 295 -143q268 -146 386 -213l-1 -1003q-80 -54 -106 -54l-181 143v62q14 14 157 104q1 5 1 42v6q0 189 -31 473q-196 142 -409 257q-204 104 -254 104q-67 -25 -270 -131q-124 -64 -202 -64h-1
l-6 -1q-27 0 -82 36q-217 127 -223 127q-112 58 -174 58q-32 0 -120 -60q-7 0 -175 -120q4 -8 58 -63v-659h370q190 -169 200 -176q55 -9 97 -9q79 0 93 21q35 26 66 66q66 109 171 372h44l24 -303l-228 -286h-419q-104 121 -159 158q-73 51 -131 51q-96 13 -128 13v-161
q-15 -18 -95 -60h-20l-219 197v101l2 2v13l180 4v486l-192 199q490 321 701 440z" />
    <glyph glyph-name="uni1794.sub1" unicode="&#x17d2;&#x1794;" horiz-adv-x="796" 
d="M561 1417h29q177 -141 197 -141l49 -5h72l2 -2h29q-90 -166 -215 -166q-90 0 -181 67l-37 -40q32 0 137 -87q46 -48 78 -97v-1917q-72 -56 -192 -56l-490 255q-106 -186 -122 -203q-44 -49 -99 -49q-62 0 -268 122l-87 49q60 153 236 511q65 53 114 53h18q61 0 118 -93
q12 -30 12 -60q0 -79 -92 -123h-10q-75 0 -110 46l-9 8q-3 0 -11 -26l-70 -211q137 -100 192 -118h3q32 0 82 93q83 148 101 153h15q365 -226 488 -282v0q31 9 36 65v1742q-58 82 -135 82q-18 0 -73 -11q-82 39 -88 54v11z" />
    <glyph glyph-name="uni179417B6" unicode="&#x1794;&#x17b6;" horiz-adv-x="2831" 
d="M840 -20l-371 431l282 293l-276 305q610 386 660 414h17q357 -187 459 -233q15 -5 35 -5q158 0 558 238h19l632 -411v-966l-82 -66h-22q-172 137 -187 155v62l159 105l3 87v37q0 190 -14 384q-24 43 -116 109q-261 167 -493 276q-140 0 -435 -212q-24 -17 -58 -34
q-529 244 -594 244q-104 0 -300 -146l-26 -25q289 -223 318 -250q-223 -213 -316 -306l357 -356h-9l75 -7q220 14 255 25.5t189 133.5l82 77v0q-11 71 -8 71q-37 51 -72 71q-62 31 -99 31h-2q-30 0 -98 -31l-61 84v17l263 326q190 -103 223 -116h104v-25q-54 -136 -144 -136
q-38 0 -184 46h-5q-30 0 -39 -25q124 -36 190 -134l37 -49l-18 -261q-265 -228 -285 -228h-603z" />
    <glyph glyph-name="uni1795.sub1" unicode="&#x17d2;&#x1795;" 
d="M-1105 -191l295 -199v-19l-247 -237l178 -168l265 237h25l250 -260l139 134v10q0 47 -23 57h-1q-27 -16 -55 -16h-1q-71 0 -93 66l-3 10v11q0 66 96 111l40 6q98 0 150 -108q16 -50 16 -84q0 -61 -43 -112q-39 -62 -213 -236l-62 -56l-287 278l5 -5h22l-268 -259h-27
l-303 338l265 260q-14 34 -85 65q-15 8 -28 8h-18q-37 0 -113 -23l-19 19v13l117 159h26z" />
    <glyph glyph-name="uni179517B6" unicode="&#x1795;&#x17b6;" horiz-adv-x="2900" 
d="M1597 214l181 176v12q0 68 -35 81l-3 1q-27 -22 -74 -22q-65 0 -100 59q-12 23 -12 40q0 88 116 139q33 10 54 10q110 0 180 -127q19 -61 19 -101v-22q0 -70 -70 -149q-36 -59 -272 -296q-4 0 -38 -35h-26l-331 321h20l-336 -321h-25q-33 30 -376 417l296 290l-288 316
l469 424h23q264 -212 353 -234q61 -13 100 -13q74 0 179 48q153 85 222 267q24 83 24 207l-6 164q148 0 148 -161v-17q0 -235 -106 -383l413 121q620 -389 628 -403v-988q-78 -55 -107 -55l-181 143v61q19 19 155 105l4 82q0 150 -23 452q-54 47 -219 154q-375 243 -388 243
q-55 -6 -514 -140q-30 -19 -60 -30q-140 -60 -250 -60q-199 0 -489 216h17l-215 -175v15q23 -15 350 -277v-18l-308 -298l237 -221q67 68 325 302h26z" />
    <glyph glyph-name="uni1796.sub1" unicode="&#x17d2;&#x1796;" 
d="M-966 -171l223 -158h3q37 0 63 20q30 16 92 67l84 73l326 -237l-1 -615l-82 -39q-105 58 -164 92v51l131 62q0 2 1 55q0 89 -12 266l-212 148q-45 32 -47 32q-8 4 -10 4h-5q-21 0 -80 -44q-7 -1 -132 -93l-239 149l-153 -107l-18 -356l108 -86q147 87 147 134
q0 10 -16 24q-12 8 -40 8q-50 0 -87 -69h-27q-17 14 -54 78q21 38 51 70q30 25 63 31q38 11 78 11q74 0 135 -59q35 -41 35 -94q0 -91 -20 -91q-49 -63 -141 -145q-74 -61 -110 -69l-228 213v441q30 21 338 233z" />
    <glyph glyph-name="uni179617B6" unicode="&#x1796;&#x17b6;" horiz-adv-x="2831" 
d="M2291 1429q553 -374 562 -386v-6l-1 -994l-80 -63h-21l-186 151v65l157 103q7 110 7 257l-3 285l-455 313q-44 32 -48 32l-12 2q-14 0 -81 -39l-308 -156v-545l-2 -405l-91 -71l-196 159v60q6 12 103 73l53 35l5 101q0 146 -17 449l-318 308q-6 4 -13 4q-24 0 -90 -66
q-41 -36 -164 -162l-300 257h22l-199 -191l-21 -608q138 -152 133 -146q102 78 159 165q24 41 24 65q0 31 -28 59q-17 10 -37 10h-4q-54 0 -85 -60q-9 -11 -24 -54h-38l-55 117q40 89 85 133q76 40 138 40q99 0 171 -109q31 -56 31 -128v-18q0 -127 -20 -127
q-64 -113 -190 -264q-54 -60 -87 -85h-28l-250 325q-14 0 -14 27v708q33 33 402 384l268 -263h3q50 0 87 43q78 73 107 111l93 112l344 -342z" />
    <glyph glyph-name="uni1797.sub1" unicode="&#x17d2;&#x1797;" 
d="M-677 -175l546 -224v-578q-68 -56 -93 -56l-159 130v57l123 82q11 27 11 78v13q-5 115 -6 115q-96 67 -408 187q-120 42 -136 42q-73 0 -246 -78v16l40 -49l-12 -420l-223 -185l-67 82q15 188 26 207l137 32l1 80v81l1 18q-112 102 -122 118l-2 31v28q0 18 119 51
q30 11 470 142z" />
    <glyph glyph-name="uni179717B6" unicode="&#x1797;&#x17b6;" horiz-adv-x="2956" 
d="M2251 1423q342 -176 735 -385l-1 -990l-83 -62h-21l-183 150v62q15 17 155 106q3 15 5 99q0 102 -17 460q-527 283 -709 348l-5 1q-134 -39 -360 -140l-232 -102q-259 170 -413 229q-55 18 -61 18q-110 -35 -196 -81q-53 -31 -109 -71q-5 -4 -5 4q12 -26 79 -94
q-40 -16 -209 -31l-159 145q345 179 646 302l85 27q398 -205 416 -206q23 -11 27 -11h2q25 0 291 100l307 122h15zM1297 983l639 -263v-676q-78 -64 -104 -64l-184 150v62q12 14 138 92q7 4 11 21q9 37 9 83q-6 149 -11 149q-48 43 -293 148q-295 117 -322 117q-7 5 -30 8
q-74 0 -275 -87l-7 -4q19 -21 38 -47l-14 -489l-254 -212q-26 22 -80 89q21 220 28 239l165 38l3 211v4l-145 136v14l-1 68q30 14 689 213z" />
    <glyph glyph-name="uni1798.sub1" unicode="&#x17d2;&#x1798;" 
d="M-387 -208q64 -19 85 -59q18 -42 18 -168v-36q0 2 -14 2q75 -11 178 -70q46 -26 115 -102q62 -76 62 -109q3 0 6 -85q0 -196 -181 -275l-70 -7q-196 0 -310 224q23 246 23 318v2h13q-69 0 -196 -107l-106 -101q-54 103 -75 130q-48 48 -95 67l-2 1q-125 -23 -475 -47
q-78 55 -78 118q8 57 43 57q98 -25 160 -25q143 0 396 87h16q95 0 204 -121q43 37 136 50q39 9 60 9l-12 -12l-5 186q0 38 74 66zM-287 -600q-6 -98 -8 -214q0 -123 94 -160q17 -7 36 -9q80 36 80 144v1q0 148 -201 238h-1z" />
    <glyph glyph-name="uni179817B6" unicode="&#x1798;&#x17b6;" horiz-adv-x="3000" 
d="M2333 1427q685 -415 695 -428v-955l-81 -64h-21q-165 132 -185 152v62l156 104l5 117q-10 332 -19 332q-17 72 -43 100l-624 359l-360 -169v17q75 -71 87 -96q28 -33 48 -103l17 -62l-11 -492q0 -17 -55 -62l-284 -257h-746l-444 440q293 275 278 268l-269 275v14
q56 70 387 453q186 -168 216 -170l37 -3q38 2 102 11q-21 -65 -80 -117q-77 -59 -157 -59q-63 0 -147 60q-31 15 -46 15h-9q-26 0 -88 -68q-29 -41 -29 -65v5l241 -256h960q-48 141 -139 141h-13q-41 0 -131 -48l-70 115q443 263 822 434zM677 470q9 -9 411 -356
q388 23 389 25q140 36 309 176q75 64 104 98l-13 243h-975z" />
    <glyph glyph-name="uni1799.sub1" unicode="&#x17d2;&#x1799;" horiz-adv-x="774" 
d="M572 1432q195 -155 216 -155l75 -5h43l3 -3h29q-90 -164 -208 -164h-5q-94 0 -181 66l-36 -39q46 0 156 -108l57 -76v-1626q-246 -310 -282 -347h-655q-70 67 -371 384v369q67 93 164 93h11q105 0 146 -110l5 -35q0 -108 -98 -144l-46 -6h-14l-19 2v-103l313 -275l30 -25
h323q131 0 348 324v1459q-60 82 -128 82q-31 0 -75 -13l-101 50z" />
    <glyph glyph-name="uni179917B6" unicode="&#x1799;&#x17b6;" horiz-adv-x="3735" 
d="M3064 1427q449 -270 695 -423v-958q-76 -66 -105 -66l-182 152v63l156 103l2 60v89q0 325 -51 389q0 10 -92 60l-540 315l-361 -173v15q50 -42 90 -96q62 -89 62 -278l7 -414l3 -15l-232 -268h-564l-253 234q-165 -212 -190 -234h-657l-378 448l3 29l12 534l204 370
q71 58 142 58h9q91 0 168 -115q16 -31 16 -57q0 -57 -111 -165l-158 48l-108 -137l-44 -518l407 -364h-9q306 0 394 52q135 141 249 284q-7 285 -12 285q-100 253 -229 253q-17 0 -68 -13q-86 41 -94 61l286 383h28q179 -144 205 -144l84 -5l33 5l14 -20v-11
q-78 -142 -200 -142q-77 7 -156 51l-27 18l-37 -40q29 0 135 -84q99 -111 108 -165q31 -73 31 -204l9 -228q10 -14 290 -321q367 14 367 44q96 100 195 241l24 31l-5 269q-12 83 -48 133q-56 79 -124 79h-3q-53 0 -145 -47q-61 102 -61 123q503 290 816 426z" />
    <glyph glyph-name="uni179A.sub1" unicode="&#x17d2;&#x179a;" horiz-adv-x="796" 
d="M680 -721l303 -317l633 14l272 290v107q7 41 51 41q49 -20 49 -48v-163l-335 -329h-741l-356 323v3190l356 323h741l335 -329v-163q0 -28 -49 -48q-44 0 -51 41v107l-272 290l-633 14l-303 -317v-3026z" />
    <glyph glyph-name="uni179A17B6" unicode="&#x179a;&#x17b6;" horiz-adv-x="1779" 
d="M1314 1428q91 -72 490 -404v-979q-79 -53 -103 -53l-180 139v64q23 20 154 103q1 6 2 84q0 147 -24 443q-97 108 -243 241q-190 173 -222 188q-150 -121 -223 -148l-33 -6q-90 0 -190 70l-41 -43q4 -1 92 -55q74 -56 107 -105v-790l-242 -197h-26l-66 78q20 225 33 242
l166 14l-1 614q-60 52 -126 52h-30q-13 0 -41 -6q-85 49 -95 68q260 345 299 391q135 -107 217 -161l4 -1z" />
    <glyph glyph-name="uni179B.sub1" unicode="&#x17d2;&#x179b;" 
d="M-13 -223v-39q-92 -109 -273 -288q-117 -109 -165 -137q-120 -86 -206 -138h-20q-42 35 -76 50q-62 29 -102 29q-76 0 -149 -70q-38 -45 -38 -94v1q94 -107 138 -130l27 -17q42 19 103 64q48 42 92 95l29 -29v-126l-221 -187h-25l-354 285v14q41 77 150 187q63 55 157 74
q37 8 126 13q86 -2 137 -8q177 65 419 274q30 19 124 118q8 19 127 59z" />
    <glyph glyph-name="uni179B17B6" unicode="&#x179b;&#x17b6;" horiz-adv-x="3500" 
d="M2816 1423h16l687 -418v-960q-76 -65 -105 -65l-183 150v63q31 27 170 111q-11 0 -9 115q-8 312 -23 350q-28 79 -40 79q-610 357 -623 363l-346 -170q87 -78 110 -152q27 -95 27 -113l5 -472l-236 -317h-660q-343 405 -377 450q203 409 203 403q-131 115 -440 369
l-370 -289l-13 -600l152 -11q25 0 47 -244l-75 -89q-244 195 -258 211v781l581 457q551 -517 587 -555l-244 -423l366 -330h34q215 0 345 45q7 0 121 129l134 161q-7 287 -10 287q-25 87 -62 128q-48 56 -108 56q-56 0 -149 -44l-62 103v16q480 282 808 425z" />
    <glyph glyph-name="uni179C.sub1" unicode="&#x17d2;&#x179c;" 
d="M-190 -393q-13 -19 -144.5 -160.5t-244.5 -217.5l-80 -52l101 -117q35 5 136 106t155 232q61 137 77 209zM-85 -327q-44 -320 -213 -641q-103 -162 -320 -162q-105 6 -105 28q-176 164 -176 177q16 126 37 126q125 67 278 183q99 82 227 211q161 174 252 306z" />
    <glyph glyph-name="uni179C17B6" unicode="&#x179c;&#x17b6;" horiz-adv-x="1800" 
d="M1111 2075q197 -367 197 -456q10 -37 10 -102v-26l-13 -90q504 -360 519 -378v-8l-2 -983q-80 -52 -106 -52l-183 143v59q23 21 158 107l3 52q0 227 -25 484l-469 366l-49 -42q-92 -50 -167 -50h-21q-77 0 -203 71l-22 10l-53 -65v19q63 -14 170 -110q45 -43 45 -62v-128
l2 -657l-246 -197h-24l-65 79q17 212 25 242l172 14v615q-57 55 -140 55l-61 -6l-88 54v17q264 352 296 384q222 -135 224 -135h28q79 0 135 108q24 59 24 126v29q0 109 -64 224q-43 84 -92 162v10q0 86 85 117z" />
    <glyph glyph-name="uni179D.sub1" unicode="&#x17d2;&#x179d;" 
d="M-196 -704l-265 16l-82 121l60 96l94 -92l186 -29q-1 5 -7 37q-29 31 -263 128q-119 50 -230 86q-39 12 -44 12q-87 -5 -371 -140v-269q126 -10 152 -15l19 -207l-72 -85q-208 176 -219 187v442q11 15 94 43q508 195 519 195h7l530 -218l10 -10l-1 -202l86 -6l35 29
l47 -35l-10 -48l-51 -32l-107 -5v-271l-70 -56h-23l-159 129v57l122 79q12 23 13 63z" />
    <glyph glyph-name="uni179D17B6" unicode="&#x179d;&#x17b6;" horiz-adv-x="2938" 
d="M2237 1423q334 -171 725 -382l1 -151l2 -682l1 -149l-81 -63h-21l-184 150v65l155 103l4 96q0 124 -16 458q-269 145 -523 268q-172 79 -183 79q-105 -32 -227 -83l-365 -159q-71 49 -193 123q-190 107 -278 122q-127 -42 -213 -93q-58 -33 -92 -63v9q6 -18 65 -78v-27
q-165 -17 -195 -17l-157 143q285 147 559 266q91 38 166 59l353 -179q52 -27 91 -36q188 56 487 180q99 41 119 41zM1824 492q-1 11 -8 51q-36 38 -314 153q-141 59 -272 102q-48 14 -54 14q-103 -6 -442 -167v-323q154 -12 178 -20l23 -238l-79 -96q-243 204 -255 218v517
q10 16 108 50q600 230 612 230h7l624 -257l10 -10v-240l107 -8l40 33l51 -38l-12 -53l-57 -37l-130 -6v-322l-81 -64h-22l-185 151v64l143 93q15 29 16 79l-315 20l-94 139l67 108l108 -107z" />
    <glyph glyph-name="uni179E.sub1" unicode="&#x17d2;&#x179e;" horiz-adv-x="690" 
d="M476 -49v954q-58 82 -135 82q-18 0 -73 -11q-82 39 -88 54v11l281 376h29q177 -141 197 -141l49 -5h72l2 -2h29q-90 -166 -215 -166q-90 0 -181 67l-37 -40q32 0 137 -87q46 -48 78 -97v-1088l77 -54q72 -44 167 -44l15 -15v-16q-56 -71 -106 -71h-9q-37 0 -144 44v-673
q-72 -56 -192 -56l-490 255q-106 -186 -122 -203q-44 -49 -99 -49q-62 0 -268 122l-87 49q60 153 236 511q65 53 114 53h18q61 0 118 -93q12 -30 12 -60q0 -79 -92 -123h-10q-75 0 -110 46l-9 8q-3 0 -11 -26l-70 -211q137 -100 192 -118h3q32 0 82 93q83 148 101 153h15
q365 -226 488 -282v0q31 9 36 65v600l-4 2q-15 9 -264 44v26q20 20 187 131h12q16 0 53 -15v10z" />
    <glyph glyph-name="uni179E17B6" unicode="&#x179e;&#x17b6;" horiz-adv-x="3000" 
d="M1885 523l-15 243q-55 160 -152 160q-48 0 -117 -39h-25q-46 69 -64 108q406 240 754 400q35 19 69 30l692 -423v-958q-77 -64 -103 -64l-184 151v64l157 102q4 51 4 102q-8 345 -25 373q-26 73 -34 73l-627 361l-359 -170v17q103 -96 122 -160q28 -85 28 -104l-6 -275
l205 -12l57 38l66 -39l-19 -65l-83 -44l-228 -9l-2 -97l-338 -304h-748l-442 440l282 265l-275 277v15l387 452q191 -171 227 -171l22 -2l84 8l20 -20q-63 -106 -164 -142q-43 -11 -70 -11q-61 0 -145 60q-29 16 -56 16t-96 -78q-22 -39 -22 -50q290 -305 300 -321v-13
l-284 -236l411 -356h-11l394 22q97 30 177 78q93 58 215 173l-9 -8h53l-590 31l-146 173l96 124l160 -127z" />
    <glyph glyph-name="uni179F.sub1" unicode="&#x17d2;&#x179f;" horiz-adv-x="785" 
d="M-149 -866h3q32 0 82 93q83 148 101 153h15q365 -226 488 -282v0q31 9 36 65v600l-4 2q-15 9 -264 44v26q20 20 187 131h12q16 0 53 -15v10l16 -10v954q-58 82 -135 82q-18 0 -73 -11q-82 39 -88 54v11l281 376h29q177 -141 197 -141l49 -5h72l2 -2h29
q-90 -166 -215 -166q-90 0 -181 67l-37 -40q32 0 137 -87q46 -48 78 -97v-1088l77 -54q72 -44 167 -44l15 -15v-16q-56 -71 -106 -71h-9q-37 0 -144 44v-673q-72 -56 -192 -56l-490 255q-106 -186 -122 -203q-44 -49 -99 -49q-62 0 -351 171q174 353 174 358q0 14 -6 14
q-93 0 -127 73l-2 32q0 96 113 135l38 5q85 0 125 -63q22 -41 22 -104l-138 -347q135 -100 185 -116z" />
    <glyph glyph-name="uni179F17B6" unicode="&#x179f;&#x17b6;" horiz-adv-x="3800" 
d="M3123 1425l691 -421v-955q-74 -65 -103 -65l-185 148v63q35 27 156 104q4 23 4 102q0 300 -30 395q-14 39 -40 59q-23 10 -613 356l-347 -170q63 -57 84 -96q59 -101 59 -229l27 -362l-320 -372h-757q-325 330 -325 341v6l156 303q-62 50 -255 85q-234 39 -279 39
q-186 0 -388 -81l-64 -34l17 -339q0 8 52 8q127 -10 127 -32l20 -223l-75 -86l-256 206l-2 135v216l-2 200q175 93 299 129q204 44 326 44l470 -74v-29q-86 89 -115 99q-105 65 -183 65q-57 0 -149 -21l-95 67v16l284 399q28 0 199 -107q66 -37 68 -37q44 0 173 14l22 -11
v-16q-25 -70 -79 -122q-57 -43 -188 -43h-8l-79 36q-27 14 -74 20q-40 0 -68 -60q133 -13 271 -100q121 -93 241 -244q11 -9 11 -26l-210 -346q128 -125 200 -175q86 -69 155 -69l154 -4q234 0 234 7q81 27 214 146q123 124 123 137v363q-44 94 -114 132q-28 11 -46 11
q-56 0 -143 -49l-69 118q466 272 754 401q37 19 70 28z" />
    <glyph glyph-name="uni17A0.sub1" unicode="&#x17d2;&#x17a0;" 
d="M-714 -175l446 -272v-612q-53 -45 -78 -45l-122 100v48l100 63q2 29 2 61q-5 217 -15 233q-15 42 -16 42l-394 226l-217 -102v17q64 -60 77 -102q18 -55 18 -67l-6 -321l-219 -197h-481l-287 286l178 167l-171 173v14l253 295q126 -112 146 -112l13 -2l50 6l29 -14
q-47 -79 -114 -103q-29 -8 -48 -8q-43 0 -97 40q-16 8 -30 8q-12 0 -53 -45q-12 -23 -12 -26q182 -191 194 -212l-181 -150l251 -218h-11q240 14 240 12q66 20 116 50q58 36 134 108l15 13l-13 220q-33 95 -87 95q-28 0 -71 -25h-25q-32 48 -46 78q263 156 483 257
q23 12 49 21z" />
    <glyph glyph-name="uni17A017B6" unicode="&#x17a0;&#x17b6;" horiz-adv-x="4033" 
d="M2335 1425q574 -347 606 -369l555 361h20l548 -374l-2 -995l-79 -61h-23l-183 149v62q22 21 155 103q7 78 7 258l-1 269q0 7 2 7q-495 344 -496 344l-15 2h-5q-16 0 -111 -54q-260 -130 -286 -145v-938q-77 -64 -103 -64l-184 151v64l157 102q4 51 4 102q-8 345 -25 373
q-26 73 -34 73l-627 361l-359 -170v17q103 -96 122 -160q28 -85 28 -104l-10 -503l-338 -304h-748l-442 440l282 265l-275 277v15l387 452q191 -171 227 -171l22 -2l84 8l20 -20q-63 -106 -164 -142q-43 -11 -70 -11q-61 0 -145 60q-29 16 -56 16t-96 -78q-22 -39 -22 -50
q290 -305 300 -321v-13l-284 -236l411 -356h-11l394 22q97 30 177 78q93 58 215 173l27 24l-21 354q-55 160 -152 160q-48 0 -117 -39h-25q-46 69 -64 108q406 240 754 400q35 19 69 30z" />
    <glyph glyph-name="uni17A1.sub1" unicode="&#x17d2;&#x17a1;" 
d="M-297 -184l150 -118l4 -43v-15q0 -86 -112 -119q-27 -9 -60 -9h-7q-88 0 -140 63q-10 18 -10 34q0 35 55 55q18 4 35 4q65 0 90 -49q-5 3 -4 3q14 0 26 15l1 10v10q0 18 -56 60q-7 9 -10 9l-427 15l-179 -110v22q1 0 221 -118v-24q-30 -14 -184 -115l147 -78l138 78
q95 57 217 57q149 0 223 -70q34 -34 34 -76q-5 -95 -92 -121q-21 -6 -42 -6h-9q-74 0 -105 45l-5 22q0 55 88 79l50 5l2 -1q-13 -21 -13 -14q0 22 -67 47q-36 12 -83 12q-60 0 -122 -22l-263 -174h-19q-84 59 -249 182v20l189 119v-4q0 6 -57 37l-148 92l301 190h99z
M486 -1348q-30 -33 -139 -39l-318 110q-61 -64 -80 -79q-28 -21 -68 -21q-41 0 -234 77v18q104 137 109 148q0 -9 3 -9q-59 0 -87 39l-3 17q0 50 80 70l22 2q108 0 108 -86l-85 -140q86 -42 111 -45h1q18 0 39 26l70 72h22q299 -122 315 -122h2q7 0 10 11l5 869
q-34 32 -85 32q-13 0 -50 -6q-60 19 -69 33v14l200 177h21q122 -64 135 -64l34 -3h48l2 -1h41q-80 -97 -168 -97q-62 0 -124 30l5 4q-8 0 65 -41q33 -23 62 -47v-949z" />
    <glyph glyph-name="uni17A117B6" unicode="&#x17a1;&#x17b6;" horiz-adv-x="3313" 
d="M1595 1416l210 -250l4 -82v-30q0 -169 -152 -235q-39 -21 -87 -21h-10q-125 0 -196 127q-11 32 -11 61q0 60 68 95q25 11 51 11q89 0 125 -102q-1 0 1 0q23 0 47 49l4 28v25q0 52 -87 148q-14 26 -21 26l-622 31l-272 -248v15q11 -7 322 -256v-20q-34 -26 -284 -271
l242 -192l203 172q136 123 314 123q214 0 318 -147q45 -66 45 -149q-6 -188 -123 -239q-30 -15 -62 -15h-12q-104 0 -142 88l-7 39q0 100 117 144l71 14l6 -9q-10 -24 -10 -2q0 68 -107 125q-54 29 -122 29q-87 0 -179 -51l-383 -379h-26q-118 126 -351 390v15l274 260v5
q0 30 -91 102l-193 182l413 390l144 2zM2409 -950q-35 -59 -191 -71l-463 253q-93 -177 -121 -208q-38 -42 -94 -42q-59 0 -329 160v15q147 326 158 358q0 9 -7 9q-83 0 -117 70l-2 29q0 89 104 128l33 5q145 0 145 -159l-131 -353q145 -104 181 -110h1q30 0 63 64l97 180
h31q435 -278 459 -278h2q19 0 33 46v1660q-23 91 -86 91h-16l-67 -10q-28 28 -82 105q325 197 735 428h23q209 -113 574 -354v-1013l-89 -73q-152 116 -197 159v56q9 16 154 108q4 27 4 88v18q-5 428 -1 428q-300 219 -506 331l-28 16q-133 -52 -317 -156l47 -203v-1775z
" />
    <glyph glyph-name="uni17A2.sub1" unicode="&#x17d2;&#x17a2;" 
d="M-247 -179h22q148 -91 170 -91q19 -3 54 -3h41l3 -2h36q-88 -119 -184 -119h-12q-61 0 -149 43q-4 4 11 4l-27 -22q67 -16 155 -98v-293l2 -217l-220 -133l-66 62l16 141q0 24 149 30v-18l-2 144h-656v-227l-205 -126h-23l-59 54l22 160l143 11v374q-43 32 -113 32
l-48 -3q-64 26 -85 47l244 247h24q150 -91 167 -91l59 -3h59v-26q-65 -95 -171 -95q-76 0 -161 49h16l-29 -24q92 -26 160 -100v-183h656v153q-42 30 -95 30h-32q-12 0 -28 -5l-83 39v20z" />
    <glyph glyph-name="uni17A217B6" unicode="&#x17a2;&#x17b6;" horiz-adv-x="2800" 
d="M2161 1429q20 -21 463 -288l224 -140v-952q-16 -21 -82 -69h-21l-185 151v61q46 37 156 103l4 84q0 196 -18 374q-30 96 -49 96l-617 356q-328 -156 -345 -165q40 -33 78 -86q31 -45 60 -148l7 -45v-576l-243 -198h-26q-63 73 -63 87q16 233 47 233l148 12v221h-802v-358
q-20 -22 -253 -208q-37 30 -80 89l20 226l21 15l155 11v613q-57 52 -135 52h-2l-62 -5l-86 53v20l282 370h26q177 -143 205 -143q23 -5 60 -5h55l2 -2h28q-91 -165 -202 -165h-21q-75 0 -186 74l12 -11l-53 -56v19q62 -13 181 -119l33 -41v-299h802v93q-30 99 -103 150
q-30 11 -44 11h-21q-37 0 -128 -47l-70 115q427 256 828 437z" />
    <glyph glyph-name="uni17A3.sub1" unicode="&#x17d2;&#x17a3;" 
d="M-247 -179h22q148 -91 170 -91q19 -3 54 -3h41l3 -2h36q-88 -119 -184 -119h-12q-61 0 -149 43q-4 4 11 4l-27 -22q67 -16 155 -98v-293l2 -217l-220 -133l-66 62l16 141q0 24 149 30v-18l-2 144h-656v-227l-205 -126h-23l-59 54l22 160l143 11v374q-43 32 -113 32
l-48 -3q-64 26 -85 47l244 247h24q150 -91 167 -91l59 -3h59v-26q-65 -95 -171 -95q-76 0 -161 49h16l-29 -24q92 -26 160 -100v-183h656v153q-42 30 -95 30h-32q-12 0 -28 -5l-83 39v20z" />
    <glyph glyph-name="uni17A4.sub1" unicode="&#x17d2;&#x17a4;" 
d="M-706 -174q16 -12 352 -164l176 -82v-549q-14 -17 -68 -45h-16l-147 89v46q40 24 120 59l2 41q0 111 -14 210q-19 49 -31 49l-470 202q-248 -88 -246 -87q17 -10 46 -41q25 -27 48 -88l6 -26v-334l-191 -116h-21q-53 45 -53 58q14 141 42 141l107 7v108h-599v-198
q-18 -17 -198 -124q-31 19 -68 57l16 138l22 11l112 6v334q-38 26 -97 26h-1l-48 -2l-71 33v20l219 215h22q135 -81 155 -81q18 -3 46 -3h45l1 -1h34q-83 -111 -169 -111h-16q-57 0 -143 43l10 -8l-34 -27v23q43 -6 135 -68l28 -27v-165h599v43q-21 51 -74 78q-22 6 -32 6
h-16q-29 0 -99 -26l-63 77q335 150 642 253z" />
    <glyph glyph-name="uni17A5.sub1" unicode="&#x17d2;&#x17a5;" 
d="M-336 111q47 0 127 -86l14 -489l-110 -57h-13q-396 136 -437 136q-7 -1 -7 -26v-5q-5 5 384 -122v-35l-172 -4l-411 87v20q73 195 90 224q354 -103 538 -162l7 -1h-4l13 389q-31 33 -91 47v18q0 30 53 63zM-506 -544l531 -175v-14l-1 -444l-71 -43h-18l-158 104v50
l122 64q9 14 9 64q-5 86 -6 86q-44 34 -316 122q-191 59 -216 59q-103 -10 -363 -109l-18 -183l166 -124q86 97 86 143v8q0 11 -18 11h-4q-7 0 -6 0v18l53 -59l-129 -15q-107 29 -107 90v6q0 80 110 105q18 5 47 5h7q116 0 164 -94l7 -35v-16q-9 -108 -30 -108l-150 -189
h-27l-270 207v278q12 12 380 123q201 61 226 65z" />
    <glyph glyph-name="uni17A6.sub1" unicode="&#x17d2;&#x17a6;" 
d="M-555 -125l412 -128v-327q0 -15 -59 -46h-16l-126 75v45q89 43 89 38q10 19 10 39v26q-4 66 3 66q-63 32 -120 49q-184 63 -259 75q-61 -2 -301 -92l-13 -127l124 -88q11 6 33 32q24 31 24 52q0 4 -6 4l13 2l20 -22q-32 -15 -104 -21q-85 21 -85 74v1q0 62 93 83l29 3
q99 0 136 -65q11 -20 11 -45q-8 -87 -29 -87q-97 -108 -127 -129l-222 166v200q0 16 237 83q213 63 233 64zM206 -945l-121 -70l-218 -2q-113 44 -111 44h-85v-16q0 -15 -51 -30h-13l-97 37v31q12 12 -30 -2h102v20q-9 122 2 122q-46 24 -139 53q-98 32 -131 36
q-48 -4 -207 -65l-9 -82q88 -64 76 -61q38 27 38 51v5q0 -5 5 -5h-5l25 4l19 -23l-89 -10q-69 19 -69 53v9q0 48 75 63l17 1h8q75 0 104 -59l2 -18q0 -62 -30 -79q-66 -75 -88 -86q-32 19 -148 107q-12 0 -18 22v143q13 13 295 93l44 12l312 -94v-173h144l123 -49l118 2
l46 36l-2 798l-169 100h-5l-395 3q-88 -53 -156 -76l-42 -15h-34v42q93 44 129 69q80 53 102 95l15 15l85 -26q-29 -47 -63 -75l43 29h364l231 -112z" />
    <glyph glyph-name="uni17A7.sub1" unicode="&#x17d2;&#x17a7;" 
d="M-679 -180q147 0 291 -63q52 -23 111 -60q79 -56 102 -88q37 -52 37 -75q-293 -179 -538 -335q-51 -33 -51 -56q5 -13 72 -60q47 -26 68 -26q18 0 242 167h34q31 -271 31 -345v-2q-8 -47 -71 -134q-53 -60 -85 -60h-8q-42 20 -61 69v11q35 34 49 57q32 41 32 95v45
q0 64 -2 91h28q-86 -34 -193 -98q-70 -49 -84 -69h-30l-53 46q-153 137 -153 152q-3 6 -5 29q7 72 29 72q110 69 516 333v-2q0 26 -89 89q-130 84 -282 84h-2q-166 0 -272 -85q-71 -48 -71 -106v-11q0 -51 64 -77q20 -5 27 -5q61 0 86 54l1 8q0 28 -34 51q-9 3 -16 3
q-9 0 -23 -20q-29 -23 -57 -25q-60 8 -60 44v1q0 55 80 74q42 9 76 9q83 0 149 -79q21 -36 21 -71q0 -41 -37 -77q-40 -53 -117 -78q-37 -8 -60 -8h-31q-79 0 -162 86q-45 51 -45 99q0 80 76 175q148 171 470 171z" />
    <glyph glyph-name="uni17A8.sub1" unicode="&#x17d2;&#x17a8;" 
d="M-227 -125q208 -94 248 -106l101 -29v-19q-36 -66 -108 -66h-15q-57 0 -159 48l-100 42q-8 2 -25 4q-12 0 -46 -16l-163 -67q-140 34 -314 87q-17 6 -11 6l-113 -57q32 -33 32 -68q-157 26 -169 35l-64 40q368 159 387 163q243 -90 256 -90l28 -2q25 0 126 46zM-511 -311
h11q117 0 207 -29q98 -27 193 -87q73 -51 94 -93l9 -22q-349 -189 -497 -271q-40 -24 -40 -39v0q1 -3 55 -38q46 -26 69 -26q15 0 219 133h32q29 -215 29 -279q0 -28 -63 -106q-45 -47 -82 -52q-34 7 -59 47l-5 21q51 46 65 75q9 13 9 63q0 61 -1 76q-55 -19 -154 -71
q-48 -30 -84 -60q-158 118 -195 157q-10 15 -10 31q0 67 29 67l464 261l-1 -5q0 16 -61 56q-124 78 -273 78q-176 0 -284 -95q-26 -25 -26 -57v-3q0 -33 43 -54q19 -8 41 -8h2q45 0 68 36l3 8q0 19 -25 35q-9 4 -12 4h-9q-4 0 -20 -19q-32 -16 -47 -16h-2q-56 5 -56 37v5
q0 51 96 64q13 2 41 3q86 0 142 -65q20 -28 20 -55q0 -39 -36 -69q-65 -67 -172 -67h-7q-99 0 -179 92q-20 35 -20 56q0 73 80 154q80 77 217 106q93 21 182 21z" />
    <glyph glyph-name="uni17A9.sub1" unicode="&#x17d2;&#x17a9;" 
d="M-537 -180h2q129 0 240 -47q61 -23 125 -62q122 -78 166 -186q-358 -235 -531 -357q-42 -31 -42 -55q0 -1 21 -22q72 -68 111 -68q23 5 210 154q14 13 57 39q32 -283 32 -381q-8 -49 -70 -140q-47 -57 -86 -61q-39 17 -55 55q-6 13 -6 28q41 45 55 74q22 32 22 93v37
q0 64 -2 87q-70 -31 -182 -110q-30 -23 -74 -63q-164 149 -205 201q-11 17 -11 35v9q4 74 24 74q93 63 501 349v-1q0 28 -89 95q-128 87 -265 87q-134 0 -223 -58q-53 -34 -82 -66q-31 -38 -31 -76v-12q0 -50 53 -79q20 -8 36 -8h2q46 0 75 47q4 10 4 20q0 25 -31 50
q-8 6 -14 6h-3q-7 0 -21 -22q-31 -25 -56 -25q-58 8 -58 44v3q0 27 26 52q52 32 122 32q87 0 145 -78q24 -36 24 -72q0 -49 -31 -79q-66 -96 -191 -96h-8q-86 0 -161 85q-48 56 -48 106q0 92 84 197q82 98 232 139q100 26 207 26zM-20 -794l18 -25q27 -277 27 -343
q-13 -67 -87 -164q-42 -39 -64 -39h-8q-39 18 -58 66l-2 16q56 54 75 120l2 51q0 67 -12 267z" />
    <glyph glyph-name="uni17AA.sub1" unicode="&#x17d2;&#x17aa;" 
d="M-106 149q42 0 118 -68l12 -372l-105 -48q-275 77 -392 102l-19 3h-3l-3 -19q-2 13 -18 13l371 -101v-34l-119 -3v38q93 0 258 -72q35 -14 90 -51q67 -54 85 -106q-343 -181 -503 -271q-34 -22 -34 -34v0q1 -5 63 -43q39 -20 59 -20q25 4 236 140l22 -22v-7
q25 -205 25 -255v-3q-14 -54 -88 -129q-35 -26 -62 -26q-38 13 -56 53l-4 15q59 51 71 88q4 10 4 50q0 55 -2 74q-78 -26 -192 -95l-36 -27h-23l-114 89q-78 57 -78 81l-1 9q6 64 27 64q78 42 468 260l-1 -5q0 19 -83 69q-87 46 -184 60q-36 3 -78 3q-163 0 -276 -94
q-24 -28 -24 -50v-8q0 -40 57 -59q15 -3 28 -3q42 0 67 34q4 4 4 10q0 20 -30 36q-5 2 -11 2q-9 0 -24 -18q-30 -17 -52 -17q-54 7 -54 36v5q0 54 113 67h34q71 0 132 -62q21 -29 21 -57q0 -37 -28 -61q-66 -74 -184 -74q-102 0 -179 89q-24 32 -24 61q0 69 79 149
q134 127 424 127l17 -1h-24v-35l-341 59l-15 15l83 180q347 -82 486 -119q8 -3 17 -4q-6 0 -6 2l14 284q-26 23 -85 33v17q0 28 56 54z" />
    <glyph glyph-name="uni17AB.sub1" unicode="&#x17d2;&#x17ab;" 
d="M-1109 -177q150 -63 183 -63h20l81 3v-32q-85 -58 -190 -58q-44 0 -113 22q-23 6 -41 6h-8q-59 -11 -85 -36l2 5l236 -115v-26l-236 -90v24l330 -133h-4q319 8 319 9q90 12 193 46q66 22 131 53l-14 140q-33 21 -101 33q-37 5 -56 5h-3q-38 0 -80 -11h-18l-75 53l272 156
h13l201 -49h87l28 -19q-71 -76 -145 -76h-3q-42 0 -177 22h-5q-38 0 -30 12h-39q69 -9 133 -27q84 -37 117 -66l1 -98q0 -159 -37 -159q-57 -30 -139 -58q-33 -13 -112 -41h-594l-384 178l226 100l-200 95v22zM-667 -741h6q101 0 142 -42q12 -12 16 -40q0 -70 -95 -169
q-56 -56 -168 -116q-126 -60 -183 -76q-103 -34 -471 -105q633 212 739 362q30 49 30 62q-43 2 -84 15q-41 15 -41 41v6q0 36 65 56q25 6 44 6z" />
    <glyph glyph-name="uni17AC.sub1" unicode="&#x17d2;&#x17ac;" 
d="M-1105 -175q154 -80 186 -80h24l58 2l21 -10v-20q-88 -71 -192 -71q-49 0 -117 28q-28 8 -45 8q-26 0 -80 -36q-13 -13 -13 -6q25 -14 244 -148v-22l-215 -103l310 -154q309 9 309 10q127 19 264 83q50 25 77 41q-15 181 -14 180q-36 30 -108 43q-31 6 -49 6
q-44 0 -101 -16q-65 50 -65 70l262 186q209 -64 210 -64h112v-26q-60 -83 -137 -83q-44 0 -185 27v0q-40 0 -47 -11l-10 15q124 -21 184 -70l53 -37l1 -125q0 -192 -38 -192q-86 -50 -191 -94l-60 -26h-607l-380 215q256 138 221 128l-200 116v19q19 17 318 217zM-646 -876
q120 0 156 -66q7 -19 7 -32q0 -18 -6 -38v20h-48q0 1 69 97l13 7h34v-25q-57 -105 -57 -194v-30q0 -79 57 -153q6 1 32 1q50 0 75 -40l3 -12v-11q0 -39 -67 -51l-17 -1h-3q-111 0 -164 194q-5 29 -5 51v25q0 34 11 72v-21h41q-16 -40 -63 -97q-55 -63 -135 -120
q-108 -72 -186 -103q-107 -47 -209 -75h-109q312 128 446 243q137 125 137 215q-127 8 -127 65v5q0 51 81 70q8 3 34 4z" />
    <glyph glyph-name="uni17AD.sub1" unicode="&#x17d2;&#x17ad;" 
d="M-841 -111l244 -108l8 -1q60 0 113 29q71 30 161 81l365 -165v-438l-84 -24q-18 0 -123 38q-45 14 -68 27v43q35 13 148 44l3 27v1q0 63 -14 182l-139 59q-151 67 -153 67q-10 2 -20 2q-35 0 -157 -56l-77 -34h-16l-261 101l-176 -75l-19 -238l123 -60q171 62 171 85
q-8 12 -16 12q-19 7 -49 7q-64 0 -106 -47h-29l-58 59q40 46 88 68q71 18 122 18q96 0 163 -49q34 -28 34 -63q0 -74 -28 -74q-67 -51 -186 -114q-61 -29 -89 -31l-256 148v318zM-324 -746q86 0 142 -30q36 -25 36 -57v-8q0 -72 -109 -181q-41 -41 -143 -103
q-129 -69 -241 -105q-141 -45 -534 -119q692 225 821 389q40 58 40 95v12l2 1v-29q-150 8 -150 63q0 56 105 70q12 2 31 2z" />
    <glyph glyph-name="uni17AE.sub1" unicode="&#x17d2;&#x17ae;" 
d="M-933 -176l264 -105h1q62 0 99 17q95 37 192 86h15l378 -156v-428q-33 -12 -97 -26l-193 62v45l159 44l1 8v31q0 76 -14 165l-231 90q-82 33 -86 33l-11 1h-4q-38 0 -131 -39q-119 -48 -134 -48l-289 99h9l-192 -76l-19 -230l131 -59q184 62 184 82q-7 20 -60 20h-20
q-58 0 -105 -47h-29l-62 61q81 72 129 72q42 9 99 9h9q91 0 163 -49q31 -26 31 -52v-26l-3 -38q-98 -66 -213 -123q-68 -28 -95 -36l-281 146v310zM-393 -797h11q136 0 181 -58l9 -28l-5 -30v19h-47l91 88h39v-27q-73 -93 -73 -185q0 -79 75 -145h-8q21 3 41 3h9
q74 0 92 -49v-7q0 -41 -85 -49l-20 -1q-121 0 -190 158q-13 42 -13 70q1 36 14 74v-22h39q-60 -100 -271 -203q-133 -57 -201 -77q-130 -39 -251 -64h-145q242 71 345 112q173 73 206 100q182 110 182 188q-45 0 -120 20q-37 19 -37 44q0 49 102 67z" />
    <glyph glyph-name="uni17AF.sub1" unicode="&#x17d2;&#x17af;" 
d="M-491 -179q89 -21 252 -82q23 -34 41 -99q35 -144 35 -341q0 -130 -17 -233q-48 -48 -126 -98q-78 -44 -138 -64l-18 -3l-258 115q-104 -60 -162 -82q-38 -19 -63 -25q-145 53 -225 94q-45 27 -45 42v14q97 35 211 97q76 50 78 60q-16 181 -11 181q-35 43 -92 43h-5
q-50 0 -70 -37l-2 -9q0 -13 25 -19l13 -2q32 0 98 46q31 -27 31 -43v-6q0 -28 -38 -63q-46 -23 -89 -23h-14q-63 0 -114 41q-30 33 -30 66q0 79 113 110q39 9 67 9q102 0 234 -60q16 -65 27 -214l1 -32l5 -18q-89 -29 -139 -50q-81 -40 -107 -72l-5 -7q27 -22 142 -41
q44 13 80 30q30 20 86 69h20q106 -63 146 -78q34 -16 64 -29q31 7 89 39q67 46 92 72q30 87 30 219v45q0 139 -32 320q-78 36 -166 52q-11 -5 -31 -5q-34 0 -75 42z" />
    <glyph glyph-name="uni17B0.sub1" unicode="&#x17d2;&#x17b0;" 
d="M-745 -171h16q198 -97 196 -97l7 -1q48 0 91 26q68 31 128 72h20l301 -149l-1 -277v-136q-62 -25 -180 -57q-212 -60 -471 -127v19q72 -93 102 -137h-13q30 0 87 24q49 27 55 47l-24 87l108 17q36 -38 82 -63h23q111 0 151 129q14 29 29 83h22q25 0 39 -59
q0 -64 -47 -197q-61 -47 -157 -65h-15q-63 0 -86 8q-14 -23 -60 -47q-54 -29 -120 -42q-93 -23 -167 -23q-102 3 -102 29q-13 63 -152 179q28 59 46 59q173 25 321 56q176 40 321 95q87 37 95 44l-11 262q0 -1 -3 0q-202 97 -243 115l-12 1q-24 0 -112 -45l-89 -42l-226 95
q-144 -66 -144 -60l-15 -227l99 -53q139 57 139 76q-6 17 -41 17h-18q-42 0 -78 -44h-28l-53 57q55 63 103 71q47 9 85 9q79 0 141 -51q21 -26 21 -51l-2 -53q-64 -56 -159 -114q-44 -24 -90 -42l-225 140v293z" />
    <glyph glyph-name="uni17B1.sub1" unicode="&#x17d2;&#x17b1;" 
d="M-656 -90q279 -180 600 -393q43 -28 71 -63l16 -29q-399 -173 -591 -263q-34 -19 -34 -29v3q59 -48 135 -61l13 -2q33 5 257 126h31q32 -199 32 -270q-13 -44 -91 -115q-49 -34 -79 -34q-43 18 -60 50l-7 20q41 22 73 62q16 17 16 68l-3 79h26q-97 -28 -216 -81
q-31 -16 -91 -51q-225 139 -231 163l-2 13q0 67 36 67l517 240q19 7 19 0q0 18 -93 65q-138 64 -303 64q-202 0 -332 -94q-27 -24 -27 -50q0 -42 75 -58l28 -4q57 0 85 37l1 5v0q0 19 -37 34l-17 2q-11 0 -29 -18q-23 -12 -51 -16q-64 6 -64 39v1q0 55 131 66l28 1
q99 0 164 -70q13 -17 18 -43q0 -55 -95 -104q-57 -30 -152 -30q-113 0 -201 87q-26 30 -26 55q0 100 164 194q159 74 391 74h-63l-265 122zM-640 -228l221 -131q34 -1 179 -41l-23 7v-37q-113 73 -310 189q-37 20 -42 20h-4q-16 0 -21 -7z" />
    <glyph glyph-name="uni17B2.sub1" unicode="&#x17d2;&#x17b2;" 
d="M-558 -167h386q137 -102 148 -115l23 -81l-16 -16h-54q-14 5 -59 55l-128 88h-219l-197 -123v-489l178 -96l236 -1l158 65q15 14 15 27q0 39 -89 65q-19 3 -39 3q-63 0 -120 -18l-18 18v11q15 40 172 148q56 37 56 53v6q0 12 -34 38q-39 24 -81 33q-60 15 -111 15
q-20 0 -52 -23q-11 -11 -11 -20v-8q0 -18 16 -21h2q10 0 12 3l1 5l-5 33h35q66 -30 69 -39q6 -8 6 -22v-4q0 -33 -43 -63q-38 -17 -74 -17q-48 0 -90 39q-24 30 -24 63q0 109 137 151q33 9 58 9h8q84 0 222 -51q36 -13 90 -48l18 -18q-28 -47 -78 -98q-29 -27 -86 -73v19
q168 -66 168 -160v-11q0 -45 -31 -87l-192 -98h-399l-186 133v574z" />
    <glyph glyph-name="uni17B3.sub1" unicode="&#x17d2;&#x17b3;" 
d="M-42 -180q42 0 67 -78v-9l-126 -187l-103 -12q-42 35 -123 93q-103 78 -109 78h-4q-3 0 -5 -3l148 -110q33 -6 83 -20q170 -60 225 -164q-323 -177 -405 -228q-21 -14 -21 -19q1 -3 36 -25q38 -25 56 -25q10 2 110 66l61 41h33q22 -173 22 -217l1 -7q-7 -45 -65 -108
q-32 -28 -54 -28q-25 0 -49 36l-9 23q36 32 48 53q12 14 12 65v7l-2 41q-39 -14 -123 -62q-26 -17 -57 -43q-166 127 -166 148l-1 8q0 60 28 60l182 105l176 103v-6q0 17 -77 61q-80 38 -141 41l-44 2v0q-132 0 -217 -78q-15 -20 -15 -37v-6q0 -32 45 -45l10 -1h5
q36 0 51 28v5q0 7 -8 16q-10 10 -13 10h-12q3 0 -10 -14q-15 -10 -39 -16q-53 8 -53 37q0 31 40 47q38 14 78 14q67 0 115 -58q14 -22 14 -40v-7q0 -31 -35 -60q-49 -50 -136 -50q-88 0 -151 81q-14 25 -14 44q0 60 69 130q108 99 331 99h-74l-159 91v20l152 114
q255 -174 293 -205v0h2q-3 0 13 23q66 76 79 93q-2 10 -9 18l-35 31q45 36 79 36z" />
    <glyph glyph-name="uni17B7.alt" unicode="&#x200d;&#x17b7;" horiz-adv-x="1" 
d="M-1157 2726l898 -537v-16q-14 -55 -36 -101l-1163 39l-24 16l298 599h27zM-1143 2477l-33 -170h-24q209 -26 618 -63h-23v-29z" />
    <glyph glyph-name="uni17B717CD" unicode="&#x17b7;&#x17cd;" 
d="M-1144 2077l-33 -170h-24q209 -26 618 -63h-23v-29zM-248 1780l-12 8v-15q-14 -55 -36 -101l-1166 39l-18 19l295 596h27l624 -374q79 -77 0 11v14q144 175 189 175q0 1 65 6q42 0 106 -27q75 19 278 188q100 98 144 158h29q38 -41 38 -65v-15q-161 -175 -243 -235
q-144 -115 -244 -148q-50 45 -107 45q-68 0 -103 -61l-1 -8v-5q0 -40 82 -104q15 -9 19 -9q22 3 84 73q31 34 48 34h9l23 -14q-8 -66 -73 -138q-45 -41 -57 -47z" />
    <glyph glyph-name="uni17B8.alt" unicode="&#x200d;&#x17b8;" horiz-adv-x="1" 
d="M-481 2818q198 -138 212 -159l-19 -451q29 -12 29 -31q-16 -67 -38 -106l-32 4l-1129 36l-24 16l298 601h27l699 -418v9l3 261q-49 33 -120 94q0 85 94 144zM-1137 2505l-39 -198h-24q125 -17 616 -63h-24v-29l-529 258v32z" />
    <glyph glyph-name="uni17B9.alt" unicode="&#x200d;&#x17b9;" 
d="M-1158 2728l592 -355h-31v-21q-25 49 -25 104q0 144 153 216q45 16 81 16h8q149 0 220 -157q14 -48 14 -75q0 -130 -127 -206q-57 -28 -90 -28v37q-8 0 104 -72l-35 -115l-1194 41l199 408l104 207h27zM-474 2457v-6q0 -66 74 -89l18 -2q56 0 82 67l6 32q0 64 -73 88
l-20 3q-58 0 -84 -70zM-1141 2505q-40 -194 -40 -200q197 -25 592 -60h-22v-29l-530 258v31z" />
    <glyph glyph-name="uni17BA.alt" unicode="&#x200d;&#x17ba;" 
d="M-497 2810h24l201 -149l-18 -455v1q23 -11 28 -32q-14 -64 -38 -102l-1165 35l-12 18v11l292 589h28l433 -261h-30l2 60v26l-114 111q0 80 82 137h23q106 -98 177 -171l-5 -243l128 -77v-37l3 305q-93 69 -120 96v9q0 71 81 129zM-1146 2475l-33 -171h-24
q209 -25 618 -63h-23v-28z" />
    <glyph glyph-name="uni200D_uni17BE.liga" unicode="&#x200d;&#x17be;" 
d="M-398 2697q166 -117 180 -135l-16 -372q24 -10 24 -28q-13 -56 -34 -92l-29 5l-937 29l-18 19l246 498h27l572 -342v1l2 214q-39 26 -99 78q0 72 82 125zM-936 2433l-31 -160h-25q104 -14 509 -52h-24v-29l-429 209v32z" />
    <glyph glyph-name=".notdef" horiz-adv-x="2048" 
d="M256 0v1536h1536v-1536h-1536zM384 128h1280v1280h-1280v-1280z" />
    <glyph glyph-name=".null" 
 />
    <glyph glyph-name="nonmarkingreturn" horiz-adv-x="640" 
 />
    <glyph glyph-name="space" unicode=" " horiz-adv-x="640" 
 />
    <glyph glyph-name="exclam" unicode="!" horiz-adv-x="680" 
d="M452 1489l-28 -1079h-166l-30 1079h224zM442 0h-204v211h204v-211z" />
    <glyph glyph-name="quotedbl" unicode="&#x22;" horiz-adv-x="822" 
d="M708 1556l-43 -579h-132l-43 579h218zM332 1556l-43 -579h-132l-43 579h218z" />
    <glyph glyph-name="numbersign" unicode="#" horiz-adv-x="1490" 
d="M1348 932h-293l-92 -376h268v-135h-303l-105 -421h-129l105 421h-270l-105 -421h-129l105 421h-258v135h293l92 376h-268v135h303l105 422h129l-105 -422h270l105 422h129l-105 -422h258v-135zM929 934h-274l-94 -380h274z" />
    <glyph glyph-name="dollar" unicode="$" horiz-adv-x="1118" 
d="M1024 380q0 -147 -112.5 -252.5t-283.5 -126.5v-362h-114v357q-108 1 -217.5 25t-190.5 64v202h15q79 -59 178 -96t215 -47v432q-25 6 -61 14.5t-61 16.5q-150 41 -214.5 124t-64.5 204q0 142 111 247t290 122v272h114v-270q91 -3 188.5 -25.5t159.5 -49.5v-198h-15
q-70 48 -153.5 84t-179.5 44v-430q33 -7 61.5 -14.5t49.5 -12.5q136 -32 210.5 -111t74.5 -213zM514 746v414q-90 -8 -151 -58.5t-61 -140.5q0 -89 44.5 -137.5t167.5 -77.5zM835 354q0 94 -48 139t-159 68v-415q102 12 154.5 61.5t52.5 146.5z" />
    <glyph glyph-name="percent" unicode="%" horiz-adv-x="2000" 
d="M807 1076q0 -225 -90.5 -333.5t-261.5 -108.5q-174 0 -263.5 110t-89.5 331q0 224 91 333t262 109q174 0 263 -110t89 -331zM1473 1489l-780 -1489h-165l780 1489h165zM1897 413q0 -225 -90.5 -333.5t-261.5 -108.5q-174 0 -263.5 110t-89.5 331q0 224 91 333t262 109
q174 0 263 -110t89 -331zM629 1076q0 152 -35.5 230t-138.5 78t-139 -79t-36 -230q0 -150 34 -229t141 -79q103 0 138.5 79t35.5 230zM1719 413q0 152 -35.5 230t-138.5 78t-139 -79t-36 -230q0 -150 34 -229t141 -79q103 0 138.5 79t35.5 230z" />
    <glyph glyph-name="ampersand" unicode="&#x26;" horiz-adv-x="1380" 
d="M1445 0h-256l-204 213q-102 -130 -209.5 -187t-243.5 -57q-202 0 -333.5 121.5t-131.5 318.5q0 86 24 153t64 121q39 52 90 91.5t98 68.5q-101 68 -151 143t-50 189q0 71 28.5 131.5t74.5 106.5q48 47 124.5 77t167.5 30q166 0 271 -87.5t105 -221.5q0 -49 -12.5 -101.5
t-45.5 -101.5t-86.5 -92t-142.5 -75l352 -362q14 82 17 178.5t3 251.5h195v-96q0 -96 -24.5 -216.5t-80.5 -228.5zM898 301l-460 471q-25 -16 -50 -38t-55 -66q-24 -35 -42.5 -91.5t-18.5 -119.5q0 -142 84.5 -233.5t228.5 -91.5q96 0 173 40.5t140 128.5zM532 912
q56 19 92.5 51t56.5 70q18 35 27 74t9 84q0 97 -56.5 150t-131.5 53q-89 0 -140 -60t-51 -150q0 -40 7.5 -68.5t31.5 -66.5q21 -31 58.5 -66t96.5 -71z" />
    <glyph glyph-name="quotesingle" unicode="'" horiz-adv-x="432" 
d="M327 1556l-43 -579h-136l-43 579h222z" />
    <glyph glyph-name="parenleft" unicode="(" horiz-adv-x="784" 
d="M710 -412h-229q-174 207 -273.5 438t-99.5 546q0 308 98.5 542.5t274.5 441.5h229v-10q-81 -73 -154.5 -168.5t-136.5 -222.5q-60 -123 -97.5 -271t-37.5 -312q0 -171 36.5 -313t98.5 -270q60 -123 137 -222.5t154 -168.5v-10z" />
    <glyph glyph-name="parenright" unicode=")" horiz-adv-x="784" 
d="M676 572q0 -309 -99 -543t-274 -441h-229v10q77 69 155 169.5t136 221.5q62 129 98.5 272.5t36.5 310.5q0 165 -37 312t-98 271t-138 223t-153 168v10h229q174 -207 273.5 -440t99.5 -544z" />
    <glyph glyph-name="asterisk" unicode="*" horiz-adv-x="1118" 
d="M1007 887l-65 -110l-327 217l7 -364h-125l6 364l-325 -218l-66 110l354 207l-354 207l66 110l326 -219l-7 365h125l-8 -365l328 218l65 -110l-354 -205z" />
    <glyph glyph-name="plus" unicode="+" horiz-adv-x="1490" 
d="M1333 572h-505v-505h-166v505h-505v160h505v505h166v-505h505v-160z" />
    <glyph glyph-name="comma" unicode="," horiz-adv-x="620" 
d="M500 285l-280 -655h-146l176 655h250z" />
    <glyph glyph-name="hyphen" unicode="-" horiz-adv-x="744" 
d="M654 561h-564v181h564v-181z" />
    <glyph glyph-name="period" unicode="." horiz-adv-x="620" 
d="M429 0h-239v285h239v-285z" />
    <glyph glyph-name="slash" unicode="/" horiz-adv-x="783" 
d="M728 1556l-583 -1880h-169l580 1880h172z" />
    <glyph glyph-name="zero" unicode="0" horiz-adv-x="1118" 
d="M1035 745q0 -401 -116.5 -588.5t-359.5 -187.5q-246 0 -361 191t-115 583q0 403 116.5 589.5t359.5 186.5q246 0 361 -193t115 -581zM779 291q29 74 41 187t12 267q0 153 -12 266t-42 188q-30 76 -82.5 115.5t-136.5 39.5q-83 0 -136.5 -39.5t-84.5 -117.5
q-30 -76 -41 -192t-11 -262q0 -156 9.5 -261t41.5 -188q29 -77 82.5 -118.5t139.5 -41.5q83 0 136.5 39.5t83.5 117.5z" />
    <glyph glyph-name="one" unicode="1" horiz-adv-x="1118" 
d="M952 0h-726v152h270v998h-270v136q153 0 225.5 43.5t81.5 164.5h155v-1342h264v-152z" />
    <glyph glyph-name="two" unicode="2" horiz-adv-x="1118" 
d="M1028 0h-919v209q99 94 187 180t172 179q170 187 232 299.5t62 232.5q0 62 -19.5 109t-53.5 78q-35 30 -81 45t-101 15q-53 0 -107.5 -13.5t-104.5 -33.5q-42 -17 -81 -41t-63 -41h-11v212q62 31 172.5 60.5t209.5 29.5q208 0 326 -110.5t118 -299.5q0 -87 -20.5 -161
t-56.5 -137q-37 -65 -89 -129t-110 -126q-94 -102 -209.5 -212t-184.5 -174h732v-171z" />
    <glyph glyph-name="three" unicode="3" horiz-adv-x="1118" 
d="M511 1347q-54 0 -108 -13t-106 -34q-48 -20 -83.5 -42t-63.5 -41h-12v211q65 35 176.5 63.5t212.5 28.5t176.5 -20.5t136.5 -63.5q66 -48 99.5 -116t33.5 -159q0 -123 -81 -216t-194 -118v-14q47 -9 100.5 -31t99.5 -65t75 -110.5t29 -164.5q0 -101 -34.5 -185.5
t-97.5 -149.5q-65 -68 -157 -103t-209 -35q-112 0 -222 27t-185 65v211h14q63 -46 169 -88t212 -42q61 0 122.5 19.5t102.5 63.5q40 44 61 97t21 134t-23.5 133t-65.5 82t-99.5 41.5t-124.5 11.5h-85v166h66q135 0 219.5 64t84.5 186q0 56 -22 96.5t-56 64.5q-38 26 -84 36
t-98 10z" />
    <glyph glyph-name="four" unicode="4" horiz-adv-x="1118" 
d="M1067 512h-177v-512h-192v512h-658v210l666 767h184v-817h177v-160zM698 672v582l-502 -582h502z" />
    <glyph glyph-name="five" unicode="5" horiz-adv-x="1118" 
d="M1011 474q0 -108 -34.5 -200t-96.5 -159q-63 -68 -156.5 -107t-209.5 -39q-107 0 -210.5 23.5t-179.5 61.5v211h14q23 -17 66 -38.5t95 -40.5q59 -21 108 -32.5t110 -11.5q60 0 117 21.5t98 69.5q37 44 56.5 103t19.5 139q0 79 -21.5 130t-62.5 84q-43 38 -105.5 53.5
t-139.5 15.5q-81 0 -163 -12.5t-131 -23.5v767h817v-175h-624v-396q36 4 71 6t64 2q114 0 193 -19t152 -74q74 -56 113.5 -140t39.5 -219z" />
    <glyph glyph-name="six" unicode="6" horiz-adv-x="1118" 
d="M1051 483q0 -115 -38 -212t-102 -162q-67 -69 -150 -104.5t-183 -35.5q-101 0 -183.5 34t-145.5 101q-77 81 -120.5 216.5t-43.5 333.5q0 194 40 350.5t123 272.5q81 113 209 176.5t296 63.5q50 0 93 -5t76 -16v-191h-9q-27 15 -78 27.5t-109 12.5q-186 0 -300.5 -125.5
t-135.5 -372.5q71 50 146 77t164 27q87 0 152.5 -17.5t136.5 -70.5q82 -62 122 -157t40 -223zM848 475q0 92 -24 154t-78 106q-39 32 -88.5 42t-101.5 10q-70 0 -136 -21t-130 -61q-2 -22 -3 -42.5t-1 -51.5q0 -155 30.5 -250t75.5 -144q43 -47 88.5 -66t98.5 -19
q120 0 194.5 86t74.5 257z" />
    <glyph glyph-name="seven" unicode="7" horiz-adv-x="1118" 
d="M1044 1266l-644 -1266h-213l682 1314h-770v175h945v-223z" />
    <glyph glyph-name="eight" unicode="8" horiz-adv-x="1118" 
d="M811 1142q0 100 -67 167t-186 67q-109 0 -178.5 -60t-69.5 -162q0 -74 35.5 -125t106.5 -92q31 -17 94.5 -47t115.5 -47q87 67 118 137.5t31 161.5zM839 396q0 92 -36 146t-139 110q-34 19 -90.5 41t-127.5 52q-83 -55 -127 -135.5t-44 -183.5q0 -135 81.5 -223
t204.5 -88q126 0 202 75.5t76 205.5zM559 -34q-111 0 -202 33t-155 95q-63 60 -95.5 142.5t-32.5 174.5q0 121 64.5 222.5t187.5 161.5v6q-110 64 -163 140t-53 190q0 168 127 280t322 112q203 0 325.5 -106.5t122.5 -272.5q0 -100 -58.5 -198t-168.5 -153v-6
q130 -61 197 -148t67 -224q0 -191 -138.5 -320t-346.5 -129z" />
    <glyph glyph-name="nine" unicode="9" horiz-adv-x="1118" 
d="M832 877q0 152 -28 247.5t-77 147.5q-44 48 -89 66t-99 18q-123 0 -196 -88t-73 -255q0 -94 24 -155t78 -105q38 -31 86 -41.5t103 -10.5q64 0 138 22.5t129 59.5q1 15 2.5 39.5t1.5 54.5zM67 1005q0 115 37.5 210t102.5 164q62 66 151.5 103t181.5 37q103 0 186.5 -34.5
t144.5 -99.5q77 -82 119.5 -215t42.5 -336q0 -185 -41.5 -350.5t-122.5 -274.5q-86 -116 -206.5 -177t-297.5 -61q-40 0 -85 4.5t-84 16.5v191h10q25 -14 78 -27t108 -13q196 0 308 129t127 369q-80 -54 -152.5 -79t-157.5 -25q-83 0 -151 18t-137 70q-80 61 -121 154.5
t-41 225.5z" />
    <glyph glyph-name="colon" unicode=":" horiz-adv-x="724" 
d="M482 832h-239v285h239v-285zM482 0h-239v285h239v-285z" />
    <glyph glyph-name="semicolon" unicode=";" horiz-adv-x="724" 
d="M482 832h-239v285h239v-285zM548 285l-280 -655h-146l176 655h250z" />
    <glyph glyph-name="less" unicode="&#x3c;" horiz-adv-x="1490" 
d="M1275 79l-1074 513v120l1074 513v-178l-833 -395l833 -395v-178z" />
    <glyph glyph-name="equal" unicode="=" horiz-adv-x="1490" 
d="M1298 782h-1106v160h1106v-160zM1298 362h-1106v160h1106v-160z" />
    <glyph glyph-name="greater" unicode="&#x3e;" horiz-adv-x="1490" 
d="M1289 592l-1074 -513v178l833 395l-833 395v178l1074 -513v-120z" />
    <glyph glyph-name="question" unicode="?" horiz-adv-x="970" 
d="M912 1139q0 -98 -32.5 -174.5t-86.5 -134.5t-122.5 -107t-144.5 -95v-228h-179v305q56 34 130.5 81.5t116.5 88.5q54 51 84 111.5t30 137.5q0 113 -71 168.5t-185 55.5q-100 0 -188.5 -33.5t-143.5 -69.5h-11v204q67 27 169 48.5t193 21.5q205 0 323 -104.5t118 -275.5z
M542 0h-204v211h204v-211z" />
    <glyph glyph-name="at" unicode="@" horiz-adv-x="1862" 
d="M1739 663q0 -139 -38 -268.5t-109 -237.5h-421l-25 116q-67 -57 -123.5 -90.5t-153.5 -33.5q-154 0 -252 123.5t-98 358.5t120.5 366t275.5 131q72 0 124 -18t105 -48v48h159v-842h227q38 71 54.5 184t16.5 205q0 327 -166.5 526.5t-478.5 199.5q-296 0 -488.5 -215.5
t-192.5 -522.5q0 -330 187 -534.5t489 -204.5q81 0 170.5 11t169.5 35v-142q-84 -20 -170.5 -28t-170.5 -8q-354 0 -586 243t-232 630q0 367 239.5 619t583.5 252q368 0 576 -237.5t208 -617.5zM1142 408v518q-56 29 -103 41.5t-98 12.5q-113 0 -182 -84.5t-69 -261.5
q0 -160 52 -245t166 -85q61 0 120.5 29t113.5 75z" />
    <glyph glyph-name="A" unicode="A" horiz-adv-x="1228" 
d="M-10 0l502 1489h244l502 -1489h-209l-135 416h-569l-135 -416h-200zM839 585l-230 702l-229 -702h459z" />
    <glyph glyph-name="B" unicode="B" horiz-adv-x="1207" 
d="M1161 457q0 -111 -42 -196t-113 -140q-84 -66 -180 -93.5t-248 -27.5h-427v1489h395q159 0 238.5 -10.5t152.5 -49.5q80 -43 117 -112.5t37 -163.5q0 -105 -55.5 -188t-153.5 -130v-8q133 -36 206 -131.5t73 -238.5zM885 1125q0 54 -18 93.5t-58 62.5q-48 27 -107 33
t-163 6h-190v-436h225q93 0 137 9.5t91 39.5q45 29 64 76t19 116zM955 449q0 84 -24 138.5t-97 92.5q-47 25 -102.5 32t-157.5 7h-225v-550h161q130 0 205 12t132 51q56 39 82 88.5t26 128.5z" />
    <glyph glyph-name="C" unicode="C" horiz-adv-x="1230" 
d="M733 -27q-146 0 -268.5 49t-211.5 146t-138 242t-49 333q0 187 47.5 326t138.5 242q89 100 211 152.5t273 52.5q75 0 140.5 -11t121.5 -28q48 -15 98.5 -37.5t99.5 -49.5v-239h-16q-26 24 -67 58t-100 67q-57 31 -124 51t-155 20q-95 0 -180 -39t-149 -115
q-63 -76 -98 -191t-35 -259q0 -153 37 -263.5t101 -186.5q62 -74 146 -111.5t178 -37.5q86 0 159 21t130 53q55 31 95 63.5t63 55.5h15v-236q-49 -23 -92.5 -44t-105.5 -41q-65 -21 -120.5 -32t-144.5 -11z" />
    <glyph glyph-name="D" unicode="D" horiz-adv-x="1389" 
d="M1325 743q0 -204 -82.5 -368t-221.5 -256q-113 -71 -229.5 -95t-297.5 -24h-343v1489h339q210 0 329.5 -31.5t203.5 -86.5q144 -95 223 -252.5t79 -375.5zM1119 746q0 172 -57 293.5t-169 189.5q-79 48 -169 69t-224 21h-151v-1149h151q132 0 231 21t181 78
q103 70 155 186.5t52 290.5z" />
    <glyph glyph-name="E" unicode="E" horiz-adv-x="1149" 
d="M151 0v1489h931v-176h-733v-408h683v-176h-683v-553h733v-176h-931z" />
    <glyph glyph-name="F" unicode="F" horiz-adv-x="1068" 
d="M1042 1313h-693v-420h664v-176h-664v-717h-198v1489h891v-176z" />
    <glyph glyph-name="G" unicode="G" horiz-adv-x="1367" 
d="M774 -29q-158 0 -289 48t-225 146q-94 99 -144 245t-50 336q0 180 50.5 322.5t144.5 243.5q91 98 224 151t291 53q75 0 144 -11t132 -30q50 -15 111.5 -41.5t99.5 -45.5v-239h-17q-37 33 -76.5 62.5t-111.5 63.5q-60 30 -138 50t-168 20q-215 0 -347.5 -162t-132.5 -431
q0 -150 35 -262t101 -190q64 -77 154.5 -117.5t203.5 -40.5q84 0 167 12t140 36v385h-344v174h540v-650q-38 -17 -101.5 -43t-118.5 -41q-73 -22 -132 -33t-143 -11z" />
    <glyph glyph-name="H" unicode="H" horiz-adv-x="1383" 
d="M1232 0h-198v729h-685v-729h-198v1489h198v-584h685v584h198v-1489z" />
    <glyph glyph-name="I" unicode="I" horiz-adv-x="764" 
d="M671 0h-578v152h190v1185h-190v152h578v-152h-190v-1185h190v-152z" />
    <glyph glyph-name="J" unicode="J" horiz-adv-x="853" 
d="M712 387q0 -196 -119.5 -302t-320.5 -106q-48 0 -128.5 8.5t-134.5 20.5v189h11q41 -14 101.5 -31t123.5 -17q92 0 146.5 21t80.5 60q27 40 34.5 98t7.5 134v869h-315v158h513v-1102z" />
    <glyph glyph-name="K" unicode="K" horiz-adv-x="1204" 
d="M1236 0h-257l-543 693l-87 -98v-595h-198v1489h198v-685l610 685h241l-616 -665z" />
    <glyph glyph-name="L" unicode="L" horiz-adv-x="1019" 
d="M1014 0h-863v1489h198v-1313h665v-176z" />
    <glyph glyph-name="M" unicode="M" horiz-adv-x="1578" 
d="M1427 0h-198v1283l-388 -873h-120l-385 873v-1283h-185v1489h270l372 -829l359 829h275v-1489z" />
    <glyph glyph-name="N" unicode="N" horiz-adv-x="1367" 
d="M1216 0h-222l-658 1284v-1284h-185v1489h281l599 -1179v1179h185v-1489z" />
    <glyph glyph-name="O" unicode="O" horiz-adv-x="1449" 
d="M1204 1318q85 -98 132 -243t47 -331q0 -181 -46 -327t-133 -245q-91 -104 -212.5 -153.5t-267.5 -49.5q-151 0 -272 51t-208 152q-86 99 -132 244t-46 328q0 188 46.5 330t132.5 244q86 99 207.5 150.5t271.5 51.5q152 0 274 -53t206 -149zM1177 744q0 148 -32 262
t-90 189q-59 77 -142.5 115.5t-187.5 38.5q-108 0 -188.5 -37.5t-142.5 -116.5q-59 -76 -90.5 -191t-31.5 -260q0 -293 123 -448.5t330 -155.5t329.5 155.5t122.5 448.5z" />
    <glyph glyph-name="P" unicode="P" horiz-adv-x="1129" 
d="M1091 1040q0 -97 -34.5 -183.5t-95.5 -147.5q-77 -76 -181 -115t-263 -39h-168v-555h-198v1489h374q132 0 225 -22t164 -71q83 -57 130 -144.5t47 -211.5zM885 1035q0 77 -26.5 134t-80.5 93q-47 31 -109.5 44t-155.5 13h-164v-595h135q120 0 194 19.5t123 69.5
q44 45 64 98t20 124z" />
    <glyph glyph-name="Q" unicode="Q" horiz-adv-x="1449" 
d="M1388 -364q-54 -14 -113.5 -21t-118.5 -7q-167 0 -271.5 94t-114.5 268h-46q-151 0 -272.5 51.5t-207.5 150.5t-132 244t-46 328q0 188 46.5 330t132.5 244q86 99 207.5 150.5t271.5 51.5q152 0 274 -53t206 -149q85 -98 132 -243t47 -331q0 -289 -113 -477t-309 -255
q5 -56 19.5 -100.5t37.5 -70.5q27 -31 65.5 -45.5t105.5 -14.5q40 0 94 12.5t78 22.5h27v-180zM1177 744q0 148 -32 262t-90 189q-59 77 -142.5 115.5t-187.5 38.5q-108 0 -188.5 -37.5t-142.5 -116.5q-59 -76 -90.5 -191t-31.5 -260q0 -293 123 -449t330 -156t329.5 156
t122.5 449z" />
    <glyph glyph-name="R" unicode="R" horiz-adv-x="1271" 
d="M1304 0h-257l-472 592h-226v-592h-198v1489h384q128 0 214.5 -14t164.5 -65q78 -50 123.5 -129t45.5 -196q0 -164 -83 -274t-226 -163zM876 1070q0 65 -23 115.5t-71 82.5q-42 28 -98 39.5t-139 11.5h-196v-562h174q85 0 153 15t116 62q43 42 63.5 100t20.5 136z" />
    <glyph glyph-name="S" unicode="S" horiz-adv-x="1141" 
d="M566 -27q-162 0 -275.5 33.5t-213.5 82.5v248h14q98 -92 222 -142.5t239 -50.5q164 0 248 68.5t84 180.5q0 89 -44 145t-140 83q-69 20 -126 33t-143 35q-77 20 -138 51t-108 81q-46 49 -71.5 115.5t-25.5 153.5q0 181 141 303.5t360 122.5q125 0 236.5 -25t206.5 -71
v-237h-15q-71 65 -182 113.5t-233 48.5q-138 0 -223 -64.5t-85 -169.5q0 -95 50 -151t145 -82q63 -17 154 -38.5t151 -39.5q154 -47 225 -142t71 -234q0 -87 -35.5 -172t-99.5 -144q-72 -65 -162.5 -100t-226.5 -35z" />
    <glyph glyph-name="T" unicode="T" horiz-adv-x="1196" 
d="M499 0v1313h-500v176h1198v-176h-500v-1313h-198z" />
    <glyph glyph-name="U" unicode="U" horiz-adv-x="1343" 
d="M671 -31q-131 0 -229 34.5t-167 102.5q-78 78 -110 186.5t-32 267.5v929h198v-929q0 -103 13 -173.5t51 -126.5q40 -60 108.5 -91t167.5 -31q93 0 165 31t112 91q37 57 50.5 126t13.5 169v934h198v-929q0 -155 -31.5 -266t-110.5 -188q-71 -69 -165.5 -103t-231.5 -34z
" />
    <glyph glyph-name="V" unicode="V" horiz-adv-x="1222" 
d="M1230 1489l-512 -1489h-214l-512 1489h212l412 -1236l412 1236h202z" />
    <glyph glyph-name="W" unicode="W" horiz-adv-x="1847" 
d="M1821 1489l-374 -1489h-223l-303 1236l-296 -1236h-218l-381 1489h203l300 -1238l298 1238h201l301 -1250l298 1250h194z" />
    <glyph glyph-name="X" unicode="X" horiz-adv-x="1189" 
d="M1181 0h-227l-363 596l-369 -596h-214l473 745l-459 744h226l356 -585l361 585h215l-466 -734z" />
    <glyph glyph-name="Y" unicode="Y" horiz-adv-x="1180" 
d="M1193 1489l-503 -830v-659h-198v638l-503 851h220l384 -657l390 657h210z" />
    <glyph glyph-name="Z" unicode="Z" horiz-adv-x="1145" 
d="M1100 0h-1040v184l797 1129h-761v176h984v-179l-806 -1134h826v-176z" />
    <glyph glyph-name="bracketleft" unicode="[" horiz-adv-x="784" 
d="M686 -392h-520v1948h520v-143h-345v-1662h345v-143z" />
    <glyph glyph-name="backslash" unicode="\" horiz-adv-x="783" 
d="M804 -324h-169l-583 1880h172z" />
    <glyph glyph-name="bracketright" unicode="]" horiz-adv-x="784" 
d="M618 -392h-520v143h345v1662h-345v143h520v-1948z" />
    <glyph glyph-name="asciicircum" unicode="^" horiz-adv-x="1490" 
d="M1357 684h-198l-415 625l-414 -627h-197l549 807h126z" />
    <glyph glyph-name="underscore" unicode="_" horiz-adv-x="1118" 
d="M1134 -300h-1150v130h1150v-130z" />
    <glyph glyph-name="grave" unicode="`" horiz-adv-x="1118" 
d="M670 1302h-149l-273 374h243z" />
    <glyph glyph-name="a" unicode="a" horiz-adv-x="1075" 
d="M760 275v310q-67 -6 -169.5 -16.5t-165.5 -29.5q-75 -23 -124 -70.5t-49 -132.5q0 -96 54 -145t158 -49q89 0 161 38.5t135 94.5zM760 119q-23 -17 -61.5 -47.5t-74.5 -48.5q-50 -26 -96.5 -40t-130.5 -14q-69 0 -131 26t-109 73q-45 46 -72 113.5t-27 142.5
q0 116 49 197.5t155 129.5q94 43 222 59.5t276 24.5v36q0 66 -20 106.5t-56 62.5q-36 23 -88 30.5t-107 7.5q-65 0 -153 -19.5t-176 -56.5h-11v191q52 15 149 33t192 18q115 0 194 -18t142 -65q61 -46 91 -119t30 -178v-764h-187v119z" />
    <glyph glyph-name="b" unicode="b" horiz-adv-x="1132" 
d="M879 562q0 200 -61 303.5t-196 103.5q-77 0 -155.5 -36t-142.5 -91v-640q71 -35 126 -49.5t121 -14.5q144 0 226 102t82 322zM1073 577q0 -274 -133 -441t-333 -167q-91 0 -155.5 22.5t-127.5 60.5l-12 -52h-176v1556h188v-556q71 64 154 106t188 42q189 0 298 -151.5
t109 -419.5z" />
    <glyph glyph-name="c" unicode="c" horiz-adv-x="945" 
d="M580 -25q-115 0 -211 35.5t-165 107.5t-107 181.5t-38 257.5q0 147 39.5 254t105.5 180t164.5 112.5t211.5 39.5q92 0 177.5 -26t152.5 -60v-211h-11q-20 17 -51.5 39t-76.5 45q-39 20 -92 35t-102 15q-146 0 -234.5 -110.5t-88.5 -312.5q0 -198 85.5 -308.5
t237.5 -110.5q92 0 175 38t147 98h11v-211q-28 -13 -70 -31.5t-76 -27.5q-48 -14 -86 -21.5t-98 -7.5z" />
    <glyph glyph-name="d" unicode="d" horiz-adv-x="1132" 
d="M996 0h-188v114q-44 -37 -76 -61t-75 -44q-40 -19 -83 -29.5t-100 -10.5q-91 0 -168.5 38t-131.5 111q-55 74 -85 182.5t-30 249.5q0 147 38 254.5t105 187.5q61 73 147.5 114.5t181.5 41.5q84 0 146 -18.5t131 -57.5v484h188v-1556zM808 272v644q-70 34 -125.5 47
t-120.5 13q-145 0 -227 -108.5t-82 -313.5q0 -197 63 -301.5t202 -104.5q74 0 149 33.5t141 90.5z" />
    <glyph glyph-name="e" unicode="e" horiz-adv-x="1078" 
d="M621 -26q-267 0 -414.5 150.5t-147.5 427.5q0 273 143 434.5t374 161.5q104 0 184 -30t140 -94t92 -156.5t32 -226.5v-102h-774q0 -195 98 -298t271 -103q62 0 121.5 14t107.5 36q51 23 86 44.5t58 40.5h11v-205q-33 -13 -82 -32.5t-88 -30.5q-55 -15 -99.5 -23
t-112.5 -8zM841 683q-2 76 -18 131t-46 93q-33 42 -84.5 64t-127.5 22q-75 0 -127.5 -22.5t-95.5 -65.5q-42 -44 -64 -97.5t-28 -124.5h591z" />
    <glyph glyph-name="f" unicode="f" horiz-adv-x="652" 
d="M724 1376h-10q-25 9 -72 17.5t-84 8.5q-119 0 -169.5 -53.5t-50.5 -193.5v-38h311v-156h-305v-961h-188v961h-127v156h127v37q0 202 97 307t278 105q52 0 102 -5.5t91 -12.5v-172z" />
    <glyph glyph-name="g" unicode="g" horiz-adv-x="1132" 
d="M808 303v613q-70 34 -129.5 48.5t-118.5 14.5q-143 0 -225 -105t-82 -301q0 -186 62.5 -283t202.5 -97q73 0 150.5 29t139.5 81zM176 -179q19 -8 56 -21.5t84 -25.5q52 -13 96 -21t96 -8q87 0 147.5 23t94.5 64q32 41 45 95t13 123v98q-76 -66 -149 -97.5t-183 -31.5
q-191 0 -304 142t-113 408q0 139 39 246.5t105 182.5q63 72 149 111t178 39q87 0 150.5 -20.5t127.5 -58.5l11 48h177v-990q0 -284 -124 -417t-379 -133q-82 0 -167.5 13t-159.5 35v196h10z" />
    <glyph glyph-name="h" unicode="h" horiz-adv-x="1142" 
d="M1014 0h-188v636q0 77 -7.5 143.5t-28.5 106.5q-23 42 -64 62.5t-112 20.5q-70 0 -144.5 -37.5t-145.5 -97.5v-834h-188v1556h188v-563q84 75 166 115t173 40q165 0 258 -108.5t93 -314.5v-725z" />
    <glyph glyph-name="i" unicode="i" horiz-adv-x="468" 
d="M328 0h-188v1117h188v-1117zM341 1304h-214v195h214v-195z" />
    <glyph glyph-name="j" unicode="j" horiz-adv-x="577" 
d="M441 -32q0 -191 -102.5 -291t-282.5 -100q-31 0 -69.5 3t-76.5 9v168h11q22 -5 48.5 -9.5t50.5 -4.5q75 0 123.5 18.5t72.5 58.5q22 36 29.5 91t7.5 134v916h-202v156h390v-1149zM442 1304h-214v195h214v-195z" />
    <glyph glyph-name="k" unicode="k" horiz-adv-x="1020" 
d="M1062 0h-247l-417 539l-74 -72v-467h-188v1556h188v-911l442 472h234l-459 -467z" />
    <glyph glyph-name="l" unicode="l" horiz-adv-x="468" 
d="M328 0h-188v1556h188v-1556z" />
    <glyph glyph-name="m" unicode="m" horiz-adv-x="1720" 
d="M1404 0v646q0 77 -6 142.5t-25 102.5q-20 40 -57 59t-100 19q-58 0 -124.5 -35.5t-137.5 -102.5q1 -17 2.5 -40.5t1.5 -55.5v-735h-188v646q0 77 -6 142.5t-25 102.5q-20 40 -57 59t-100 19q-61 0 -128 -38t-130 -97v-834h-188v1117h188v-124q74 74 146.5 114.5
t159.5 40.5q99 0 175.5 -45t116.5 -148q85 95 166 144t176 49q72 0 131 -22.5t103 -72.5q45 -51 69.5 -127t24.5 -191v-735h-188z" />
    <glyph glyph-name="n" unicode="n" horiz-adv-x="1142" 
d="M1014 0h-188v636q0 77 -7.5 143.5t-28.5 106.5q-23 42 -64 62.5t-112 20.5q-70 0 -144.5 -37.5t-145.5 -97.5v-834h-188v1117h188v-124q84 75 166 115t173 40q165 0 258 -108.5t93 -314.5v-725z" />
    <glyph glyph-name="o" unicode="o" horiz-adv-x="1112" 
d="M1055 558q0 -282 -136 -435.5t-362 -153.5q-233 0 -366.5 158.5t-133.5 430.5q0 280 137.5 435t362.5 155q226 0 362 -154.5t136 -435.5zM861 558q0 217 -79 322.5t-225 105.5q-147 0 -226.5 -105.5t-79.5 -322.5q0 -210 79.5 -318.5t226.5 -108.5q145 0 224.5 106.5
t79.5 320.5z" />
    <glyph glyph-name="p" unicode="p" horiz-adv-x="1132" 
d="M1073 588q0 -279 -133.5 -444.5t-337.5 -165.5q-83 0 -147 19t-131 59v-468h-188v1529h188v-117q70 63 155.5 105.5t186.5 42.5q192 0 299.5 -152t107.5 -408zM879 567q0 191 -61 296.5t-198 105.5q-80 0 -154.5 -35.5t-141.5 -91.5v-633q74 -36 126.5 -49t120.5 -13
q146 0 227 107t81 313z" />
    <glyph glyph-name="q" unicode="q" horiz-adv-x="1132" 
d="M996 -412h-188v534q-82 -75 -160 -109.5t-173 -34.5q-190 0 -303 152.5t-113 424.5q0 144 39.5 254.5t104.5 185.5q62 73 148 113t179 40q86 0 149 -20t129 -59l12 48h176v-1529zM808 280v636q-71 35 -127 49t-120 14q-148 0 -228 -107t-80 -308q0 -196 64 -301.5
t199 -105.5q79 0 154 34t138 89z" />
    <glyph glyph-name="r" unicode="r" horiz-adv-x="738" 
d="M728 915h-10q-21 6 -44.5 7.5t-56.5 1.5q-76 0 -151 -33t-142 -98v-793h-188v1117h188v-166q103 91 179.5 128.5t148.5 37.5q29 0 43.5 -1.5t32.5 -4.5v-196z" />
    <glyph glyph-name="s" unicode="s" horiz-adv-x="914" 
d="M438 -27q-112 0 -209.5 30t-161.5 64v211h10q24 -19 56.5 -42t86.5 -48q48 -22 105.5 -39t119.5 -17q45 0 96 10.5t76 26.5q35 23 50.5 49t15.5 78q0 67 -36.5 101t-129.5 57q-36 9 -94 21t-107 26q-128 37 -186 114.5t-58 187.5q0 151 114 246t303 95q93 0 187 -23
t158 -58v-201h-10q-72 57 -160.5 90t-178.5 33q-93 0 -157 -39t-64 -118q0 -70 38 -104.5t122 -56.5q42 -11 93.5 -21.5t108.5 -24.5q124 -31 186.5 -103t62.5 -196q0 -72 -28.5 -136.5t-83.5 -110.5q-60 -50 -135.5 -76t-189.5 -26z" />
    <glyph glyph-name="t" unicode="t" horiz-adv-x="685" 
d="M474 -22q-154 0 -240 87.5t-86 276.5v619h-127v156h127v321h188v-321h346v-156h-346v-531q0 -85 3 -131t23 -86q17 -35 55 -52.5t103 -17.5q46 0 89 13.5t62 22.5h11v-169q-53 -15 -107.5 -23.5t-100.5 -8.5z" />
    <glyph glyph-name="u" unicode="u" horiz-adv-x="1142" 
d="M1006 0h-188v124q-87 -76 -165 -115.5t-174 -39.5q-73 0 -137.5 24t-112.5 76t-74.5 131t-26.5 192v725h188v-636q0 -89 6.5 -147.5t29.5 -102.5q23 -43 62.5 -63t113.5 -20q69 0 147 39t143 96v834h188v-1117z" />
    <glyph glyph-name="v" unicode="v" horiz-adv-x="1020" 
d="M1014 1117l-421 -1117h-169l-418 1117h203l306 -862l303 862h196z" />
    <glyph glyph-name="w" unicode="w" horiz-adv-x="1520" 
d="M1490 1117l-283 -1117h-174l-273 861l-271 -861h-173l-286 1117h196l197 -865l265 865h155l272 -865l186 865h189z" />
    <glyph glyph-name="x" unicode="x" horiz-adv-x="1014" 
d="M1004 0h-231l-271 422l-279 -422h-213l388 554l-384 563h231l269 -418l276 418h214l-386 -550z" />
    <glyph glyph-name="y" unicode="y" horiz-adv-x="1020" 
d="M1014 1117l-601 -1529h-201l200 466l-406 1063h203l305 -827l304 827h196z" />
    <glyph glyph-name="z" unicode="z" horiz-adv-x="910" 
d="M870 0h-821v139l584 823h-560v155h786v-134l-587 -826h598v-157z" />
    <glyph glyph-name="braceleft" unicode="{" horiz-adv-x="984" 
d="M886 -392h-116q-179 0 -280.5 98.5t-101.5 288.5v149q0 69 -13 139t-50 120t-96.5 75.5t-147.5 25.5h-21v156h21q88 0 147.5 25.5t96.5 75.5t50 120t13 139v149q0 190 101.5 288.5t280.5 98.5h116v-138h-80q-59 0 -102 -12t-74 -41q-32 -30 -47.5 -83t-15.5 -130v-175
q0 -82 -19 -138t-56 -105q-33 -44 -86 -80.5t-110 -59.5v-24q57 -23 109.5 -59.5t86.5 -80.5q37 -49 56 -105t19 -138v-175q0 -77 15.5 -130t47.5 -83q30 -29 73.5 -41t102.5 -12h80v-138z" />
    <glyph glyph-name="bar" unicode="|" horiz-adv-x="783" 
d="M475 -392h-167v1948h167v-1948z" />
    <glyph glyph-name="braceright" unicode="}" horiz-adv-x="984" 
d="M924 504h-21q-88 0 -147.5 -25.5t-96.5 -75.5t-50 -120t-13 -139v-149q0 -190 -101.5 -288.5t-280.5 -98.5h-116v138h80q59 0 102 12t74 41q32 30 47.5 83t15.5 130v175q0 82 19 138t56 105q33 44 86 80.5t110 59.5v24q-57 23 -110 59.5t-86 80.5q-37 49 -56 105t-19 138
v175q0 77 -15.5 130t-47.5 83q-31 29 -74 41t-102 12h-80v138h116q179 0 280.5 -98.5t101.5 -288.5v-149q0 -69 13 -139t50 -120t96.5 -75.5t147.5 -25.5h21v-156z" />
    <glyph glyph-name="asciitilde" unicode="~" horiz-adv-x="1490" 
d="M1356 927q-2 -102 -21 -196.5t-60 -169.5q-41 -73 -102 -119t-159 -46q-57 0 -102.5 15.5t-80.5 40.5t-67 60t-57 65q-27 33 -53 67t-51 60q-27 28 -56 45t-66 17q-50 0 -83 -26.5t-55 -78.5q-21 -50 -29.5 -120t-11.5 -146h-168q2 104 21.5 199t58.5 167
q40 76 106 120.5t156 44.5q60 0 105.5 -16t80.5 -41t64.5 -57t57.5 -67q22 -27 52.5 -66t51.5 -61q29 -30 58.5 -46t62.5 -16q50 0 84.5 28t53.5 76q20 50 29.5 117.5t11.5 149.5h168z" />
    <glyph glyph-name="quotesinglbase" unicode="&#x201a;" horiz-adv-x="432" 
d="M386 283l-261 -559h-138l157 559h242z" />
    <glyph glyph-name="florin" unicode="&#x192;" horiz-adv-x="1118" 
d="M1087 1320h-10q-27 10 -78.5 23.5t-89.5 13.5q-112 0 -162 -60.5t-72 -213.5l-29 -199h292v-138h-310l-70 -511q-32 -231 -137 -334t-286 -103q-39 0 -86.5 4.5t-97.5 13.5v181h10q28 -10 77.5 -23.5t90.5 -13.5q112 0 163 61t71 213l72 512h-178v138h196l27 198
q17 123 54 206.5t92 136.5q52 49 125.5 71.5t151.5 22.5q50 0 91 -4.5t93 -13.5v-181z" />
    <glyph glyph-name="quotedblbase" unicode="&#x201e;" horiz-adv-x="814" 
d="M781 283l-261 -559h-134l157 559h238zM387 283l-261 -559h-134l157 559h238z" />
    <glyph glyph-name="ellipsis" unicode="&#x2026;" horiz-adv-x="1674" 
d="M1497 0h-204v223h204v-223zM939 0h-204v223h204v-223zM381 0h-204v223h204v-223z" />
    <glyph glyph-name="dagger" unicode="&#x2020;" horiz-adv-x="800" 
d="M350 959q31 4 54 8t46 10l11 -12q-5 -48 -9.5 -127t-7.5 -179q18 0 48 0.5t66 2t73.5 3t69.5 3.5l-3 -79q-32 1 -69.5 2t-73.5 1h-113q-3 -100 -5.5 -206t-4.5 -205t-3.5 -183.5t-2.5 -140.5l-52 -7l-6 6q0 58 -1 143t-2 184t-2.5 204.5t-2.5 204.5h-49q-22 0 -48.5 -0.5
t-54.5 -1t-56 -1.5t-52 -2l-3 77q35 -3 79 -4t82 -1h100q-1 97 -3.5 174.5t-4.5 125.5z" />
    <glyph glyph-name="daggerdbl" unicode="&#x2021;" horiz-adv-x="800" 
d="M350 959q31 4 55 9t47 11l11 -12q-5 -45 -9 -118t-7 -164q18 0 48.5 0.5t66 2t72.5 3t69 3.5l-3 -76q-32 1 -69 2t-73 1h-113q-2 -58 -3.5 -118t-3.5 -121q18 0 48.5 0.5t65.5 2t72 3t68 3.5l-3 -76q-31 1 -67.5 2t-71.5 1h-114q-2 -69 -3.5 -135.5t-3 -126t-2.5 -110
t-1 -87.5l-52 -9l-6 6v89q0 76 -1 170.5t-3 200.5h-50q-22 0 -47.5 -0.5t-52 -1t-53 -1.5t-48.5 -2l-3 74q45 -3 101 -4t101 -1h51q-1 61 -1.5 121.5t-2.5 117.5h-49q-22 0 -48.5 -0.5t-54.5 -1t-55.5 -1.5t-51.5 -2l-3 74q35 -3 79 -4t82 -1h100q-2 88 -4 159.5t-4 116.5z
" />
    <glyph glyph-name="perthousand" unicode="&#x2030;" horiz-adv-x="2848" 
d="M807 1076q0 -225 -90.5 -333.5t-261.5 -108.5q-174 0 -263.5 110t-89.5 331q0 224 91 333t262 109q174 0 263 -110t89 -331zM1473 1489l-780 -1489h-165l780 1489h165zM1897 413q0 -225 -90.5 -333.5t-261.5 -108.5q-174 0 -263.5 110t-89.5 331q0 224 91 333t262 109
q174 0 263 -110t89 -331zM629 1076q0 152 -35.5 230t-138.5 78t-139 -79t-36 -230q0 -150 34 -229t141 -79q103 0 138.5 79t35.5 230zM1719 413q0 152 -35.5 230t-138.5 78t-139 -79t-36 -230q0 -150 34 -229t141 -79q103 0 138.5 79t35.5 230zM2741 413
q0 -225 -90.5 -333.5t-261.5 -108.5q-174 0 -263.5 110t-89.5 331q0 224 91 333t262 109q174 0 263 -110t89 -331zM2563 413q0 152 -35.5 230t-138.5 78t-139 -79t-36 -230q0 -150 34 -229t141 -79q103 0 138.5 79t35.5 230z" />
    <glyph glyph-name="guilsinglleft" unicode="&#x2039;" horiz-adv-x="784" 
d="M633 172l-510 436v89l510 435v-199l-331 -281l331 -281v-199z" />
    <glyph glyph-name="OE" unicode="&#x152;" horiz-adv-x="2000" 
d="M1932 0h-1031q-184 0 -308 26t-225 92q-144 95 -223 253.5t-79 374.5q0 209 84.5 370.5t220.5 252.5q89 60 209.5 90t318.5 30h1033v-176h-723v-408h673v-176h-673v-553h723v-176zM1012 171v1147h-119q-148 0 -241.5 -22.5t-172.5 -75.5q-103 -68 -155 -188t-52 -289
q0 -172 57 -293.5t169 -189.5q83 -50 173.5 -69.5t219.5 -19.5h121z" />
    <glyph glyph-name="quoteleft" unicode="&#x2018;" horiz-adv-x="432" 
d="M335 997h-138l-261 559h242z" />
    <glyph glyph-name="quoteright" unicode="&#x2019;" horiz-adv-x="432" 
d="M496 1556l-261 -559h-138l157 559h242z" />
    <glyph glyph-name="quotedblleft" unicode="&#x201c;" horiz-adv-x="822" 
d="M725 997h-134l-261 559h238zM331 997h-134l-261 559h238z" />
    <glyph glyph-name="quotedblright" unicode="&#x201d;" horiz-adv-x="822" 
d="M896 1556l-261 -559h-134l157 559h238zM502 1556l-261 -559h-134l157 559h238z" />
    <glyph glyph-name="bullet" unicode="&#x2022;" horiz-adv-x="931" 
d="M817 662q0 -145 -103.5 -248t-248.5 -103t-248 103t-103 248t103 248t248 103t248.5 -103t103.5 -248z" />
    <glyph glyph-name="endash" unicode="&#x2013;" horiz-adv-x="1118" 
d="M1122 572h-1126v160h1126v-160z" />
    <glyph glyph-name="emdash" unicode="&#x2014;" horiz-adv-x="1862" 
d="M1866 572h-1870v160h1870v-160z" />
    <glyph glyph-name="trademark" unicode="&#x2122;" horiz-adv-x="1794" 
d="M1634 785h-124v616h-20l-204 -453h-85l-206 460h-25v-623h-123v704h238l161 -382l161 382h227v-704zM692 1372h-229v-587h-127v587h-229v117h585v-117z" />
    <glyph glyph-name="guilsinglright" unicode="&#x203a;" horiz-adv-x="784" 
d="M661 608l-510 -436v199l331 281l-331 281v199l510 -435v-89z" />
    <glyph glyph-name="oe" unicode="&#x153;" horiz-adv-x="1861" 
d="M1625 683q-4 157 -71 233.5t-202 76.5q-128 0 -214.5 -82t-98.5 -228h586zM856 558q0 217 -78.5 322.5t-223.5 105.5q-148 0 -225.5 -110.5t-77.5 -317.5q0 -210 78.5 -318.5t224.5 -108.5q144 0 223 107.5t79 319.5zM1403 138q62 0 121.5 14t107.5 36q51 23 86 44.5
t58 40.5h11v-205q-33 -13 -82 -32.5t-88 -30.5q-55 -15 -99.5 -23t-112.5 -8q-147 0 -264.5 52.5t-188.5 152.5q-67 -103 -164.5 -156.5t-233.5 -53.5q-231 0 -364 158t-133 431q0 278 135 434t362 156q131 0 234.5 -55t167.5 -156q67 101 172.5 156t234.5 55
q215 0 330 -133t115 -374v-102h-769q0 -193 97 -297t267 -104z" />
    <glyph glyph-name="Ydieresis" unicode="&#x178;" horiz-adv-x="1180" 
d="M1193 1489l-503 -830v-659h-198v638l-503 851h220l384 -657l390 657h210zM900 1677h-201v195h201v-195zM487 1677h-201v195h201v-195z" />
    <glyph glyph-name="uni00A0" unicode="&#xa0;" horiz-adv-x="500" 
 />
    <glyph glyph-name="exclamdown" unicode="&#xa1;" horiz-adv-x="680" 
d="M442 1278h-204v211h204v-211zM452 0h-224l28 1079h166z" />
    <glyph glyph-name="cent" unicode="&#xa2;" horiz-adv-x="1118" 
d="M557 2q-215 25 -329 169t-114 386q0 238 118 386t325 172v360h114v-359q87 -3 167.5 -26.5t136.5 -52.5v-200h-10q-62 51 -132 89t-162 51v-836q49 5 98.5 23t83.5 38q36 21 64 41.5t48 37.5h10v-198q-65 -30 -135.5 -53.5t-168.5 -28.5v-362h-114v363zM557 146v825
q-116 -21 -183 -125.5t-67 -288.5q0 -188 68.5 -289.5t181.5 -121.5z" />
    <glyph glyph-name="sterling" unicode="&#xa3;" horiz-adv-x="1118" 
d="M1031 0h-942v207q111 33 156.5 128t45.5 278h-161v138h161v320q0 201 116 324t301 123q97 0 166 -15.5t127 -32.5v-206h-10q-58 41 -129 64t-135 23q-123 0 -183.5 -77t-60.5 -222v-301h364v-138h-364v-61q0 -117 -58.5 -212.5t-163.5 -157.5v-11h770v-171z" />
    <glyph glyph-name="currency" unicode="&#xa4;" horiz-adv-x="1118" 
d="M1057 272l-106 -106l-214 212q-45 -27 -84 -39.5t-93 -12.5q-46 0 -92.5 15t-82.5 38l-215 -215l-105 109l212 213q-25 40 -38.5 86.5t-13.5 88.5q0 44 13.5 88.5t39.5 85.5l-213 216l107 106l214 -213q37 24 83 38t91 14q52 0 97.5 -15.5t78.5 -35.5l212 212l109 -105
l-214 -216q27 -43 40 -83t13 -92q0 -45 -14.5 -91.5t-38.5 -83.5zM752 661q0 80 -56.5 138.5t-135.5 58.5q-77 0 -134.5 -57.5t-57.5 -139.5q0 -80 56.5 -138.5t135.5 -58.5q77 0 134.5 57.5t57.5 139.5z" />
    <glyph glyph-name="yen" unicode="&#xa5;" horiz-adv-x="1118" 
d="M1059 1489l-408 -811v-100h342v-138h-340v-440h-188v440h-340v138h342v79l-411 832h210l294 -639l298 639h201z" />
    <glyph glyph-name="section" unicode="&#xa7;" horiz-adv-x="1118" 
d="M759 401q24 35 37.5 67.5t13.5 86.5q0 49 -14.5 85t-39.5 59q-24 23 -56 38.5t-74 28.5q-33 10 -77 22.5t-99 30.5q-20 -12 -41.5 -30t-47.5 -51q-20 -26 -36.5 -70t-16.5 -89q0 -81 38 -129t146 -81q34 -10 77.5 -23.5t97.5 -30.5q19 12 44 33t48 53zM182 -133
q26 -13 64.5 -29t74.5 -28q47 -15 87 -22.5t101 -7.5q114 0 190.5 46.5t76.5 137.5q0 54 -18.5 87.5t-59.5 59.5q-42 25 -103.5 42.5t-134.5 38.5q-88 25 -146.5 51t-105.5 69q-45 41 -67 95t-22 126q0 94 49 178.5t150 146.5v7q-91 50 -130.5 121t-39.5 161q0 168 128 270
t352 102q85 0 157 -13t161 -44v-194h-10q-90 45 -167.5 66t-161.5 21q-112 0 -189.5 -45.5t-77.5 -133.5q0 -57 20.5 -93t59.5 -59q39 -24 99.5 -43t137.5 -39q184 -50 262.5 -128.5t78.5 -212.5q0 -108 -54.5 -189t-144.5 -135v-7q87 -46 128.5 -116t41.5 -164
q0 -74 -31.5 -145t-89.5 -119q-62 -53 -148.5 -82t-209.5 -29q-79 0 -157 14t-161 44v194h10z" />
    <glyph glyph-name="dieresis" unicode="&#xa8;" horiz-adv-x="1118" 
d="M867 1304h-201v195h201v-195zM454 1304h-201v195h201v-195z" />
    <glyph glyph-name="copyright" unicode="&#xa9;" horiz-adv-x="1902" 
d="M1816 655q0 -358 -253.5 -611.5t-611.5 -253.5t-611.5 253.5t-253.5 611.5t253.5 611t611.5 253t611.5 -253t253.5 -611zM1701 655q0 313 -219.5 533.5t-529.5 220.5t-529.5 -220.5t-219.5 -533.5t219.5 -534t529.5 -221t529.5 221t219.5 534zM1274 255
q-67 -30 -134 -52.5t-158 -22.5q-209 0 -330 123.5t-121 356.5q0 230 125 356.5t326 126.5q83 0 159 -22t133 -51v-181h-16q-43 38 -119 72.5t-153 34.5q-123 0 -196.5 -82t-73.5 -254q0 -162 70 -247.5t200 -85.5q84 0 159 36.5t113 70.5h16v-179z" />
    <glyph glyph-name="ordfeminine" unicode="&#xaa;" horiz-adv-x="1010" 
d="M874 566h-166v91q-19 -15 -51 -38.5t-63 -37.5q-41 -19 -80.5 -29.5t-109.5 -10.5q-124 0 -207 83.5t-83 214.5q0 104 43 169.5t123 103.5q75 36 189 51t239 21v19q0 52 -16.5 84t-48.5 50q-29 17 -72 22.5t-89 5.5q-78 0 -158.5 -23.5t-119.5 -37.5h-15v170
q44 13 131.5 29t162.5 16q192 0 291.5 -76.5t99.5 -248.5v-628zM708 802v243q-65 -4 -151 -12t-137 -23q-60 -17 -97 -55.5t-37 -105.5q0 -75 44 -114t131 -39q76 0 136.5 33t110.5 73z" />
    <glyph glyph-name="guillemotleft" unicode="&#xab;" horiz-adv-x="1174" 
d="M1043 191l-488 419v85l488 418v-188l-317 -273l317 -273v-188zM613 162l-510 446v89l510 445v-196l-331 -294l331 -294v-196z" />
    <glyph glyph-name="logicalnot" unicode="&#xac;" horiz-adv-x="1490" 
d="M1323 57h-171v545h-995v160h1166v-705z" />
    <glyph glyph-name="registered" unicode="&#xae;" horiz-adv-x="1902" 
d="M1816 655q0 -358 -253.5 -611.5t-611.5 -253.5t-611.5 253.5t-253.5 611.5t253.5 611t611.5 253t611.5 -253t253.5 -611zM1701 655q0 313 -219.5 533.5t-529.5 220.5t-529.5 -220.5t-219.5 -533.5t219.5 -534t529.5 -221t529.5 221t219.5 534zM1448 215h-227l-283 355
h-123v-355h-165v915h279q94 0 148.5 -7t110.5 -39q60 -34 87 -82t27 -123q0 -100 -55.5 -164t-144.5 -100zM1120 868q0 37 -12 64t-42 46q-25 16 -56 21.5t-80 5.5h-115v-309h98q48 0 90 9.5t68 32.5t37.5 53t11.5 77z" />
    <glyph glyph-name="macron" unicode="&#xaf;" horiz-adv-x="1118" 
d="M936 1335h-754v154h754v-154z" />
    <glyph glyph-name="degree" unicode="&#xb0;" horiz-adv-x="964" 
d="M863 1135q0 -160 -110 -270t-271 -110q-159 0 -270 109t-111 271q0 160 110 270t271 110t271 -110t110 -270zM706 1135q0 96 -64 162t-160 66t-160 -66t-64 -162q0 -98 65.5 -163t158.5 -65q96 0 160 66.5t64 161.5z" />
    <glyph glyph-name="plusminus" unicode="&#xb1;" horiz-adv-x="1490" 
d="M1328 159h-1166v158h500v422h-500v158h500v505h166v-505h500v-158h-500v-422h500v-158z" />
    <glyph glyph-name="acute" unicode="&#xb4;" horiz-adv-x="1118" 
d="M871 1676l-273 -374h-149l179 374h243z" />
    <glyph glyph-name="mu" unicode="&#xb5;" horiz-adv-x="1163" 
d="M1027 0h-172v116h-6q-60 -63 -120.5 -98t-150.5 -35q-92 0 -145 35t-109 97v-527h-188v1529h188v-842q42 -50 105 -80.5t149 -30.5q90 0 151.5 29t109.5 82v842h188v-1117z" />
    <glyph glyph-name="paragraph" unicode="&#xb6;" horiz-adv-x="1118" 
d="M982 -363h-140v1722h-187v-1722h-140v956q-206 5 -332 129t-126 328q0 207 130 323t373 116h422v-1852z" />
    <glyph glyph-name="periodcentered" unicode="&#xb7;" horiz-adv-x="620" 
d="M429 516h-239v273h239v-273z" />
    <glyph glyph-name="cedilla" unicode="&#xb8;" horiz-adv-x="1230" 
d="M733 -27q-146 0 -268.5 49t-211.5 146t-138 242t-49 333q0 187 47.5 326t138.5 242q89 100 211 152.5t273 52.5q75 0 140.5 -11t121.5 -28q48 -15 98.5 -37.5t99.5 -49.5v-239h-16q-26 24 -67 58t-100 67q-57 31 -124 51t-155 20q-95 0 -180 -39t-149 -115
q-63 -76 -98 -191t-35 -259q0 -153 37 -263.5t101 -186.5q62 -74 146 -111.5t178 -37.5q86 0 159 21t130 53q55 31 95 63.5t63 55.5h15v-236q-49 -23 -92.5 -44t-105.5 -41q-8 -3 -23 -7.5t-21 -5.5q1 -15 3 -39t2 -53q0 -149 -82 -241.5t-227 -92.5q-37 0 -87 6t-90 18v160
h9q24 -11 63 -22.5t79 -11.5q94 0 138 39.5t44 126.5q0 18 -0.5 38t-1.5 45q-18 -1 -33.5 -2t-37.5 -1z" />
    <glyph glyph-name="ordmasculine" unicode="&#xba;" horiz-adv-x="1010" 
d="M926 1030q0 -234 -117 -362t-303 -128q-193 0 -307 131.5t-114 358.5q0 233 117 361.5t304 128.5t303.5 -127t116.5 -363zM746 1030q0 173 -64.5 256.5t-175.5 83.5t-176 -82.5t-65 -257.5q0 -169 64 -254.5t177 -85.5q111 0 175.5 85.5t64.5 254.5z" />
    <glyph glyph-name="guillemotright" unicode="&#xbb;" horiz-adv-x="1174" 
d="M1071 608l-510 -446v196l331 294l-331 294v196l510 -445v-89zM619 610l-488 -419v188l317 273l-317 273v188l488 -418v-85z" />
    <glyph glyph-name="questiondown" unicode="&#xbf;" horiz-adv-x="970" 
d="M632 1278h-204v211h204v-211zM861 40q-79 -30 -167 -50t-195 -20q-205 0 -323 104.5t-118 275.5q0 94 30 168t89 141q53 59 122.5 106.5t144.5 95.5v228h179v-305q-71 -43 -131.5 -81t-115.5 -89q-51 -48 -82.5 -109t-31.5 -140q0 -113 71 -168.5t185 -55.5
q99 0 191 34.5t141 68.5h11v-204z" />
    <glyph glyph-name="Agrave" unicode="&#xc0;" horiz-adv-x="1228" 
d="M-10 0l502 1489h244l502 -1489h-209l-135 416h-569l-135 -416h-200zM839 585l-230 702l-229 -702h459zM769 1675h-149l-273 374h243z" />
    <glyph glyph-name="Aacute" unicode="&#xc1;" horiz-adv-x="1228" 
d="M-10 0l502 1489h244l502 -1489h-209l-135 416h-569l-135 -416h-200zM839 585l-230 702l-229 -702h459zM862 2049l-273 -374h-149l179 374h243z" />
    <glyph glyph-name="Acircumflex" unicode="&#xc2;" horiz-adv-x="1228" 
d="M-10 0l502 1489h244l502 -1489h-209l-135 416h-569l-135 -416h-200zM839 585l-230 702l-229 -702h459zM1010 1965q-10 -156 -74.5 -234t-171.5 -78q-52 0 -96 19t-86 59q-44 41 -76 62.5t-63 21.5q-49 0 -68.5 -45t-23.5 -121h-140q7 154 76 232.5t169 78.5
q51 0 94 -19.5t86 -57.5q43 -39 77.5 -59.5t63.5 -20.5q47 0 68.5 45t24.5 117h140z" />
    <glyph glyph-name="Atilde" unicode="&#xc3;" horiz-adv-x="962" 
d="M618 355h-333l-77 -197q-20 -57 -20 -72q0 -26 24.5 -36t87.5 -13l-3 -36q-37 0 -83 1t-91 1q-37 0 -76.5 -1t-76.5 -1l-2 34q39 3 64 9.5t43.5 24t35 48t38.5 81.5l277 677q12 30 25.5 52.5t23.5 48.5l63 8q11 -48 23.5 -88t23.5 -73l225 -652q15 -44 27 -69t28 -38.5
t40.5 -18.5t63.5 -8l-3 -36q-42 0 -92.5 1t-101.5 1q-42 0 -85 -1t-85 -1l-3 34q56 4 80 13.5t24 35.5q0 11 -4 25.5t-10 32.5zM308 413h291l-131 396h-3zM720 1156q-11 -23 -24.5 -44t-30.5 -36.5t-37 -25t-43 -9.5q-19 0 -36.5 7l-37.5 15q-42 17 -60.5 24t-31.5 7
q-27 0 -45.5 -15.5t-33.5 -38.5l-37 17q10 23 23.5 43.5t30.5 36.5t37 25t43 9q19 0 36.5 -7l37.5 -15q43 -17 61 -24t31 -7q28 0 46 16t34 39z" />
    <glyph glyph-name="Adieresis" unicode="&#xc4;" horiz-adv-x="1228" 
d="M-10 0l502 1489h244l502 -1489h-209l-135 416h-569l-135 -416h-200zM839 585l-230 702l-229 -702h459zM913 1657h-201v195h201v-195zM500 1657h-201v195h201v-195z" />
    <glyph glyph-name="Aring" unicode="&#xc5;" horiz-adv-x="1228" 
d="M859.5 1447.5q-29.5 -52.5 -80.5 -83.5l459 -1364h-209l-135 416h-569l-135 -416h-200l459 1364q-51 31 -81 82t-30 117q0 109 80.5 181t195.5 72t195 -72t80 -181q0 -63 -29.5 -115.5zM839 584l-230 705l-229 -705h459zM742 1563q0 54 -35.5 91.5t-92.5 37.5t-93 -37
t-36 -92q0 -57 36.5 -94.5t92.5 -37.5t92 38t36 94zM891 2117l-243 -274h-149l149 274h243z" />
    <glyph glyph-name="AE" unicode="&#xc6;" horiz-adv-x="1870" 
d="M1802 0h-912v557h-505l-217 -557h-207l603 1489h1238v-176h-716v-408h666v-176h-666v-553h716v-176zM890 723v601h-194l-245 -601h439z" />
    <glyph glyph-name="Ccedilla" unicode="&#xc7;" horiz-adv-x="1230" 
d="M733 -27q-146 0 -268.5 49t-211.5 146t-138 242t-49 333q0 187 47.5 326t138.5 242q89 100 211 152.5t273 52.5q75 0 140.5 -11t121.5 -28q48 -15 98.5 -37.5t99.5 -49.5v-239h-16q-26 24 -67 58t-100 67q-57 31 -124 51t-155 20q-95 0 -180 -39t-149 -115
q-63 -76 -98 -191t-35 -259q0 -153 37 -263.5t101 -186.5q62 -74 146 -111.5t178 -37.5q86 0 159 21t130 53q55 31 95 63.5t63 55.5h15v-236q-49 -23 -92.5 -44t-105.5 -41q-8 -3 -23 -7.5t-21 -5.5q1 -15 3 -39t2 -53q0 -149 -82 -241.5t-227 -92.5q-37 0 -87 6t-90 18v160
h9q24 -11 63 -22.5t79 -11.5q94 0 138 39.5t44 126.5q0 18 -0.5 38t-1.5 45q-18 -1 -33.5 -2t-37.5 -1z" />
    <glyph glyph-name="Egrave" unicode="&#xc8;" horiz-adv-x="1149" 
d="M151 0v1489h931v-176h-733v-408h683v-176h-683v-553h733v-176h-931zM754 1675h-149l-273 374h243z" />
    <glyph glyph-name="Eacute" unicode="&#xc9;" horiz-adv-x="1149" 
d="M151 0v1489h931v-176h-733v-408h683v-176h-683v-553h733v-176h-931zM920 2049l-273 -374h-149l179 374h243z" />
    <glyph glyph-name="Ecircumflex" unicode="&#xca;" horiz-adv-x="1149" 
d="M151 0v1489h931v-176h-733v-408h683v-176h-683v-553h733v-176h-931zM961 1670h-159l-185 256l-184 -256h-155l228 379h227z" />
    <glyph glyph-name="Edieresis" unicode="&#xcb;" horiz-adv-x="1149" 
d="M151 0v1489h931v-176h-733v-408h683v-176h-683v-553h733v-176h-931zM966 1677h-201v195h201v-195zM553 1677h-201v195h201v-195z" />
    <glyph glyph-name="Igrave" unicode="&#xcc;" horiz-adv-x="764" 
d="M671 0h-578v152h190v1185h-190v152h578v-152h-190v-1185h190v-152zM529 1675h-149l-273 374h243z" />
    <glyph glyph-name="Iacute" unicode="&#xcd;" horiz-adv-x="764" 
d="M671 0h-578v152h190v1185h-190v152h578v-152h-190v-1185h190v-152zM657 2049l-273 -374h-149l179 374h243z" />
    <glyph glyph-name="Icircumflex" unicode="&#xce;" horiz-adv-x="764" 
d="M671 0h-578v152h190v1185h-190v152h578v-152h-190v-1185h190v-152zM725 1670h-159l-185 256l-184 -256h-155l228 379h227z" />
    <glyph glyph-name="Idieresis" unicode="&#xcf;" horiz-adv-x="764" 
d="M671 0h-578v152h190v1185h-190v152h578v-152h-190v-1185h190v-152zM690 1677h-201v195h201v-195zM277 1677h-201v195h201v-195z" />
    <glyph glyph-name="Ntilde" unicode="&#xd1;" horiz-adv-x="1367" 
d="M1216 0h-222l-658 1284v-1284h-185v1489h281l599 -1179v1179h185v-1489zM1110 1985q-10 -156 -74.5 -234t-171.5 -78q-52 0 -96 19t-86 59q-44 41 -76 62.5t-63 21.5q-49 0 -68.5 -45t-23.5 -121h-140q7 154 76 232.5t169 78.5q51 0 94 -19.5t86 -57.5q43 -39 77.5 -59.5
t63.5 -20.5q47 0 68.5 45t24.5 117h140z" />
    <glyph glyph-name="Ograve" unicode="&#xd2;" horiz-adv-x="1449" 
d="M1204 1318q85 -98 132 -243t47 -331q0 -181 -46 -327t-133 -245q-91 -104 -212.5 -153.5t-267.5 -49.5q-151 0 -272 51t-208 152q-86 99 -132 244t-46 328q0 188 46.5 330t132.5 244q86 99 207.5 150.5t271.5 51.5q152 0 274 -53t206 -149zM1177 744q0 148 -32 262
t-90 189q-59 77 -142.5 115.5t-187.5 38.5q-108 0 -188.5 -37.5t-142.5 -116.5q-59 -76 -90.5 -191t-31.5 -260q0 -293 123 -448.5t330 -155.5t329.5 155.5t122.5 448.5zM851 1675h-149l-273 374h243z" />
    <glyph glyph-name="Oacute" unicode="&#xd3;" horiz-adv-x="1449" 
d="M1204 1318q85 -98 132 -243t47 -331q0 -181 -46 -327t-133 -245q-91 -104 -212.5 -153.5t-267.5 -49.5q-151 0 -272 51t-208 152q-86 99 -132 244t-46 328q0 188 46.5 330t132.5 244q86 99 207.5 150.5t271.5 51.5q152 0 274 -53t206 -149zM1177 744q0 148 -32 262
t-90 189q-59 77 -142.5 115.5t-187.5 38.5q-108 0 -188.5 -37.5t-142.5 -116.5q-59 -76 -90.5 -191t-31.5 -260q0 -293 123 -448.5t330 -155.5t329.5 155.5t122.5 448.5zM1002 2049l-273 -374h-149l179 374h243z" />
    <glyph glyph-name="Ocircumflex" unicode="&#xd4;" horiz-adv-x="1449" 
d="M1204 1318q85 -98 132 -243t47 -331q0 -181 -46 -327t-133 -245q-91 -104 -212.5 -153.5t-267.5 -49.5q-151 0 -272 51t-208 152q-86 99 -132 244t-46 328q0 188 46.5 330t132.5 244q86 99 207.5 150.5t271.5 51.5q152 0 274 -53t206 -149zM1177 744q0 148 -32 262
t-90 189q-59 77 -142.5 115.5t-187.5 38.5q-108 0 -188.5 -37.5t-142.5 -116.5q-59 -76 -90.5 -191t-31.5 -260q0 -293 123 -448.5t330 -155.5t329.5 155.5t122.5 448.5zM1055 1670h-159l-185 256l-184 -256h-155l228 379h227z" />
    <glyph glyph-name="Otilde" unicode="&#xd5;" horiz-adv-x="1112" 
d="M1055 558q0 -282 -136 -435.5t-362 -153.5q-233 0 -366.5 158.5t-133.5 430.5q0 280 137.5 435t362.5 155q226 0 362 -154.5t136 -435.5zM861 558q0 217 -79 322.5t-225 105.5q-147 0 -226.5 -105.5t-79.5 -322.5q0 -210 79.5 -318.5t226.5 -108.5q145 0 224.5 106.5
t79.5 320.5zM957 1632q-10 -156 -74.5 -234t-171.5 -78q-52 0 -96 19t-86 59q-44 41 -76 62.5t-63 21.5q-49 0 -68.5 -45t-23.5 -121h-140q7 154 76 232.5t169 78.5q51 0 94 -19.5t86 -57.5q43 -39 77.5 -59.5t63.5 -20.5q47 0 68.5 45t24.5 117h140z" />
    <glyph glyph-name="Odieresis" unicode="&#xd6;" horiz-adv-x="1449" 
d="M1204 1318q85 -98 132 -243t47 -331q0 -181 -46 -327t-133 -245q-91 -104 -212.5 -153.5t-267.5 -49.5q-151 0 -272 51t-208 152q-86 99 -132 244t-46 328q0 188 46.5 330t132.5 244q86 99 207.5 150.5t271.5 51.5q152 0 274 -53t206 -149zM1177 744q0 148 -32 262
t-90 189q-59 77 -142.5 115.5t-187.5 38.5q-108 0 -188.5 -37.5t-142.5 -116.5q-59 -76 -90.5 -191t-31.5 -260q0 -293 123 -448.5t330 -155.5t329.5 155.5t122.5 448.5zM1027 1677h-201v195h201v-195zM614 1677h-201v195h201v-195z" />
    <glyph glyph-name="Oslash" unicode="&#xd8;" horiz-adv-x="1449" 
d="M1383 744q0 -368 -180 -571.5t-479 -203.5q-110 0 -204.5 29t-171.5 82l-132 -196h-148l189 278q-90 99 -140.5 245t-50.5 337q0 368 180.5 572t477.5 204q114 0 203.5 -27.5t169.5 -82.5l115 171h148l-171 -251q91 -100 142.5 -243.5t51.5 -342.5zM995 1260
q-52 44 -120 66.5t-150 22.5q-208 0 -331.5 -154t-123.5 -451q0 -135 26 -239.5t73 -180.5zM1179 744q0 138 -27.5 246t-73.5 179l-628 -937q57 -46 120.5 -69t154.5 -23q206 0 330 155.5t124 448.5zM1031 2049l-273 -374h-149l179 374h243z" />
    <glyph glyph-name="Ugrave" unicode="&#xd9;" horiz-adv-x="1142" 
d="M1006 0h-188v124q-87 -76 -165 -115.5t-174 -39.5q-73 0 -137.5 24t-112.5 76t-74.5 131t-26.5 192v725h188v-636q0 -89 6.5 -147.5t29.5 -102.5q23 -43 62.5 -63t113.5 -20q69 0 147 39t143 96v834h188v-1117zM868 1676l-273 -374h-149l179 374h243z" />
    <glyph glyph-name="Uacute" unicode="&#xda;" horiz-adv-x="1142" 
d="M1006 0h-188v124q-87 -76 -165 -115.5t-174 -39.5q-73 0 -137.5 24t-112.5 76t-74.5 131t-26.5 192v725h188v-636q0 -89 6.5 -147.5t29.5 -102.5q23 -43 62.5 -63t113.5 -20q69 0 147 39t143 96v834h188v-1117zM687 1302h-149l-273 374h243z" />
    <glyph glyph-name="Ucircumflex" unicode="&#xdb;" horiz-adv-x="1142" 
d="M1006 0h-188v124q-87 -76 -165 -115.5t-174 -39.5q-73 0 -137.5 24t-112.5 76t-74.5 131t-26.5 192v725h188v-636q0 -89 6.5 -147.5t29.5 -102.5q23 -43 62.5 -63t113.5 -20q69 0 147 39t143 96v834h188v-1117zM908 1297h-159l-185 256l-184 -256h-155l228 379h227z" />
    <glyph glyph-name="Udieresis" unicode="&#xdc;" horiz-adv-x="1142" 
d="M1006 0h-188v124q-87 -76 -165 -115.5t-174 -39.5q-73 0 -137.5 24t-112.5 76t-74.5 131t-26.5 192v725h188v-636q0 -89 6.5 -147.5t29.5 -102.5q23 -43 62.5 -63t113.5 -20q69 0 147 39t143 96v834h188v-1117zM879 1304h-201v195h201v-195zM466 1304h-201v195h201v-195z
" />
    <glyph glyph-name="germandbls" unicode="&#xdf;" horiz-adv-x="1123" 
d="M1068 481q0 -218 -135 -361.5t-351 -143.5q-25 0 -62.5 3t-59.5 7v166h10q28 -8 59 -12.5t61 -4.5q77 0 131.5 27.5t87.5 74.5q35 51 49.5 111t14.5 141q0 169 -103 248.5t-304 79.5v157q152 0 233.5 57.5t81.5 190.5q0 33 -10 68.5t-34 63.5q-24 29 -62 46.5t-97 17.5
q-53 0 -96 -14.5t-81 -54.5q-36 -37 -56.5 -103t-20.5 -160v-1086h-188v1080q0 130 34 218t95 150q60 60 142.5 89t174.5 29q168 0 279.5 -85t111.5 -240q0 -112 -71 -201t-184 -121v-9q164 -37 257 -147t93 -282z" />
    <glyph glyph-name="agrave" unicode="&#xe0;" horiz-adv-x="1075" 
d="M760 275v310q-67 -6 -169.5 -16.5t-165.5 -29.5q-75 -23 -124 -70.5t-49 -132.5q0 -96 54 -145t158 -49q89 0 161 38.5t135 94.5zM760 119q-23 -17 -61.5 -47.5t-74.5 -48.5q-50 -26 -96.5 -40t-130.5 -14q-69 0 -131 26t-109 73q-45 46 -72 113.5t-27 142.5
q0 116 49 197.5t155 129.5q94 43 222 59.5t276 24.5v36q0 66 -20 106.5t-56 62.5q-36 23 -88 30.5t-107 7.5q-65 0 -153 -19.5t-176 -56.5h-11v191q52 15 149 33t192 18q115 0 194 -18t142 -65q61 -46 91 -119t30 -178v-764h-187v119zM668 1302h-149l-273 374h243z" />
    <glyph glyph-name="aacute" unicode="&#xe1;" horiz-adv-x="1075" 
d="M760 275v310q-67 -6 -169.5 -16.5t-165.5 -29.5q-75 -23 -124 -70.5t-49 -132.5q0 -96 54 -145t158 -49q89 0 161 38.5t135 94.5zM760 119q-23 -17 -61.5 -47.5t-74.5 -48.5q-50 -26 -96.5 -40t-130.5 -14q-69 0 -131 26t-109 73q-45 46 -72 113.5t-27 142.5
q0 116 49 197.5t155 129.5q94 43 222 59.5t276 24.5v36q0 66 -20 106.5t-56 62.5q-36 23 -88 30.5t-107 7.5q-65 0 -153 -19.5t-176 -56.5h-11v191q52 15 149 33t192 18q115 0 194 -18t142 -65q61 -46 91 -119t30 -178v-764h-187v119zM837 1676l-273 -374h-149l179 374h243z
" />
    <glyph glyph-name="acircumflex" unicode="&#xe2;" horiz-adv-x="1075" 
d="M760 275v310q-67 -6 -169.5 -16.5t-165.5 -29.5q-75 -23 -124 -70.5t-49 -132.5q0 -96 54 -145t158 -49q89 0 161 38.5t135 94.5zM760 119q-23 -17 -61.5 -47.5t-74.5 -48.5q-50 -26 -96.5 -40t-130.5 -14q-69 0 -131 26t-109 73q-45 46 -72 113.5t-27 142.5
q0 116 49 197.5t155 129.5q94 43 222 59.5t276 24.5v36q0 66 -20 106.5t-56 62.5q-36 23 -88 30.5t-107 7.5q-65 0 -153 -19.5t-176 -56.5h-11v191q52 15 149 33t192 18q115 0 194 -18t142 -65q61 -46 91 -119t30 -178v-764h-187v119zM876 1297h-159l-185 256l-184 -256
h-155l228 379h227z" />
    <glyph glyph-name="atilde" unicode="&#xe3;" horiz-adv-x="1075" 
d="M760 275v310q-67 -6 -169.5 -16.5t-165.5 -29.5q-75 -23 -124 -70.5t-49 -132.5q0 -96 54 -145t158 -49q89 0 161 38.5t135 94.5zM760 119q-23 -17 -61.5 -47.5t-74.5 -48.5q-50 -26 -96.5 -40t-130.5 -14q-69 0 -131 26t-109 73q-45 46 -72 113.5t-27 142.5
q0 116 49 197.5t155 129.5q94 43 222 59.5t276 24.5v36q0 66 -20 106.5t-56 62.5q-36 23 -88 30.5t-107 7.5q-65 0 -153 -19.5t-176 -56.5h-11v191q52 15 149 33t192 18q115 0 194 -18t142 -65q61 -46 91 -119t30 -178v-764h-187v119zM933 1632q-10 -156 -74.5 -234
t-171.5 -78q-52 0 -96 19t-86 59q-44 41 -76 62.5t-63 21.5q-49 0 -68.5 -45t-23.5 -121h-140q7 154 76 232.5t169 78.5q51 0 94 -19.5t86 -57.5q43 -39 77.5 -59.5t63.5 -20.5q47 0 68.5 45t24.5 117h140z" />
    <glyph glyph-name="adieresis" unicode="&#xe4;" horiz-adv-x="1075" 
d="M760 275v310q-67 -6 -169.5 -16.5t-165.5 -29.5q-75 -23 -124 -70.5t-49 -132.5q0 -96 54 -145t158 -49q89 0 161 38.5t135 94.5zM760 119q-23 -17 -61.5 -47.5t-74.5 -48.5q-50 -26 -96.5 -40t-130.5 -14q-69 0 -131 26t-109 73q-45 46 -72 113.5t-27 142.5
q0 116 49 197.5t155 129.5q94 43 222 59.5t276 24.5v36q0 66 -20 106.5t-56 62.5q-36 23 -88 30.5t-107 7.5q-65 0 -153 -19.5t-176 -56.5h-11v191q52 15 149 33t192 18q115 0 194 -18t142 -65q61 -46 91 -119t30 -178v-764h-187v119zM835 1304h-201v195h201v-195zM422 1304
h-201v195h201v-195z" />
    <glyph glyph-name="aring" unicode="&#xe5;" horiz-adv-x="1075" 
d="M760 275v310q-67 -6 -169.5 -16.5t-165.5 -29.5q-75 -23 -124 -70.5t-49 -132.5q0 -96 54 -145t158 -49q89 0 161 38.5t135 94.5zM760 119q-23 -17 -61.5 -47t-74.5 -49q-50 -26 -96.5 -40t-130.5 -14q-69 0 -131 26t-109 73q-46 46 -72.5 113.5t-26.5 142.5
q0 116 49 197.5t155 129.5q94 43 222 59.5t276 24.5v36q0 66 -20 106.5t-56 62.5q-36 23 -88 30.5t-107 7.5q-52 0 -104.5 -10t-86.5 -19q-46 -12 -82 -25.5t-56 -21.5h-11v191q47 14 117.5 27t159.5 19q-90 36 -148 110t-58 172q0 128 89 214.5t217 86.5q129 0 217.5 -86
t88.5 -215q0 -99 -60.5 -176t-157.5 -111q86 -12 146.5 -39t99.5 -68q43 -46 65 -109.5t22 -153.5v-764h-187v119zM685 1420q0 73 -44 121.5t-115 48.5q-70 0 -114.5 -48.5t-44.5 -121.5q0 -74 45 -123t114 -49t114 49t45 123z" />
    <glyph glyph-name="ae" unicode="&#xe6;" horiz-adv-x="1802" 
d="M817 298q-19 54 -29 119.5t-10 140.5q-95 -3 -189.5 -8.5t-169.5 -26.5q-74 -20 -121 -66t-47 -127q0 -95 56 -141.5t167 -46.5q91 0 184 44t159 112zM1340 138q65 0 125.5 14.5t106.5 35.5q51 23 86 44.5t58 40.5h11v-205l-82.5 -32.5t-88.5 -30.5q-55 -15 -99.5 -23
t-114.5 -8q-161 0 -276 52t-189 155q-21 -19 -64.5 -59.5t-91.5 -68.5q-65 -38 -134.5 -60t-179.5 -22q-146 0 -247.5 97t-101.5 249q0 129 53 204t150 117q92 39 231.5 52t293.5 16v58q0 65 -21.5 108t-60.5 67q-36 22 -87.5 31.5t-116.5 9.5q-81 0 -176.5 -26.5
t-152.5 -51.5h-15v191q49 14 151.5 33.5t193.5 19.5q160 0 260 -48t153 -136q66 81 165 133.5t217 52.5q224 0 338.5 -134.5t114.5 -372.5v-82h-788q0 -114 30 -195.5t83 -132.5q53 -50 120 -71.5t146 -21.5zM1567 703q-5 59 -20.5 112.5t-47.5 92.5q-31 38 -85 61.5
t-127 23.5q-78 0 -129.5 -21.5t-94.5 -62.5q-40 -38 -64.5 -92.5t-34.5 -113.5h603z" />
    <glyph glyph-name="ccedilla" unicode="&#xe7;" horiz-adv-x="945" 
d="M580 -25q-115 0 -211 35.5t-165 107.5t-107 181.5t-38 257.5q0 147 39.5 254t105.5 180t164.5 112.5t211.5 39.5q92 0 177.5 -26t152.5 -60v-211h-11q-20 17 -51.5 39t-76.5 45q-39 20 -92 35t-102 15q-146 0 -234.5 -110.5t-88.5 -312.5q0 -198 85.5 -308.5
t237.5 -110.5q92 0 175 38t147 98h11v-211q-28 -13 -65 -29t-68 -26q1 -16 3 -42t2 -55q0 -149 -82 -241.5t-227 -92.5q-37 0 -87 6t-90 18v160h9q24 -11 63 -22.5t79 -11.5q94 0 138 39.5t44 126.5q0 18 -0.5 38.5t-1.5 45.5q-13 0 -22.5 -1t-24.5 -1z" />
    <glyph glyph-name="egrave" unicode="&#xe8;" horiz-adv-x="1078" 
d="M621 -26q-267 0 -414.5 150.5t-147.5 427.5q0 273 143 434.5t374 161.5q104 0 184 -30t140 -94t92 -156.5t32 -226.5v-102h-774q0 -195 98 -298t271 -103q62 0 121.5 14t107.5 36q51 23 86 44.5t58 40.5h11v-205q-33 -13 -82 -32.5t-88 -30.5q-55 -15 -99.5 -23
t-112.5 -8zM841 683q-2 76 -18 131t-46 93q-33 42 -84.5 64t-127.5 22q-75 0 -127.5 -22.5t-95.5 -65.5q-42 -44 -64 -97.5t-28 -124.5h591zM685 1302h-149l-273 374h243z" />
    <glyph glyph-name="eacute" unicode="&#xe9;" horiz-adv-x="1078" 
d="M621 -26q-267 0 -414.5 150.5t-147.5 427.5q0 273 143 434.5t374 161.5q104 0 184 -30t140 -94t92 -156.5t32 -226.5v-102h-774q0 -195 98 -298t271 -103q62 0 121.5 14t107.5 36q51 23 86 44.5t58 40.5h11v-205q-33 -13 -82 -32.5t-88 -30.5q-55 -15 -99.5 -23
t-112.5 -8zM841 683q-2 76 -18 131t-46 93q-33 42 -84.5 64t-127.5 22q-75 0 -127.5 -22.5t-95.5 -65.5q-42 -44 -64 -97.5t-28 -124.5h591zM889 1676l-273 -374h-149l179 374h243z" />
    <glyph glyph-name="ecircumflex" unicode="&#xea;" horiz-adv-x="1078" 
d="M621 -26q-267 0 -414.5 150.5t-147.5 427.5q0 273 143 434.5t374 161.5q104 0 184 -30t140 -94t92 -156.5t32 -226.5v-102h-774q0 -195 98 -298t271 -103q62 0 121.5 14t107.5 36q51 23 86 44.5t58 40.5h11v-205q-33 -13 -82 -32.5t-88 -30.5q-55 -15 -99.5 -23
t-112.5 -8zM841 683q-2 76 -18 131t-46 93q-33 42 -84.5 64t-127.5 22q-75 0 -127.5 -22.5t-95.5 -65.5q-42 -44 -64 -97.5t-28 -124.5h591zM915 1297h-159l-185 256l-184 -256h-155l228 379h227z" />
    <glyph glyph-name="edieresis" unicode="&#xeb;" horiz-adv-x="1078" 
d="M621 -26q-267 0 -414.5 150.5t-147.5 427.5q0 273 143 434.5t374 161.5q104 0 184 -30t140 -94t92 -156.5t32 -226.5v-102h-774q0 -195 98 -298t271 -103q62 0 121.5 14t107.5 36q51 23 86 44.5t58 40.5h11v-205q-33 -13 -82 -32.5t-88 -30.5q-55 -15 -99.5 -23
t-112.5 -8zM841 683q-2 76 -18 131t-46 93q-33 42 -84.5 64t-127.5 22q-75 0 -127.5 -22.5t-95.5 -65.5q-42 -44 -64 -97.5t-28 -124.5h591zM880 1304h-201v195h201v-195zM467 1304h-201v195h201v-195z" />
    <glyph glyph-name="igrave" unicode="&#xec;" horiz-adv-x="468" 
d="M328 0h-188v1117h188v-1117zM521 1297h-151l-139 263l-138 -263h-147l174 379h227z" />
    <glyph glyph-name="iacute" unicode="&#xed;" horiz-adv-x="468" 
d="M328 0h-188v1117h188v-1117zM542 1676l-273 -374h-149l179 374h243z" />
    <glyph glyph-name="icircumflex" unicode="&#xee;" horiz-adv-x="468" 
d="M328 0h-188v1117h188v-1117zM521 1297h-151l-139 263l-138 -263h-147l174 379h227z" />
    <glyph glyph-name="idieresis" unicode="&#xef;" horiz-adv-x="468" 
d="M328 0h-188v1117h188v-1117zM506 1304h-189v195h189v-195zM151 1304h-189v195h189v-195z" />
    <glyph glyph-name="ntilde" unicode="&#xf1;" horiz-adv-x="1142" 
d="M1014 0h-188v636q0 77 -7.5 143.5t-28.5 106.5q-23 42 -64 62.5t-112 20.5q-70 0 -144.5 -37.5t-145.5 -97.5v-834h-188v1117h188v-124q84 75 166 115t173 40q165 0 258 -108.5t93 -314.5v-725zM978 1632q-10 -156 -74.5 -234t-171.5 -78q-52 0 -96 19t-86 59
q-44 41 -76 62.5t-63 21.5q-49 0 -68.5 -45t-23.5 -121h-140q7 154 76 232.5t169 78.5q51 0 94 -19.5t86 -57.5q43 -39 77.5 -59.5t63.5 -20.5q47 0 68.5 45t24.5 117h140z" />
    <glyph glyph-name="ograve" unicode="&#xf2;" horiz-adv-x="1112" 
d="M1055 558q0 -282 -136 -435.5t-362 -153.5q-233 0 -366.5 158.5t-133.5 430.5q0 280 137.5 435t362.5 155q226 0 362 -154.5t136 -435.5zM861 558q0 217 -79 322.5t-225 105.5q-147 0 -226.5 -105.5t-79.5 -322.5q0 -210 79.5 -318.5t226.5 -108.5q145 0 224.5 106.5
t79.5 320.5zM667 1302h-149l-273 374h243z" />
    <glyph glyph-name="oacute" unicode="&#xf3;" horiz-adv-x="1112" 
d="M1055 558q0 -282 -136 -435.5t-362 -153.5q-233 0 -366.5 158.5t-133.5 430.5q0 280 137.5 435t362.5 155q226 0 362 -154.5t136 -435.5zM861 558q0 217 -79 322.5t-225 105.5q-147 0 -226.5 -105.5t-79.5 -322.5q0 -210 79.5 -318.5t226.5 -108.5q145 0 224.5 106.5
t79.5 320.5zM868 1676l-273 -374h-149l179 374h243z" />
    <glyph glyph-name="ocircumflex" unicode="&#xf4;" horiz-adv-x="1112" 
d="M1055 558q0 -282 -136 -435.5t-362 -153.5q-233 0 -366.5 158.5t-133.5 430.5q0 280 137.5 435t362.5 155q226 0 362 -154.5t136 -435.5zM861 558q0 217 -79 322.5t-225 105.5q-147 0 -226.5 -105.5t-79.5 -322.5q0 -210 79.5 -318.5t226.5 -108.5q145 0 224.5 106.5
t79.5 320.5zM900 1297h-159l-185 256l-184 -256h-155l228 379h227z" />
    <glyph glyph-name="otilde" unicode="&#xf5;" horiz-adv-x="1112" 
d="M1055 558q0 -282 -136 -435.5t-362 -153.5q-233 0 -366.5 158.5t-133.5 430.5q0 280 137.5 435t362.5 155q226 0 362 -154.5t136 -435.5zM861 558q0 217 -79 322.5t-225 105.5q-147 0 -226.5 -105.5t-79.5 -322.5q0 -210 79.5 -318.5t226.5 -108.5q145 0 224.5 106.5
t79.5 320.5zM957 1632q-10 -156 -74.5 -234t-171.5 -78q-52 0 -96 19t-86 59q-44 41 -76 62.5t-63 21.5q-49 0 -68.5 -45t-23.5 -121h-140q7 154 76 232.5t169 78.5q51 0 94 -19.5t86 -57.5q43 -39 77.5 -59.5t63.5 -20.5q47 0 68.5 45t24.5 117h140z" />
    <glyph glyph-name="odieresis" unicode="&#xf6;" horiz-adv-x="1449" 
d="M1204 1318q85 -98 132 -243t47 -331q0 -181 -46 -327t-133 -245q-91 -104 -212.5 -153.5t-267.5 -49.5q-151 0 -272 51t-208 152q-86 99 -132 244t-46 328q0 188 46.5 330t132.5 244q86 99 207.5 150.5t271.5 51.5q152 0 274 -53t206 -149zM1177 744q0 148 -32 262
t-90 189q-59 77 -142.5 115.5t-187.5 38.5q-108 0 -188.5 -37.5t-142.5 -116.5q-59 -76 -90.5 -191t-31.5 -260q0 -293 123 -448.5t330 -155.5t329.5 155.5t122.5 448.5zM1027 1677h-201v195h201v-195zM614 1677h-201v195h201v-195z" />
    <glyph glyph-name="divide" unicode="&#xf7;" horiz-adv-x="1490" 
d="M864 1012h-238v275h238v-275zM1333 572h-1176v160h1176v-160zM864 17h-238v275h238v-275z" />
    <glyph glyph-name="oslash" unicode="&#xf8;" horiz-adv-x="1449" 
d="M1383 744q0 -368 -180 -571.5t-479 -203.5q-110 0 -204.5 29t-171.5 82l-132 -196h-148l189 278q-90 99 -140.5 245t-50.5 337q0 368 180.5 572t477.5 204q114 0 203.5 -27.5t169.5 -82.5l115 171h148l-171 -251q91 -100 142.5 -243.5t51.5 -342.5zM995 1260
q-52 44 -120 66.5t-150 22.5q-208 0 -331.5 -154t-123.5 -451q0 -135 26 -239.5t73 -180.5zM1179 744q0 138 -27.5 246t-73.5 179l-628 -937q57 -46 120.5 -69t154.5 -23q206 0 330 155.5t124 448.5z" />
    <glyph glyph-name="ugrave" unicode="&#xf9;" horiz-adv-x="1343" 
d="M671 -31q-131 0 -229 34.5t-167 102.5q-78 78 -110 186.5t-32 267.5v929h198v-929q0 -103 13 -173.5t51 -126.5q40 -60 108.5 -91t167.5 -31q93 0 165 31t112 91q37 57 50.5 126t13.5 169v934h198v-929q0 -155 -31.5 -266t-110.5 -188q-71 -69 -165.5 -103t-231.5 -34z
M854 1675h-149l-273 374h243z" />
    <glyph glyph-name="uacute" unicode="&#xfa;" horiz-adv-x="1343" 
d="M671 -31q-131 0 -229 34.5t-167 102.5q-78 78 -110 186.5t-32 267.5v929h198v-929q0 -103 13 -173.5t51 -126.5q40 -60 108.5 -91t167.5 -31q93 0 165 31t112 91q37 57 50.5 126t13.5 169v934h198v-929q0 -155 -31.5 -266t-110.5 -188q-71 -69 -165.5 -103t-231.5 -34z
M995 2049l-273 -374h-149l179 374h243z" />
    <glyph glyph-name="ucircumflex" unicode="&#xfb;" horiz-adv-x="1142" 
d="M1006 0h-188v124q-87 -76 -165 -115.5t-174 -39.5q-73 0 -137.5 24t-112.5 76t-74.5 131t-26.5 192v725h188v-636q0 -89 6.5 -147.5t29.5 -102.5q23 -43 62.5 -63t113.5 -20q69 0 147 39t143 96v834h188v-1117zM908 1297h-159l-185 256l-184 -256h-155l228 379h227z" />
    <glyph glyph-name="udieresis" unicode="&#xfc;" horiz-adv-x="1343" 
d="M671 -31q-131 0 -229 34.5t-167 102.5q-78 78 -110 186.5t-32 267.5v929h198v-929q0 -103 13 -173.5t51 -126.5q40 -60 108.5 -91t167.5 -31q93 0 165 31t112 91q37 57 50.5 126t13.5 169v934h198v-929q0 -155 -31.5 -266t-110.5 -188q-71 -69 -165.5 -103t-231.5 -34z
M1004 1677h-201v195h201v-195zM591 1677h-201v195h201v-195z" />
    <glyph glyph-name="ydieresis" unicode="&#xff;" horiz-adv-x="1020" 
d="M1014 1117l-601 -1529h-201l200 466l-406 1063h203l305 -827l304 827h196zM829 1304h-201v195h201v-195zM416 1304h-201v195h201v-195z" />
    <glyph glyph-name="uni2260" unicode="&#x2260;" horiz-adv-x="1490" 
d="M1298 362h-568l-105 -335h-153l105 335h-385v156h434l84 268h-518v156h566l105 335h153l-105 -335h387v-156h-436l-83 -268h519v-156z" />
    <glyph glyph-name="Euro" unicode="&#x20a0;" horiz-adv-x="1118" 
d="M945 662l-27 -138h-620q44 -170 146 -268q116 -112 290 -112q187 0 324 92h14v-193q-170 -70 -339 -70q-274 0 -444 158q-154 143 -203 393h-114l28 138h69q-3 40 -3 81q0 29 1 57h-95l28 138h83q46 262 207 414q174 164 446 164q178 0 336 -71v-195h-16q-141 97 -322 97
q-184 0 -302 -123q-101 -106 -140 -286h709l-27 -138h-700q-2 -28 -2 -57q0 -41 3 -81h670z" />
    <glyph glyph-name="Scaron" unicode="&#x160;" horiz-adv-x="1141" 
d="M566 -27q-162 0 -275.5 33.5t-213.5 82.5v248h14q98 -92 222 -142.5t239 -50.5q164 0 248 68.5t84 180.5q0 89 -44 145t-140 83q-69 20 -126 33t-143 35q-77 20 -138 51t-108 81q-46 49 -71.5 115.5t-25.5 153.5q0 181 141 303.5t360 122.5q125 0 236.5 -25t206.5 -71
v-237h-15q-71 65 -182 113.5t-233 48.5q-138 0 -223 -64.5t-85 -169.5q0 -95 50 -151t145 -82q63 -17 154 -38.5t151 -39.5q154 -47 225 -142t71 -234q0 -87 -35.5 -172t-99.5 -144q-72 -65 -162.5 -100t-226.5 -35zM930 2049l-228 -379h-227l-228 379h159l185 -256l184 256
h155z" />
    <glyph glyph-name="scaron" unicode="&#x161;" horiz-adv-x="914" 
d="M438 -27q-112 0 -209.5 30t-161.5 64v211h10q24 -19 56.5 -42t86.5 -48q48 -22 105.5 -39t119.5 -17q45 0 96 10.5t76 26.5q35 23 50.5 49t15.5 78q0 67 -36.5 101t-129.5 57q-36 9 -94 21t-107 26q-128 37 -186 114.5t-58 187.5q0 151 114 246t303 95q93 0 187 -23
t158 -58v-201h-10q-72 57 -160.5 90t-178.5 33q-93 0 -157 -39t-64 -118q0 -70 38 -104.5t122 -56.5q42 -11 93.5 -21.5t108.5 -24.5q124 -31 186.5 -103t62.5 -196q0 -72 -28.5 -136.5t-83.5 -110.5q-60 -50 -135.5 -76t-189.5 -26zM815 1676l-228 -379h-227l-228 379h159
l185 -256l184 256h155z" />
    <glyph glyph-name="brokenbar" unicode="&#xa6;" horiz-adv-x="783" 
d="M475 758h-167v798h167v-798zM475 -392h-167v798h167v-798z" />
    <glyph glyph-name="twosuperior" unicode="&#xb2;" horiz-adv-x="1010" 
d="M837 828q0 -71 -30 -127.5t-78 -89.5q-53 -37 -114.5 -53t-140.5 -16q-82 0 -153.5 15t-136.5 43v175h17q37 -35 114 -64.5t156 -29.5q84 0 139 36.5t55 108.5t-43.5 107t-147.5 35h-140v139h125q87 0 134.5 38t47.5 104q0 60 -41 95.5t-128 35.5q-66 0 -142.5 -31
t-113.5 -66h-17v175q64 27 139 44t154 17q152 0 237 -70t85 -168q0 -87 -48.5 -143.5t-125.5 -82.5v-8q80 -16 138.5 -70.5t58.5 -148.5z" />
    <glyph glyph-name="threesuperior" unicode="&#xb3;" horiz-adv-x="1010" 
d="M866 566h-681v152q77 59 147.5 113.5t114.5 97.5q106 102 139 159.5t33 138.5q0 69 -43 106.5t-119 37.5q-69 0 -139.5 -30t-111.5 -62h-15v179q63 27 139.5 44t150.5 17q156 0 239.5 -78.5t83.5 -201.5q0 -85 -39.5 -163.5t-147.5 -175.5q-52 -46 -121 -97.5t-123 -92.5
h493v-144z" />
    <glyph glyph-name="onesuperior" unicode="&#xb9;" horiz-adv-x="1010" 
d="M811 566h-555v122h204v568h-212v112q45 0 94 6t74 19q31 16 48.5 38t20.5 62h135v-805h191v-122z" />
    <glyph glyph-name="onequarter" unicode="&#xbc;" horiz-adv-x="2048" 
d="M545 565h-165v681h-209v117q102 0 165 22t72 108h137v-928zM1410 1489l-780 -1489h-165l780 1489h165zM1946 0h-681v143q77 59 147.5 113.5t114.5 97.5q106 102 139 159.5t33 138.5q0 69 -43 106.5t-119 37.5q-69 0 -139.5 -30t-111.5 -62h-15v179q63 27 139.5 44
t150.5 17q156 0 239.5 -78.5t83.5 -201.5q0 -114 -56.5 -193.5t-130.5 -145.5q-56 -49 -122.5 -97.5t-119.5 -88.5h491v-139z" />
    <glyph glyph-name="onehalf" unicode="&#xbd;" horiz-adv-x="2048" 
d="M545 565h-165v681h-209v117q102 0 165 22t72 108h137v-928zM1410 1489l-780 -1489h-165l780 1489h165zM1847 220h-163v-220h-150v220h-455v185l456 539h149v-591h163v-133zM1538 353v400l-343 -400h343z" />
    <glyph glyph-name="threequarters" unicode="&#xbe;" horiz-adv-x="2048" 
d="M793 826q0 -71 -30 -127.5t-78 -89.5q-53 -37 -114.5 -53t-140.5 -16q-82 0 -153.5 15t-136.5 43v175h17q37 -35 114 -64.5t156 -29.5q84 0 139 36.5t55 108.5q0 83 -50 112.5t-141 29.5h-140v139h125q87 0 134.5 38t47.5 104q0 60 -41 95.5t-128 35.5q-66 0 -142.5 -31
t-113.5 -66h-17v175q64 27 139 44t154 17q152 0 237 -70t85 -168q0 -87 -48.5 -143.5t-125.5 -82.5v-8q80 -16 138.5 -70.5t58.5 -148.5zM1500 1489l-780 -1489h-165l780 1489h165zM1903 220h-163v-220h-150v220h-455v185l456 539h149v-591h163v-133zM1594 353v400
l-343 -400h343z" />
    <glyph glyph-name="Eth" unicode="&#xd0;" horiz-adv-x="1430" 
d="M1366 743q0 -204 -82.5 -368t-221.5 -256q-111 -74 -228.5 -96.5t-298.5 -22.5h-343v740h-168v143h168v606h339q210 0 329.5 -31.5t203.5 -86.5q144 -95 223 -252.5t79 -375.5zM1160 746q0 172 -57 293.5t-169 189.5q-79 48 -169 69t-224 21h-151v-436h327v-143h-327
v-570h151q132 0 231 21.5t181 77.5q103 70 155 186.5t52 290.5z" />
    <glyph glyph-name="multiply" unicode="&#xd7;" horiz-adv-x="1490" 
d="M1282 226l-111 -111l-426 430l-426 -430l-111 111l430 426l-430 426l111 111l426 -430l426 430l111 -111l-430 -426z" />
    <glyph glyph-name="Yacute" unicode="&#xdd;" horiz-adv-x="1180" 
d="M1193 1489l-503 -830v-659h-198v638l-503 851h220l384 -657l390 657h210zM891 2049l-273 -374h-149l179 374h243z" />
    <glyph glyph-name="Thorn" unicode="&#xde;" horiz-adv-x="1132" 
d="M1073 588q0 -279 -133.5 -444.5t-337.5 -165.5q-83 0 -147 19t-131 59v-468h-188v1968h188v-556q70 63 155.5 105.5t186.5 42.5q192 0 299.5 -152t107.5 -408zM879 567q0 191 -61 296.5t-198 105.5q-80 0 -154.5 -35.5t-141.5 -91.5v-633q74 -36 126.5 -49t120.5 -13
q146 0 227 107t81 313z" />
    <glyph glyph-name="eth" unicode="&#xf0;" horiz-adv-x="1118" 
d="M1053 637q0 -323 -136 -495.5t-370 -172.5q-214 0 -352 131t-138 384q0 231 137 360.5t324 129.5q100 0 174 -26.5t157 -79.5q-31 112 -97.5 220.5t-145.5 178.5l-262 -161l-66 97l238 143q-82 68 -156 106.5t-161 82.5v21h296q38 -28 79.5 -59t82.5 -60l212 129l66 -97
l-190 -111q130 -130 219 -305.5t89 -415.5zM769 226q46 59 70.5 143.5t24.5 234.5q0 32 -1.5 59.5t-3.5 57.5q-73 46 -150 67t-157 21q-127 0 -213.5 -80t-86.5 -247q0 -180 80 -267t216 -87q64 0 121.5 22t99.5 76z" />
    <glyph glyph-name="yacute" unicode="&#xfd;" horiz-adv-x="1180" 
d="M1193 1489l-503 -830v-659h-198v638l-503 851h220l384 -657l390 657h210zM891 2049l-273 -374h-149l179 374h243z" />
    <glyph glyph-name="thorn" unicode="&#xfe;" horiz-adv-x="1158" 
d="M1095 787q0 -92 -35 -176.5t-95 -141.5q-78 -75 -187.5 -111t-260.5 -36h-168v-322h-198v1489h198v-270h175q133 0 230 -22.5t164 -66.5q83 -53 130 -138t47 -205zM889 782q0 72 -26 125.5t-82 88.5q-48 30 -112 42.5t-154 12.5h-166v-563h137q119 0 195 20.5t123 65.5
q44 41 64.5 92t20.5 116z" />
    <glyph glyph-name="uni25CC" unicode="&#x25cc;" horiz-adv-x="1295" 
d="M675 77q0 24 19 41.5t48 17.5t49.5 -17.5t20.5 -41.5q0 -25 -20.5 -41t-49.5 -16t-48 16t-19 41zM679 1149q0 24 19.5 41.5t47.5 17.5q29 0 49.5 -17.5t20.5 -41.5t-20.5 -41t-49.5 -17q-28 0 -47.5 17t-19.5 41zM642 115q0 -25 -20.5 -41t-49.5 -16t-48 16t-19 41
q0 24 19 41.5t48 17.5t49.5 -17.5t20.5 -41.5zM498 202q0 -24 -20.5 -40.5t-48.5 -16.5q-29 0 -48.5 16.5t-19.5 40.5t19.5 41.5t48.5 17.5q28 0 48.5 -17.5t20.5 -41.5zM400 331q0 -25 -20.5 -41t-49.5 -16q-28 0 -45.5 16t-17.5 41q0 24 17.5 41.5t45.5 17.5
q29 0 49.5 -17.5t20.5 -41.5zM347 470q0 -25 -20.5 -41.5t-49.5 -16.5q-28 0 -47.5 16.5t-19.5 41.5t19.5 42.5t47.5 17.5q29 0 49.5 -17.5t20.5 -42.5zM324 613q0 -13 -7 -23.5t-18 -18t-25 -12t-27 -4.5q-29 0 -39.5 16.5t-10.5 41.5t10.5 42t39.5 17q13 0 27 -4.5
t25 -12.5t18 -18.5t7 -23.5zM347 752q0 -24 -20.5 -41t-49.5 -17q-28 0 -47.5 17t-19.5 41t19.5 41.5t47.5 17.5q29 0 49.5 -17.5t20.5 -41.5zM404 892q0 -25 -20.5 -41.5t-48.5 -16.5q-29 0 -49.5 16.5t-20.5 41.5q0 23 20.5 40.5t49.5 17.5q28 0 48.5 -17.5t20.5 -40.5z
M496 1020q0 -25 -20.5 -41t-48.5 -16q-29 0 -48.5 16t-19.5 41t19.5 42.5t48.5 17.5q28 0 48.5 -17.5t20.5 -42.5zM638 1113q0 -25 -19.5 -41.5t-48.5 -16.5t-49.5 16.5t-20.5 41.5q0 23 20.5 40.5t49.5 17.5t48.5 -17.5t19.5 -40.5zM842 115q0 24 19.5 41.5t48.5 17.5
t49.5 -17.5t20.5 -41.5q0 -25 -20.5 -41t-49.5 -16t-48.5 16t-19.5 41zM986 202q0 24 19.5 41.5t47.5 17.5q29 0 49.5 -17.5t20.5 -41.5t-20.5 -40.5t-49.5 -16.5q-28 0 -47.5 16.5t-19.5 40.5zM1084 331q0 24 19.5 41.5t48.5 17.5q28 0 48.5 -17.5t20.5 -41.5
q0 -25 -20.5 -41t-48.5 -16q-29 0 -48.5 16t-19.5 41zM1137 470q0 25 19.5 42.5t48.5 17.5t49.5 -17.5t20.5 -42.5t-20.5 -41.5t-49.5 -16.5t-48.5 16.5t-19.5 41.5zM1150 613q0 25 19.5 42t47.5 17q29 0 49.5 -17t20.5 -42t-20.5 -41.5t-49.5 -16.5q-28 0 -47.5 16.5
t-19.5 41.5zM1137 752q0 24 19.5 41.5t48.5 17.5t49.5 -17.5t20.5 -41.5t-20.5 -41t-49.5 -17t-48.5 17t-19.5 41zM1080 892q0 23 19.5 40.5t48.5 17.5q28 0 48.5 -17.5t20.5 -40.5q0 -25 -20.5 -41.5t-48.5 -16.5q-29 0 -48.5 16.5t-19.5 41.5zM988 1020q0 25 19.5 41.5
t47.5 16.5q29 0 49.5 -16.5t20.5 -41.5t-20.5 -41t-49.5 -16q-28 0 -47.5 16t-19.5 41zM847 1113q0 23 19.5 40.5t47.5 17.5q29 0 48.5 -17.5t19.5 -40.5q0 -25 -19.5 -41.5t-48.5 -16.5q-28 0 -47.5 16.5t-19.5 41.5z" />
    <glyph glyph-name="uni200B" unicode="&#x200b;" 
 />
    <glyph glyph-name="uni200C" unicode="&#x200c;" horiz-adv-x="44" 
d="M0 0v1100h44v-1100h-44z" />
    <glyph glyph-name="uni200D" unicode="&#x200d;" horiz-adv-x="42" 
d="M126 1025l-84 84v-1109h-42v1107l-82 -82l-28 30l104 104l-104 104l28 30l104 -104l104 104l30 -30l-106 -104l106 -104z" />
    <glyph glyph-name="uni1780" unicode="&#x1780;" horiz-adv-x="2600" 
d="M1635 807q34 6 221 87l272 132q165 -73 440 -242l54 -42v-700l-81 -62h-22q-173 138 -189 157v57q18 18 145 98q18 36 18 110v8q-3 136 -5 136q-145 114 -473 252q-151 -25 -315 -128v-624q-75 -66 -106 -66l-186 153v65q143 93 145 95q16 42 16 105v23l-3 133
q-106 87 -274 167l-204 95q-114 -14 -345 -146v-351q182 -13 182 -34l22 -226q-53 -61 -53 -79q-45 0 -124 68q-128 100 -164 134v548q16 16 270 149l270 144q100 -4 489 -216zM1306 1423h17q208 -148 360 -212q216 58 512 181l86 35q203 -129 394 -221q73 -33 159 -64v-20
q-56 -133 -171 -133q-100 0 -481 212l-36 15q-146 -20 -494 -217q-76 9 -394 174l-111 57q-90 -18 -387 -185l61 -88q-39 -14 -200 -33l-146 136v23q505 203 831 340z" />
    <glyph glyph-name="uni1780.sub2" unicode="&#x223;" 
d="M-1366 -1080q83 -3 394 -172h-5q17 0 177 69l219 106q134 -59 354 -195l45 -35v-561l-68 -52h-21q-140 111 -154 128v48q16 16 116 79q14 27 14 86v6q-3 104 -1 104q-117 92 -376 201q-117 -19 -245 -100v-497q-63 -55 -92 -55l-151 124v56q115 75 116 75q12 33 12 82v19
q-2 102 1 102q-86 70 -219 134l-162 75q-87 -11 -269 -115v-274q146 -10 146 -30l17 -182q-42 -49 -42 -66q-43 0 -108 55q-102 80 -132 109v440q14 14 218 121z" />
    <glyph glyph-name="uni178017C5.sechalf" unicode="&#x225;" horiz-adv-x="3542" 
d="M3444 1122l18 459q-17 39 -109 46l81 121q94 -34 137 -115l15 -599l2 -873l2 -115l-82 -64h-22l-185 151v63q19 19 156 105l3 59v96q0 117 -15 411q-174 100 -617 287l-197 76q-263 -55 -546 -140q-199 -62 -293 -101q-251 120 -412 187q-116 41 -194 64
q-239 -54 -436 -192l57 -95h-40l-153 -19l-139 127v23q477 206 794 333l30 7q194 -66 469 -177q80 -35 153 -56q151 26 445 111l409 123q294 -147 669 -303zM1146 1023q100 -4 490 -216h-5q24 0 225 87l272 132q165 -73 440 -242l54 -42v-700l-81 -62h-22q-173 138 -189 157
v57q18 18 145 98q18 36 18 110v8q-3 136 -5 136q-145 114 -473 252q-151 -25 -315 -128v-624q-75 -66 -106 -66l-186 153v65q143 93 145 95q16 42 16 105v23l-3 133q-106 87 -274 167l-204 95q-114 -14 -345 -146v-351q182 -13 182 -34l22 -226q-53 -61 -53 -79
q-45 0 -124 68q-128 100 -164 134v548q16 16 270 149z" />
    <glyph glyph-name="uni1781" unicode="&#x1781;" horiz-adv-x="1764" 
d="M1104 1423q327 0 518 -196q81 -93 105 -200q14 -59 14 -97l-617 -523l141 -140q12 -5 21 -5q33 6 66 44q244 372 345 544q10 28 10 65v1q0 29 -38 194h44q37 -45 62 -116q26 -78 26 -163q0 -75 -481 -766l-71 -99l-395 368q381 328 642 541q67 65 67 103v13
q-6 52 -92 149q-92 83 -194 114q-75 33 -190 33q-182 0 -316 -87q-88 -64 -116 -140q-30 -65 -30 -128q0 -78 89 -139q26 -13 53 -13h5q51 0 71 67q5 19 5 42q0 52 -72 72q-11 9 -70 27v23q54 47 158 47q71 0 121 -74q21 -40 21 -73v-20q0 -122 -107 -203q-80 -50 -143 -50
q-56 0 -134 38q-52 34 -89 90q-58 100 -58 190q0 174 191 333q177 134 438 134z" />
    <glyph glyph-name="uni1781.sub2" unicode="&#x228;" 
d="M-656 -1088q235 0 374 -114q60 -55 78 -118q11 -36 11 -63l-435 -294l90 -71q6 -2 12 -2q22 3 42 22q175 211 246 308q6 14 6 34q0 16 -44 170q88 -79 107 -122q19 -46 19 -96q0 -46 -347 -443l-54 -62l-297 222q283 193 469 315q44 34 44 51v7q-4 27 -62 78
q-64 47 -136 64q-54 19 -135 19q-130 0 -224 -49q-60 -34 -79 -75q-20 -36 -20 -70q0 -39 58 -71q18 -7 36 -7h4q32 0 44 32q3 9 3 21q0 24 -45 33q-8 5 -57 18v24q45 31 120 31q53 0 91 -45q18 -26 18 -48v-11q0 -75 -81 -125q-59 -28 -105 -28q-40 0 -98 22q-39 21 -67 55
q-43 59 -43 113q0 104 141 198q128 77 316 77z" />
    <glyph glyph-name="uni178117C5.sechalf" unicode="&#x230;" horiz-adv-x="2800" 
d="M1726 1033q10 -32 16 -102l-618 -523l142 -140q10 -5 23 -5q18 0 61 42q246 376 347 546q9 26 9 70q0 25 -19 105h27zM2828 1021v-986q-80 -55 -106 -55l-183 143v54q0 11 168 121q-8 0 -8 54q0 161 -23 471q-64 54 -194 137q-286 189 -415 260q-71 -17 -315 -171
q49 -95 49 -210v-5q0 -75 -444 -718l-109 -149l-394 366q292 253 562 477q60 45 114 101q32 41 32 68v7q-3 48 -75 137q-59 60 -106 84q-140 78 -272 78l-24 2q-184 0 -319 -90q-93 -65 -128 -181q-13 -42 -13 -81q0 -85 91 -143q25 -12 51 -12h2q62 0 77 88l2 22
q0 50 -68 71q-27 13 -74 27v23q54 47 158 47q71 0 121 -74q22 -42 22 -87q0 -117 -96 -200q-84 -58 -157 -58q-58 0 -142 42q-54 45 -72 76q-65 103 -65 194q0 184 196 341q175 131 433 131q330 0 523 -202q58 -76 58 -54q439 225 513 260l489 -308l17 462q-17 39 -109 46
l81 121q94 -34 137 -115z" />
    <glyph glyph-name="uni1782" unicode="&#x1782;" horiz-adv-x="1936" 
d="M1643 1423l436 -255l9 -9v-11q-17 -52 -57 -81q-25 -19 -94 -31l-15 -1q-21 0 -318 176l-34 21q1 1 -287 -182l-422 204l-175 -143q55 -83 55 -114h-30q-155 41 -174 49l-73 68l480 310l154 -77q207 -105 241 -105h1q18 0 154 91l131 90h18zM1328 983l633 -263v-675
l-80 -64h-23l-185 151v64l143 93q16 30 16 103q0 61 -16 151q-36 38 -314 153q-140 59 -272 102q-47 14 -54 14q-103 -6 -443 -168l-19 -350l21 -10l60 131l343 131l-231 -238l-19 -117l23 -115l-49 -114q-249 210 -261 224v517q10 16 108 50q600 230 612 230h7z" />
    <glyph glyph-name="uni1782.sub2" unicode="&#x233;" 
d="M-609 -1062l530 -220v-566l-69 -55h-23l-156 128v56l120 78q12 23 12 83q0 51 -13 125q-29 30 -259 126q-117 49 -226 84q-39 12 -44 12q-85 -5 -365 -139l-15 -287l11 -5l48 106l303 116l-202 -209l-16 -96l20 -96l-44 -100q-213 179 -223 191v432q8 15 92 44
q501 192 512 192h7z" />
    <glyph glyph-name="uni178217C5.sechalf" unicode="&#x235;" horiz-adv-x="2943" 
d="M2817 1100l19 481q-17 39 -109 46l81 121q94 -34 137 -115l21 -633v-950l-91 -79l-195 166v65l155 103l4 102q0 124 -16 458q-269 145 -523 268q-172 79 -183 79q-105 -32 -227 -83l-365 -159q-71 49 -193 123q-190 107 -278 122q-127 -42 -213 -93q-58 -33 -92 -63v9
q6 -18 65 -78v-27q-165 -17 -195 -17l-157 143q285 147 559 266q91 38 166 59l353 -179q52 -27 91 -36q188 56 487 180q99 41 119 41q291 -150 580 -320zM1328 983l633 -263v-675l-80 -64h-23l-185 151v64l143 93q16 30 16 103q0 61 -16 151q-36 38 -314 153
q-140 59 -272 102q-47 14 -54 14q-103 -6 -443 -168l-19 -350l21 -10l60 131l343 131l-231 -238l-19 -117l23 -115l-49 -114q-249 210 -261 224v517q10 16 108 50q600 230 612 230h7z" />
    <glyph glyph-name="uni1783" unicode="&#x1783;" horiz-adv-x="3039" 
d="M1812 1423h28q187 -150 212 -150q22 -5 60 -5h59l3 -2h31q-94 -172 -226 -172q-64 4 -152 49l-34 22l-45 -50q81 -17 143 -78q83 -87 111 -155q35 -104 35 -192l11 -277l298 -332q306 16 365 36q23 0 78 75q67 76 170 220q0 301 -12 301q-29 88 -81 162q-75 101 -143 101
q-27 0 -81 -15q-92 44 -97 65l306 409q205 -162 228 -162q21 -5 59 -5h62l25 -20q-89 -152 -211 -152h-9q-79 0 -184 68h1l-46 -47q46 -7 126 -65q161 -141 161 -362l9 -489l-236 -268h-569q-24 0 -80 60l-198 181l-196 -241h-685l-390 465q139 296 139 334q19 45 30 107
l-167 268q-32 -34 -32 -50q0 1 59 -24q32 -37 32 -87q0 -69 -95 -78l-20 -3q-139 14 -139 35l-50 111v10l291 420q46 -73 277 -570l-152 -459l383 -345h-1q366 0 423 71q102 113 239 278q-7 286 -9 286q-64 174 -152 242q-44 32 -78 32q-49 -4 -77 -16q-99 46 -99 67z" />
    <glyph glyph-name="uni1783.sub2" unicode="&#x238;" horiz-adv-x="802" 
d="M569 -1648v2552q-66 85 -129 85q-49 -3 -78 -15l-106 52q255 345 309 408q189 -148 219 -155q15 -6 62 -6h61l21 -21q-85 -148 -213 -148q-91 8 -184 69l2 -1q-16 -16 -43 -47q74 -14 134 -71q66 -64 91 -112v-2715l-160 -154h-366q-18 0 -56 36l-118 95l-122 -131h-442
l-255 267q91 168 91 188q12 27 18 57l-98 137q-9 -8 -9 -14q0 7 33 -5q24 -26 24 -57q0 -46 -68 -52l-12 -2q-99 9 -99 26l-32 62v11l194 246q36 -51 185 -332l-96 -253l239 -189l-3 2q224 0 258 37q64 63 149 152q-4 147 -2 147q-42 101 -96 137q-25 16 -44 16
q-30 -2 -49 -9q-72 29 -72 50l190 226h25q118 -84 132 -84q13 -2 37 -2h44l2 -2h29q-70 -113 -159 -113q-43 2 -100 28l-16 10l-12 -12q37 -7 78 -43q55 -50 73 -89q23 -59 23 -110l7 -151l183 -180l216 19z" />
    <glyph glyph-name="uni178317C5.sechalf" unicode="&#x242;" horiz-adv-x="4078" 
d="M4104 1027v-981q-78 -66 -108 -66l-179 147l-8 8v62q17 19 160 109l6 104q-11 373 -26 373q-5 51 -41 94l-644 375l-361 -174q87 -84 106 -132q31 -78 45 -143l10 -549q-188 -222 -238 -272h-582l-239 222q0 43 -216 -222h-680q-36 36 -392 465q73 152 107 236
q61 171 61 201l-168 267q-29 -30 -29 -49v4q3 -3 63 -31q27 -42 27 -80q0 -49 -52 -72q-31 -11 -62 -11q-142 12 -142 37q-47 103 -47 119q62 86 272 396h32q30 -46 263 -548l-153 -456l382 -343h11q295 0 391 53q111 114 256 294l-6 269q-22 110 -122 230q-60 59 -110 59
q-48 -4 -76 -16l-98 46v21l292 393h26q189 -149 207 -149q26 -4 63 -4h11l8 -2l11 2h33l2 -2h28q-88 -171 -224 -171q-71 0 -182 67l-3 2l-63 -67v25h-21q70 -8 150 -59q119 -97 151 -214q29 -67 29 -239q7 -182 -1 -182l308 -342q380 16 380 44q88 91 171 207l59 78l-7 283
q-29 117 -100 175q-48 39 -83 39h-26q-31 0 -131 -46l-69 118q383 223 619 337q214 104 238 104q448 -271 571 -347l18 458q-17 39 -109 46l81 121q94 -34 137 -115z" />
    <glyph glyph-name="uni178317C5.sub1sechalf" unicode="&#x243;" horiz-adv-x="1620" 
d="M1649 50q-75 -66 -104 -66l-183 150v63q33 28 155 102l5 114q-6 424 -1 424q-304 219 -507 333l-32 17q-135 -55 -318 -157q0 -1 50 -209v-1694l-159 -154h-366q-18 0 -56 36l-118 95l-122 -131h-442l-255 267q91 168 91 188q12 27 18 57l-98 137q-9 -8 -9 -14q0 7 33 -5
q24 -26 24 -57q0 -46 -68 -52l-12 -2q-99 9 -99 26l-32 62v11l194 246q36 -51 185 -332l-96 -253l239 -189l-3 2q224 0 258 37q64 63 149 152q-4 147 -2 147q-42 101 -96 137q-25 16 -44 16q-30 -2 -49 -9q-72 29 -72 50l190 226h25q118 -84 132 -84q13 -2 37 -2h44l2 -2h29
q-70 -113 -159 -113q-43 2 -100 28l-16 10l-12 -12q37 -7 78 -43q55 -50 73 -89q23 -59 23 -110l7 -151l183 -180l217 19l110 160v1544q-11 52 -44 85q-27 17 -47 17h-29q-14 0 -58 -17l-79 108q27 26 281 172q382 225 470 265q251 -137 449 -269l16 423q-17 39 -109 46
l81 121q94 -34 137 -115l11 -576v-1006z" />
    <glyph glyph-name="uni178317C5.sub2sechalf" unicode="&#x244;" horiz-adv-x="1625" 
d="M1651 50q-75 -66 -104 -66l-183 150v63q33 28 155 102l5 114q-6 424 -1 424q-304 219 -507 333l-32 17q-135 -55 -318 -157q0 -1 49 -209v-2594l-160 -154h-366q-18 0 -56 36l-118 95l-122 -131h-442l-255 267q91 168 91 188q12 27 18 57l-98 137q-9 -8 -9 -14q0 7 33 -5
q24 -26 24 -57q0 -46 -68 -52l-12 -2q-99 9 -99 26l-32 62v11l194 246q36 -51 185 -332l-96 -253l239 -189l-3 2q224 0 258 37q64 63 149 152q-4 147 -2 147q-42 101 -96 137q-25 16 -44 16q-30 -2 -49 -9q-72 29 -72 50l190 226h25q118 -84 132 -84q13 -2 37 -2h44l2 -2h29
q-70 -113 -159 -113q-43 2 -100 28l-16 10l-12 -12q37 -7 78 -43q55 -50 73 -89q23 -59 23 -110l7 -151l183 -180l216 19l110 160v2445q-8 51 -41 84q-27 17 -47 17h-29q-14 0 -58 -17l-79 108q27 26 281 172q382 225 470 266q250 -138 448 -270l15 423q-17 39 -109 46
l81 121q94 -34 137 -115l13 -576v-1006z" />
    <glyph glyph-name="uni1784" unicode="&#x1784;" horiz-adv-x="1800" 
d="M1066 1358h63q-120 0 -209 71q-55 56 -55 118q0 91 84 131l51 8q88 0 122 -98l2 -18q0 -39 -16 -60q45 -17 94 -17h2q116 0 232 79q107 102 139 175q51 106 51 135l-7 91q56 48 100 48l4 -79v-2q0 -236 -197 -431q-95 -94 -187 -118q10 -3 154 -74q335 -196 335 -363
q0 -99 -83 -184q-79 -64 -186 -64q-72 6 -152 66q-38 46 -38 96v5q0 36 32 55l46 46h23q92 -61 116 -61q38 0 57 52l1 4q0 76 -193 201q-77 49 -281 128q-129 -31 -407 -222q19 -34 246 -334v-23q-55 -24 -171 -149q-56 -62 -107 -132q188 -206 209 -206q54 0 288 225h25
q269 -237 300 -249q33 0 157 235q-20 53 -20 86t49 66q87 0 96 -100l4 -61l-332 -465l-357 258h15l-317 -257q-240 234 -380 375q353 333 353 354l-325 321q394 249 570 338z" />
    <glyph glyph-name="uni1784.sub2" 
d="M-247 -1084h4q25 0 54 -25q0 -31 -109 -261q-58 -115 -146 -225q-129 -134 -215 -200q-115 -90 -162 -117l-217 250v14q115 206 128 218q74 59 124 59h13q50 0 95 -69q8 -18 8 -36q0 -64 -79 -97q-11 -6 -31 -6h-2q-47 0 -74 33q-6 0 -22 -81q23 -67 86 -100q25 0 25 10
q67 28 275 253q96 115 131 242q45 138 114 138z" />
    <glyph glyph-name="uni178417C5.sechalf" horiz-adv-x="2813" 
d="M1065 1358h64q-120 0 -209 71q-55 56 -55 118q0 91 84 131l51 8q88 0 122 -98l2 -18q0 -39 -16 -60q45 -17 94 -17h2q116 0 232 79q107 102 139 175q51 106 51 135l-7 91q56 48 100 48l4 -79v-2q0 -236 -197 -431q-99 -97 -192 -120q102 -27 312 -179l54 -46
q466 241 517 263q384 -242 490 -310l17 463q-17 39 -109 46l81 121q94 -34 137 -115l13 -614v-983l-84 -55h-23l-183 143v64q149 98 158 103l3 58q0 185 -24 476q-151 118 -525 348l-84 47q-65 -12 -299 -167v12q35 -50 35 -94v-17q0 -97 -83 -184q-84 -60 -166 -60h-16
q-78 0 -164 76q-27 42 -27 85q0 44 24 52l54 51h24q90 -60 114 -60q39 0 56 51v14q0 39 -97 125q-108 83 -191 116q-126 59 -184 77h7q-173 -51 -414 -227q0 3 231 -298l20 -30v-19q-116 -68 -272 -272l-7 -10q190 -204 206 -204h8q48 0 281 225h25q281 -248 291 -248h4
q37 0 160 234q-19 46 -19 73v8q0 39 51 72q82 -19 82 -59q13 -47 13 -103l-330 -463l-355 256h17l-305 -245h-24l-366 362q332 314 350 353l-312 308v21q492 297 559 328z" />
    <glyph glyph-name="uni1785" unicode="&#x1785;" horiz-adv-x="1871" 
d="M1598 1423q44 -57 209 -218q46 -40 164 -123l5 -24v-9q0 -50 -53 -72l-36 -6q-59 0 -293 191l-61 48l-257 -255h-25l-341 280h17q-281 -224 -272 -224v35q-9 0 351 -286l-314 -309l331 -316l25 -23q465 0 515 31q112 58 163 185q14 50 14 80v15q0 29 -22 41
q-31 -18 -57 -18h-13q-86 0 -109 89v10q0 80 108 133q31 9 60 9q124 0 181 -147q9 -38 9 -82q0 -127 -82 -273q-128 -155 -247 -205h-228l-502 3l-369 414l280 293l-264 292v16l332 304q117 108 143 108q292 -214 322 -214q47 0 283 227h33z" />
    <glyph glyph-name="uni1785.sub2" 
d="M-508 -1078q66 0 88 -61l4 -36v-14q0 -71 -54 -165q-25 -45 -245 -249q-45 -39 -49 -46q20 -30 127 -143q72 54 120 100q-48 33 -48 97v2q0 94 104 130h16q76 0 117 -80l1 -14v-17q0 -45 -20 -72l-15 1q44 2 66 8q44 0 55 -50q0 -68 -82 -68h-37q-35 0 -76 14l-232 -234
h-27l-283 284q150 116 248 214q107 115 135 186q16 51 16 60q-17 24 -17 69q0 50 49 78zM-465 -1571v-15q0 -24 30 -42h-19q25 27 25 49q-2 28 -22 28h-4q-7 0 -10 -20z" />
    <glyph glyph-name="uni178517C5.sechalf" horiz-adv-x="2826" 
d="M2716 1103l18 478q-17 39 -109 46l81 121q94 -34 137 -115l13 -636v-956l-83 -61h-22q-172 137 -187 155v62l159 105l3 87v37q0 190 -14 384q-24 43 -116 109q-261 167 -493 276q-140 0 -435 -212q-24 -17 -58 -34q-529 244 -594 244q-104 0 -300 -146l-26 -25
q289 -223 318 -250q-223 -213 -316 -306l356 -340h-9q465 0 519 28q104 53 155 154q29 61 29 118v9q0 34 -33 47h14q-28 -22 -71 -22q-79 0 -110 78l-1 22q0 76 104 131q37 11 61 11q118 0 181 -137q11 -44 11 -87q0 -133 -78 -273q-59 -86 -172 -168l-69 -43l-347 2h-389
q-52 53 -374 414l282 294l-276 305q610 386 660 414h17q357 -187 459 -233q15 -5 35 -5q158 0 558 238h19z" />
    <glyph glyph-name="uni1786" unicode="&#x1786;" horiz-adv-x="1884" 
d="M993 1434q273 -273 264 -273q34 8 234 202l42 38h26l352 -347v-11q-19 -96 -95 -96h-12q-60 0 -88 42l-235 201l-262 -229h-26l-284 230q-49 -21 -116 -75q-76 -77 -84 -123l-1 -1l96 -69l7 -627h355q22 0 99 -72q116 -105 114 -105q48 -7 85 -7h34q173 0 266 210
q7 14 7 37v17q0 98 -39 140h9q3 0 -11 -25q-41 -38 -89 -38q-93 0 -139 108l-2 38q0 81 91 113l46 6q138 0 228 -141q41 -77 41 -201q0 -107 -49 -221l-205 -175h-421q-131 150 -180 170q-58 41 -128 41q-37 7 -110 11v-158q-8 -15 -94 -64h-22l-222 200v98l18 18h106l65 2
v484l-189 165v17q77 75 518 470z" />
    <glyph glyph-name="uni1786.sub2" 
d="M-1071 -1056l103 -74l6 -507h301l166 -146q20 -5 56 -5h37q132 0 208 172l5 35q0 77 -31 116q17 0 9 -16q-34 -36 -76 -36h-2q-95 0 -122 105v16q0 73 83 98l33 3h6q119 0 192 -131q26 -64 26 -151q0 -83 -40 -181l-171 -146h-344q-146 173 -239 173q-74 8 -118 8h23
v-124q-9 -16 -79 -55h-23l-183 164v82l15 19h138v389q-153 77 -153 94q6 15 174 98z" />
    <glyph glyph-name="uni178617C5.sechalf" horiz-adv-x="2858" 
d="M2895 1000v-957q-83 -63 -107 -63l-184 151v67l157 103l4 110q0 189 -14 399q-11 25 -81 81q-177 127 -466 275l-60 30q-82 -6 -207 -67q-93 -49 -285 -182q-526 244 -599 247q-95 -5 -263 -121q-41 -30 -42 -32q-39 0 63 -83v-661h355q22 0 84 -62l134 -117
q47 -8 100 -8q143 0 220 110q62 76 68 135v15q0 96 -40 146q14 0 12 -8q-41 -56 -95 -56h-9q-83 0 -131 90q-10 34 -10 50q0 86 88 116q22 6 46 6h11q132 0 224 -142q37 -84 37 -184v-4q0 -125 -49 -231l-205 -173h-420q-120 137 -170 164q-65 46 -132 46q-53 9 -118 11
v-165q-91 -56 -116 -56l-220 198v102l17 17l165 3v488l-182 189v20l704 430l383 -196q86 -46 115 -46h13q134 0 475 192q75 46 98 46l488 -318l18 476q-17 39 -109 46l81 121q94 -34 137 -115z" />
    <glyph glyph-name="uni1787" unicode="&#x1787;" horiz-adv-x="1900" 
d="M1700 1631h12q129 0 180 -86q29 -35 33 -68v-444q-69 -161 -83 -180l-121 -41h-41q85 209 85 251q0 24 -154 144l-73 60l-575 28l-297 -258q33 -23 334 -263v-18l-305 -300q221 -236 241 -242q54 0 287 278l339 -268q184 202 184 207q24 123 53 123l47 17h30l22 -193
l-310 -411l-378 327l-338 -314h-26l-371 413v16l277 288l-268 294v15l454 420h630q91 -56 226 -185q13 44 13 129v5q0 145 -146 218v33z" />
    <glyph glyph-name="uni1787.sub2" 
d="M-392 -1060q189 0 250 -172l19 -63l78 52l30 8q42 0 74 -44q-123 -119 -187 -157q-2 -44 -64 -193q-70 -152 -278 -233q-44 -16 -71 -16l-268 294l-226 -290h-28q-176 179 -233 267q-26 38 -30 60q76 100 204 251l-70 69v14q98 125 113 125l8 2q42 0 83 -37
q35 -53 35 -74v-6q0 -84 -162 -251q-36 -39 -47 -57q29 -52 97 -126q51 -48 72 -58h-13q29 22 66 74q89 122 166 215h34q205 -298 311 -298q68 0 122 164q15 45 15 26q-30 -12 -78 -12q-161 0 -219 152q-11 37 -11 68v25q0 122 98 191q51 30 110 30zM-453 -1287
q0 -75 76 -102q16 -5 34 -5q30 0 63 13q0 135 -84 159l-21 4q-46 0 -64 -47z" />
    <glyph glyph-name="uni178717C5.sechalf" horiz-adv-x="2900" 
d="M2925 1000v-965q-79 -55 -108 -55l-181 143v61q19 19 155 105l4 82q0 150 -23 452q-54 47 -219 154q-375 243 -388 243q-53 -5 -291 -180v3l41 28l-1 -39q-67 -165 -79 -181l-123 -43h-32v25q77 178 77 226q-1 21 -153 143q-69 56 -77 60l-565 28q-320 -276 -309 -276v24
q146 -111 354 -275l-316 -308q204 -223 245 -239h1q51 0 271 263h25l336 -265h-21l188 216q24 99 35 114l93 35q25 -169 25 -201l-309 -409l-377 326l-347 -325q-117 124 -381 422v16l275 286l-266 293v15l450 417h626q88 -56 241 -197q6 -10 -17 9q15 58 15 141
q0 137 -144 213v18l14 19h53q110 0 167 -93q27 -34 36 -48v-245l-30 -15l398 206q388 -243 493 -310l17 464q-17 39 -109 46l81 121q94 -34 137 -115z" />
    <glyph glyph-name="uni1788" unicode="&#x1788;" horiz-adv-x="3470" 
d="M2294 1423h27q183 -146 204 -146l95 -5l22 1l27 -13q-85 -155 -205 -155h-2q-85 0 -188 68l3 -2l-37 -39q11 0 107 -63q77 -69 104 -116q62 -113 62 -239l10 -264l289 -325q368 18 368 40q97 104 208 260l15 21q-8 268 -11 283q-26 76 -72 151q-75 110 -156 110
q-15 0 -71 -14q-92 44 -92 63l284 384h26q182 -146 202 -146l95 -5l32 2l13 -25q-53 -99 -136 -132q-37 -12 -63 -12h-7q-72 0 -173 62q-17 14 0 14l-45 -49q8 0 104 -59q89 -79 122 -144q46 -112 46 -193l13 -493l-229 -263h-567l-253 236q-171 -218 -193 -236h-657
q-99 113 -381 454l201 409q-148 130 -439 368l-373 -292l-13 -602l176 -16l24 -241l-66 -78h-25q-233 186 -244 202v785l585 460l587 -552v-14l-242 -419l371 -333q276 0 379 48q88 83 163 177l95 114q-7 266 -5 266q-104 274 -234 274q-15 0 -71 -14q-88 42 -94 61z" />
    <glyph glyph-name="uni1788.sub2" horiz-adv-x="800" 
d="M710 -1770l-146 -150h-363l-153 131q-102 -117 -117 -131h-420q-65 67 -245 267l124 232q-86 70 -263 201l-224 -160l-8 -331l110 -9l16 -149l-47 -50h-24q-148 109 -158 121v456l376 269l376 -322v-15l-149 -234l224 -184q167 0 229 26q53 45 100 100l57 61
q-4 141 -1 141q-65 157 -139 157q-9 0 -46 -8q-56 24 -72 40l188 232h24q115 -83 126 -83l60 -3h50q-68 -113 -149 -113h-1q-56 0 -123 41l8 -6l-2 -2q-13 0 50 -38q50 -40 68 -68q40 -68 40 -141l6 -148l174 -179l228 28l77 112l-1 2583q-66 85 -129 85q-49 -3 -78 -15
l-106 52q255 345 309 408q189 -148 219 -155q15 -6 62 -6h61l21 -21q-85 -148 -213 -148q-91 8 -184 69l2 -1q-16 -16 -43 -47q74 -14 134 -71q66 -65 85 -113v-2711z" />
    <glyph glyph-name="uni178817B6.sub1" horiz-adv-x="1631" 
d="M570 -779l6 1575q-11 52 -44 85q-27 17 -47 17h-29q-14 0 -58 -17l-79 108q27 26 281 172q382 225 470 266q294 -162 588 -362l-3 -475v-540q-75 -66 -104 -66l-183 150v63q33 28 155 102l5 114q-6 424 -1 424q-304 219 -507 333l-32 17q-135 -55 -318 -157q0 -1 50 -209
l-13 -1691l-144 -150h-363l-153 131q-102 -117 -117 -131h-420q-65 67 -245 267l124 232q-86 70 -263 201l-224 -160l-8 -331l110 -9l16 -149l-47 -50h-24q-148 109 -158 121v456l376 269l376 -322v-15l-149 -234l224 -184q167 0 229 26q53 45 100 100l57 61q-4 141 -1 141
q-65 157 -139 157q-9 0 -46 -8q-56 24 -72 40l188 232h24q115 -83 126 -83l60 -3h50q-68 -113 -149 -113h-1q-56 0 -123 41l8 -6l-2 -2q-13 0 50 -38q50 -40 68 -68q40 -68 40 -141l6 -148l174 -179l228 28z" />
    <glyph glyph-name="uni178817B6.sub2" horiz-adv-x="1636" 
d="M571 -1679l6 2475q-11 52 -44 85q-27 17 -47 17h-29q-14 0 -58 -17l-79 108q27 26 281 172q382 225 470 266q294 -162 585 -362v-1015q-75 -66 -104 -66l-183 150v63q33 28 155 102l5 114q-6 424 -1 424q-304 219 -507 333l-32 17q-135 -55 -318 -157q0 -1 50 -209
l-13 -2591l-144 -150h-363l-153 131q-102 -117 -117 -131h-420q-65 67 -245 267l124 232q-86 70 -263 201l-224 -160l-8 -331l110 -9l16 -149l-47 -50h-24q-148 109 -158 121v456l376 269l376 -322v-15l-149 -234l224 -184q167 0 229 26q53 45 100 100l57 61q-4 141 -1 141
q-65 157 -139 157q-9 0 -46 -8q-56 24 -72 40l188 232h24q115 -83 126 -83l60 -3h50q-68 -113 -149 -113h-1q-56 0 -123 41l8 -6l-2 -2q-13 0 50 -38q50 -40 68 -68q40 -68 40 -141l6 -148l174 -179l228 28z" />
    <glyph glyph-name="uni178817C5.sechalf" horiz-adv-x="4500" 
d="M4521 46l-90 -74q-162 124 -198 161v62l155 101l5 106q0 343 -40 413q-17 35 -43 45l-601 350l-361 -173v14q44 -35 82 -85q35 -40 54 -123q14 0 21 -602l-228 -259h-565l-264 245h21l-198 -245h-660l-380 452l202 407q-79 70 -446 373h15l-379 -296l-12 -601
q178 -10 178 -34l21 -223l-67 -75h-25q-228 182 -243 200v780l568 451h24q337 -312 581 -546l-245 -424l369 -333q357 0 409 74q96 106 226 262q-7 283 -10 283q-52 132 -121 206q-52 48 -94 48h-17l-71 -10l-86 41q0 26 119 183l164 218h26q180 -142 201 -142q24 -5 63 -5
h56l22 -22q-85 -148 -200 -148q-97 0 -188 69l-59 -64v23q61 0 165 -93q102 -111 114 -193q17 0 25 -369l2 -26l288 -320q367 14 367 43q85 87 221 272v-2l-5 277q-42 205 -174 205q-47 0 -145 -42l-61 99v22q454 259 761 402l58 22l553 -338l18 493q-17 39 -109 46l81 121
q94 -34 137 -115l13 -639v-948z" />
    <glyph glyph-name="uni178817C5.sub1sechalf" horiz-adv-x="1631" 
d="M1655 50q-75 -66 -104 -66l-183 150v63q33 28 155 102l5 114q-6 424 -1 424q-304 219 -507 333l-32 17q-135 -55 -318 -157q0 -1 50 -209l-13 -1691l-144 -150h-363l-153 131q-102 -117 -117 -131h-420q-65 67 -245 267l124 232q-86 70 -263 201l-224 -160l-8 -331
l110 -9l16 -149l-47 -50h-24q-148 109 -158 121v456l376 269l376 -322v-15l-149 -234l224 -184q167 0 229 26q53 45 100 100l57 61q-4 141 -1 141q-65 157 -139 157q-9 0 -46 -8q-56 24 -72 40l188 232h24q115 -83 126 -83l60 -3h50q-68 -113 -149 -113h-1q-56 0 -123 41
l8 -6l-2 -2q-13 0 50 -38q50 -40 68 -68q40 -68 40 -141l6 -148l174 -179l228 28l77 112l6 1575q-11 52 -44 85q-27 17 -47 17h-29q-14 0 -58 -17l-79 108q27 26 281 172q382 225 470 265q251 -137 452 -271l16 425q-17 39 -109 46l81 121q94 -34 137 -115l8 -637v-945z" />
    <glyph glyph-name="uni178817C5.sub2sechalf" horiz-adv-x="1625" 
d="M1656 50q-75 -66 -104 -66l-183 150v63q33 28 155 102l5 114q-6 424 -1 424q-304 219 -507 333l-32 17q-135 -55 -318 -157q0 -1 50 -209l-13 -2591l-144 -150h-363l-153 131q-102 -117 -117 -131h-420q-65 67 -245 267l124 232q-86 70 -263 201l-224 -160l-8 -331
l110 -9l16 -149l-47 -50h-24q-148 109 -158 121v456l376 269l376 -322v-15l-149 -234l224 -184q167 0 229 26q53 45 100 100l57 61q-4 141 -1 141q-65 157 -139 157q-9 0 -46 -8q-56 24 -72 40l188 232h24q115 -83 126 -83l60 -3h50q-68 -113 -149 -113h-1q-56 0 -123 41
l8 -6l-2 -2q-13 0 50 -38q50 -40 68 -68q40 -68 40 -141l6 -148l174 -179l228 28l77 112l6 2475q-11 52 -44 85q-27 17 -47 17h-29q-14 0 -58 -17l-79 108q27 26 281 172q382 225 470 266q252 -139 451 -272l16 425q-17 39 -109 46l81 121q94 -34 137 -115l9 -637v-945z" />
    <glyph glyph-name="uni1789" unicode="&#x1789;" horiz-adv-x="2828" 
d="M2296 1421l560 -381v-999q-16 -21 -82 -69h-21l-187 153v60q24 23 159 104q6 79 6 194v242l-2 109l-501 342l-12 2h-7q-13 0 -227 -115q-136 -66 -155 -79v-543l-2 -407l-92 -70l-195 159v56q3 15 156 112q4 22 4 84v31q0 175 -17 437l-321 308l-6 1v0q-29 0 -96 -67
l-162 -159l-288 246q-169 -167 -185 -180l-22 -611l133 -144q181 150 181 232q0 37 -38 61q-12 6 -30 6h-8q-55 0 -101 -113h-25q-19 5 -54 85q-11 0 -11 37q71 153 141 153q27 15 81 15h5q103 0 175 -131q21 -53 21 -127l-5 -101q-96 -164 -237 -324l-54 -48h-25
q-24 25 -269 344v713q43 47 390 374h25l260 -253l-3 1q50 0 101 56q103 103 170 196h30q136 -130 329 -326zM2658 -278q149 0 194 -155l2 -38v-28q0 -197 -326 -337q-257 -106 -562 -106q-275 0 -591 76q-214 67 -252 113q-49 70 -49 101h33q433 -172 843 -172
q381 0 640 174q34 28 34 8h21q-94 13 -114 36q-74 64 -74 140v7q0 136 157 178z" />
    <glyph glyph-name="uni1789.alt" horiz-adv-x="2828" 
d="M2296 1421l560 -381v-999q-16 -21 -82 -69h-21l-187 153v60q24 23 159 104q6 79 6 194v242l-2 109l-501 342l-12 2h-7q-13 0 -227 -115q-136 -66 -155 -79v-543l-2 -407l-92 -70l-195 159v56q3 15 156 112q4 22 4 84v31q0 175 -17 437l-321 308l-6 1v0q-29 0 -96 -67
l-162 -159l-288 246q-169 -167 -185 -180l-22 -611l133 -144q181 150 181 232q0 37 -38 61q-12 6 -30 6h-8q-55 0 -101 -113h-25q-19 5 -54 85q-11 0 -11 37q71 153 141 153q27 15 81 15h5q103 0 175 -131q21 -53 21 -127l-5 -101q-96 -164 -237 -324l-54 -48h-25
q-24 25 -269 344v713q43 47 390 374h25l260 -253l-3 1q50 0 101 56q103 103 170 196h30q136 -130 329 -326z" />
    <glyph glyph-name="uni1789.sub2" 
d="M-209 -1064q127 0 164 -131l2 -31v-24q0 -165 -271 -281q-214 -88 -466 -88q-227 0 -489 63q-178 56 -210 95q-41 58 -41 88h33q357 -142 694 -142q313 0 525 143q27 22 27 1h21q-79 11 -97 30q-63 54 -63 118v6q0 115 134 151z" />
    <glyph glyph-name="uni1789.sub1alt" 
d="M-675 -180l435 -188v-410q-62 -38 -87 -38l-149 79v46l123 50l3 67v89q-3 2 -288 125q-93 43 -100 43h-5q-18 0 -263 -84q-34 -9 -34 3v-478l-78 -41l-159 81v48l121 50l3 25l-12 233l-169 103q-71 46 -76 46h-9q-29 0 -187 -106h-19l-214 117q-141 -85 -141 -82
l-16 -292l98 -68q136 69 136 105q-10 21 -35 21h-28q-32 0 -67 -55h-25q-22 13 -56 69q31 49 75 75q53 20 106 20h2q89 0 144 -72q15 -26 15 -50v-26q0 -49 -21 -64q-83 -86 -193 -158l-35 -17l-219 178v368l309 187h18l198 -124h11q39 0 106 50q29 18 100 74h20l258 -160
l390 161h14zM-342 -815h3q114 0 156 -76l5 -28v-7q0 -154 -448 -221q-123 -15 -232 -15q-366 0 -635 77q-33 13 -62 45l-29 41h49q332 -83 637 -83h33q289 0 490 89l6 5q0 -23 -42 -18q-87 36 -87 90q0 78 126 99z" />
    <glyph glyph-name="uni1789.sub2alt" 
d="M-675 -1008l435 -188v-410q-62 -38 -87 -38l-149 79v46l123 50l3 67v89q-3 2 -288 125q-93 43 -100 43h-5q-18 0 -263 -84q-34 -9 -34 3v-478l-78 -41l-159 81v48l121 50l3 25l-12 233l-169 103q-71 46 -76 46h-9q-29 0 -187 -106h-19l-214 117q-141 -85 -141 -82
l-16 -292l98 -68q136 69 136 105q-10 21 -35 21h-28q-32 0 -67 -55h-25q-22 13 -56 69q31 49 75 75q53 20 106 20h2q89 0 144 -72q15 -26 15 -50v-26q0 -49 -21 -64q-83 -86 -193 -158l-35 -17l-219 178v368l309 187h18l198 -124h11q39 0 106 50q29 18 100 74h20l258 -160
l390 161h14zM-342 -1643h3q114 0 156 -76l5 -28v-7q0 -154 -448 -221q-123 -15 -232 -15q-366 0 -635 77q-33 13 -62 45l-29 41h49q332 -83 637 -83h33q289 0 490 89l6 5q0 -23 -42 -18q-87 36 -87 90q0 78 126 99z" />
    <glyph glyph-name="uni178917B6.alt" horiz-adv-x="3875" 
d="M2290 1429l545 -368h-16q454 326 513 362h20l548 -377v-1004l-78 -62h-25q-172 137 -185 155v59l158 107q6 96 6 181v240l-3 119l-500 343l-11 2h-5q-19 0 -110 -59q-291 -165 -296 -170v-913l-80 -64h-24l-184 150v66l156 102q8 101 8 305l-2 236q-484 335 -505 346
l-4 1h-7q-16 0 -87 -40l-301 -156v-946l-81 -64h-24l-183 150v60q11 17 155 108q4 31 4 91v12q0 176 -16 449l-252 245q-62 64 -68 64l-12 2q-27 0 -138 -114l-103 -102h-26l-273 235q-169 -159 -188 -184l-1 -7l-20 -598l133 -147q100 78 156 163q24 40 27 69q0 39 -42 63
l-31 6q-60 0 -107 -115h-40l-51 117q56 125 112 148q56 25 116 25h2q98 0 169 -121q25 -54 25 -99v-52q0 -93 -18 -110q-88 -146 -209 -287l-84 -77l-278 359v715l388 373h28q249 -249 250 -249l7 -3q54 0 107 62q81 79 167 190h29l336 -333h-18z" />
    <glyph glyph-name="uni178917C5.sechalf" horiz-adv-x="3878" 
d="M2658 -278q149 0 194 -155l2 -38v-28q0 -197 -326 -337q-257 -106 -562 -106q-275 0 -591 76q-214 67 -252 113q-49 70 -49 101h33q433 -172 843 -172q381 0 640 174q34 28 34 8h21q-94 13 -114 36q-74 64 -74 140v7q0 136 157 178zM3900 1037v-995l-78 -62h-25
q-172 137 -185 155v59l158 107q6 96 6 181v240l-3 119l-500 343l-11 2h-5q-19 0 -110 -59q-291 -165 -296 -170v-913l-80 -64h-24l-184 150v66l156 102q8 101 8 305l-2 236q-484 335 -505 346l-4 1h-7q-16 0 -87 -40l-301 -156v-946l-81 -64h-24l-183 150v60q11 17 155 108
q4 31 4 91v12q0 176 -16 449l-252 245q-62 64 -68 64l-12 2q-27 0 -138 -114l-103 -102h-26l-273 235q-169 -159 -188 -184l-1 -7l-20 -598l133 -147q100 78 156 163q24 40 27 69q0 39 -42 63l-31 6q-60 0 -107 -115h-40l-51 117q56 125 112 148q56 25 116 25h2
q98 0 169 -121q25 -54 25 -99v-52q0 -93 -18 -110q-88 -146 -209 -287l-84 -77l-278 359v715l388 373h28q249 -249 250 -249l7 -3q54 0 107 62q81 79 167 190h29l336 -333h-18l521 341l545 -368h-16q454 326 513 362h20l411 -280l16 438q-17 39 -109 46l81 121
q94 -34 137 -115z" />
    <glyph glyph-name="uni178917C5.altsechalf" horiz-adv-x="3878" 
d="M3902 1037l-2 -995l-78 -62h-25q-172 137 -185 155v59l158 107q6 96 6 181v240l-3 119l-500 343l-11 2h-5q-19 0 -110 -59q-291 -165 -296 -170v-913l-80 -64h-24l-184 150v66l156 102q8 101 8 305l-2 236q-484 335 -505 346l-4 1h-7q-16 0 -87 -40l-301 -156v-946
l-81 -64h-24l-183 150v60q11 17 155 108q4 31 4 91v12q0 176 -16 449l-252 245q-62 64 -68 64l-12 2q-27 0 -138 -114l-103 -102h-26l-273 235q-169 -159 -188 -184l-1 -7l-20 -598l133 -147q100 78 156 163q24 40 27 69q0 39 -42 63l-31 6q-60 0 -107 -115h-40l-51 117
q56 125 112 148q56 25 116 25h2q98 0 169 -121q25 -54 25 -99v-52q0 -93 -18 -110q-88 -146 -209 -287l-84 -77l-278 359v715l388 373h28q249 -249 250 -249l7 -3q54 0 107 62q81 79 167 190h29l336 -333h-18l521 341l545 -368h-16q454 326 513 362h20l411 -280l16 438
q-17 39 -109 46l81 121q94 -34 137 -115z" />
    <glyph glyph-name="uni178A" unicode="&#x178a;" horiz-adv-x="1929" 
d="M1841 1866q148 0 148 -161v-17q0 -254 -165 -462q-137 -141 -233 -176q-140 -60 -250 -60q-199 0 -489 216h17l-215 -175v15q23 -15 350 -277v-18l-308 -298l237 -221q67 68 325 302h26l322 -329q183 143 223 271q7 8 7 21t-34 70l130 109q20 -89 20 -157v-17
q0 -80 -81 -178q-30 -62 -290 -320l-31 -27h-28l-336 324h20l-336 -321h-25q-33 30 -376 417l296 290l-288 316l469 424h23q264 -212 353 -234q61 -13 100 -13q74 0 179 48q153 85 222 267q24 83 24 207z" />
    <glyph glyph-name="uni178A.sub2" 
d="M-1087 -1062l285 -229v-17l-235 -226l173 -162l263 241l255 -262q126 87 171 214v4q0 11 -20 39v16l100 91q23 -87 23 -144q0 -114 -328 -418l-261 251l-259 -250l-305 337l227 223q-13 11 -213 234v22z" />
    <glyph glyph-name="uni178A17C5.sechalf" horiz-adv-x="2878" 
d="M2925 35q-79 -55 -108 -55l-181 143v61q19 19 155 105l4 82q0 150 -23 452q-54 47 -219 154q-375 243 -388 243q-55 -6 -514 -140q-30 -19 -60 -30q-140 -60 -250 -60q-199 0 -489 216h17l-215 -175v15q23 -15 350 -277v-18l-308 -298l237 -221q67 68 325 302h26
l322 -329q183 143 223 271q7 8 7 21t-34 70l130 109q20 -89 20 -157v-17q0 -80 -81 -178q-30 -62 -290 -320l-31 -27h-28l-336 324h20l-336 -321h-25q-33 30 -376 417l296 290l-288 316l469 424h23q264 -212 353 -234q61 -13 100 -13q74 0 179 48q153 85 222 267
q24 83 24 207l-6 164q148 0 148 -161v-17q0 -235 -106 -383l413 121q385 -242 490 -309l17 464q-17 39 -109 46l81 121q94 -34 137 -115l13 -633v-965z" />
    <glyph glyph-name="uni178B" unicode="&#x178b;" horiz-adv-x="2000" 
d="M1848 1895q93 0 223 -83q142 -122 142 -298q-6 -314 -199 -386l-45 -8h-27q-85 7 -169 63l-7 5l-42 -46q42 -5 126 -67q111 -110 127 -188q31 -59 31 -233q4 0 8 -208q-35 -226 -55 -226l-195 -240h-670l-381 454v12q90 171 140 331l23 89l-163 264q-26 -26 -31 -48
q0 1 54 -20q35 -35 35 -79v-15q0 -65 -105 -73h-5q-143 8 -143 37q-45 99 -45 117l282 406q35 -39 277 -557l-150 -448l375 -339q361 0 415 74q95 105 231 268q-7 293 -13 293q-106 255 -217 255h-11l-77 -11l-98 49q265 363 312 415q138 -153 185 -153h15q34 0 87 68
q30 49 30 112q0 114 -93 219q-73 62 -171 62h-10q-91 0 -217 -50v48q53 26 221 135z" />
    <glyph glyph-name="uni178B.sub2" 
d="M-163 -1028q33 -433 58 -962l-16 -17h-14q-342 0 -501 220q-22 -37 -125 -130q-130 -100 -265 -100q-139 293 -249 633l133 103q231 -21 406 -21q351 0 434 55v-4q0 35 -29 79l-52 92q17 21 220 52zM-608 -1438h-26l-311 12q-109 0 -125 -25q-8 -15 -8 -33v-4
q10 -106 175 -318q32 -32 38 -32h-7q141 153 234 277q268 -259 414 -259h-19q-13 179 -43 440q-159 -58 -322 -58z" />
    <glyph glyph-name="uni178B17C5.sechalf" horiz-adv-x="3000" 
d="M3026 1019v-984q-78 -55 -107 -55l-181 143v61q19 19 155 105l4 82q0 150 -23 452q-54 47 -219 154q-375 243 -388 243q-47 -4 -191 -60q-26 -19 -62 -32l-45 -8h-27q-85 7 -169 63l-7 5l-42 -46q42 -5 126 -67q111 -110 127 -188q31 -59 31 -233q4 0 8 -208
q-35 -226 -55 -226l-195 -240h-670l-381 454v12q90 171 140 331l23 89l-163 264q-26 -26 -31 -48q0 1 54 -20q35 -35 35 -79v-15q0 -65 -105 -73h-5q-143 8 -143 37q-45 99 -45 117l282 406q35 -39 277 -557l-150 -448l375 -339q361 0 415 74q95 105 231 268q-7 293 -13 293
q-106 255 -217 255h-11l-77 -11l-98 49q265 363 312 415q138 -153 185 -153h15q34 0 87 68q30 49 30 112q0 114 -93 219q-73 62 -171 62h-10q-91 0 -217 -50v48q53 26 221 135q93 0 223 -83q142 -122 142 -298q-2 -115 -16 -157l201 69q382 -240 488 -308l17 463
q-17 39 -109 46l81 121q94 -34 137 -115z" />
    <glyph glyph-name="uni178C" unicode="&#x178c;" horiz-adv-x="1700" 
d="M1302 1427q390 -285 428 -316v-216l1 -103l-663 -455l108 -147l489 271l65 -51v-665q-120 -106 -138 -106h-20l-35 110l72 83l-18 437l-484 -293h-25l-214 341v16l708 517l-5 173l-321 179l-221 -203h-23l-281 201l-132 -125v2l-17 -356l107 -101q97 29 97 35q9 19 9 37
q0 44 -42 77q-9 7 -21 7q-31 0 -82 -82q-44 111 -44 150q0 69 97 88h14q122 0 183 -119q25 -56 25 -103v-5q0 -119 -158 -166q-56 -24 -108 -37q-178 190 -178 205v410l317 310l265 -214q210 189 245 214z" />
    <glyph glyph-name="uni178C.sub2" 
d="M-488 -1051q214 -156 238 -175v-178l-348 -238l46 -63l256 141l46 -33v-360q-70 -63 -85 -63h-21l-21 70l39 45l-8 210l-242 -146h-24l-119 187v16l376 273l-3 83l-157 87l-113 -104h-22l-143 103q-61 -58 -60 -56l-9 -182l49 -46q36 11 36 9q4 11 4 19q0 19 -18 34
q-2 1 -3 1q-10 0 -46 -59q-33 82 -33 104q0 44 62 56h9q73 0 108 -69q14 -31 14 -58v-2q0 -70 -91 -97q-29 -12 -66 -23q-102 110 -102 121v220l179 175l141 -114q104 94 131 112z" />
    <glyph glyph-name="uni178C17C5.sechalf" horiz-adv-x="2700" 
d="M2726 1019v-984q-78 -55 -107 -55l-181 143v61q19 19 155 105l4 82q0 150 -23 452q-54 47 -219 154q-375 243 -388 243q-52 -5 -237 -141v-184l1 -103l-663 -455l108 -147l489 271l65 -51v-665q-120 -106 -138 -106h-20l-35 110l72 83l-18 437l-484 -293h-25l-214 341v16
l708 517l-5 173l-321 179l-221 -203h-23l-281 201l-132 -125v2l-17 -356l107 -101q97 29 97 35q9 19 9 37q0 44 -42 77q-9 7 -21 7q-31 0 -82 -82q-44 111 -44 150q0 69 97 88h14q122 0 183 -119q25 -56 25 -103v-5q0 -119 -158 -166q-56 -24 -108 -37q-178 190 -178 205
v410l317 310l265 -214q210 189 245 214q239 -174 326 -238l74 35l393 203q383 -239 489 -307l17 461q-17 39 -109 46l81 121q94 -34 137 -115z" />
    <glyph glyph-name="uni178D" unicode="&#x178d;" horiz-adv-x="2828" 
d="M2647 1433q196 -155 216 -155l65 -5h80q-32 -94 -117 -147q-47 -21 -84 -21h-20q-76 0 -169 67l-43 -45q41 -5 114 -60q163 -133 163 -368l8 -495q-99 -171 -124 -203l-464 -8l-248 190l-203 -4v-133q-5 -16 -97 -72l-193 151v62l157 104q3 17 3 68q0 196 -15 484
l-252 243q-62 64 -72 64l-10 3q-34 0 -205 -182l-35 -33h-25l-273 235q-186 -178 -186 -179l-3 -16l-20 -596l133 -145q180 148 180 232v9q-11 59 -68 59q-64 0 -106 -113h-33q-19 19 -59 115q65 143 101 143q61 32 125 32q84 0 160 -101q35 -57 35 -119v-80q0 -77 -27 -95
q-75 -132 -201 -275l-66 -61h-28l-266 342v715l388 373h29l253 -250h8q50 0 118 77q67 68 152 173h27q371 -374 371 -385v-729h321q21 0 173 -124q106 -84 101 -84l268 9l76 120q-16 490 -20 512q-34 114 -125 211q-47 45 -90 45h-18l-68 -11l-99 49q266 363 307 407z" />
    <glyph glyph-name="uni178D.sub2" horiz-adv-x="768" 
d="M571 -1751v2649q-63 83 -120 83h-18q-19 0 -72 -11q-83 39 -94 61l302 398q197 -157 217 -157l90 -5h34l2 -3h27q-94 -165 -210 -165h-20q-64 0 -169 65l-3 2l-37 -40q17 0 119 -71q90 -89 91 -124v-2700l-172 -141h-301l-160 111l-119 -3v-68q-4 -16 -75 -44l-129 86v44
l102 61q1 5 1 33q0 113 -10 274l-160 138q-36 34 -42 34l-6 2q-16 0 -123 -102l-25 -22h-23l-172 133q-111 -95 -111 -93l-2 -9l-13 -338l77 -76q106 79 106 123v4q-5 26 -34 26q-36 0 -63 -65h-29q-18 14 -46 75q46 90 73 90q39 19 83 19q58 0 109 -62q25 -35 25 -73v-46
q0 -48 -19 -61q-49 -75 -190 -203l-187 210v417l269 228l174 -152h2q28 0 70 41q42 39 99 102h25q244 -220 244 -229v-411h207l177 -120l160 6z" />
    <glyph glyph-name="uni178D17B6.sub1" horiz-adv-x="1631" 
d="M710 810v-1689l-172 -141h-301l-160 111l-119 -3v-68q-4 -16 -75 -44l-129 86v44l102 61q1 5 1 33q0 113 -10 274l-160 138q-36 34 -42 34l-6 2q-16 0 -123 -102l-25 -22h-23l-172 133q-111 -95 -111 -93l-2 -9l-13 -338l77 -76q106 79 106 123v4q-5 26 -34 26
q-36 0 -63 -65h-29q-18 14 -46 75q46 90 73 90q39 19 83 19q58 0 109 -62q25 -35 25 -73v-46q0 -48 -19 -61q-49 -75 -190 -203l-187 210v417l255 219h25l163 -143h2q28 0 70 41q42 39 99 102h25q244 -220 244 -229v-411h207l177 -120l160 6l69 79v1647q-11 51 -43 86
q-31 20 -64 20l-76 -14l-82 109q735 433 771 433q261 -143 583 -359v-1025q-73 -67 -107 -67l-183 151v56q3 13 157 112l4 110q0 175 -13 440q-333 240 -532 343q-138 -54 -321 -158z" />
    <glyph glyph-name="uni178D17B6.sub2" horiz-adv-x="1642" 
d="M571 786q-11 51 -43 86q-31 20 -64 20l-76 -14l-82 109q735 433 771 433q261 -143 583 -359v-1025q-73 -67 -107 -67l-183 151v56q3 13 157 112l4 110q0 175 -13 440q-333 240 -532 343q-138 -54 -321 -158l45 -213v-2579l-172 -141h-301l-160 111l-119 -3v-68
q-4 -16 -75 -44l-129 86v44l102 61q1 5 1 33q0 113 -10 274l-160 138q-36 34 -42 34l-6 2q-16 0 -123 -102l-25 -22h-23l-172 133q-111 -95 -111 -93l-2 -9l-13 -338l77 -76q106 79 106 123v4q-5 26 -34 26q-36 0 -63 -65h-29q-18 14 -46 75q46 90 73 90q39 19 83 19
q58 0 109 -62q25 -35 25 -73v-46q0 -48 -19 -61q-49 -75 -190 -203l-187 210v417l269 228l174 -152h2q28 0 70 41q42 39 99 102h25q244 -220 244 -229v-411h207l177 -120l160 6l69 79v2537z" />
    <glyph glyph-name="uni178D17C5.sechalf" horiz-adv-x="3833" 
d="M3864 45l-81 -65h-22l-185 150v63q22 19 156 104l3 64v61q-8 331 -18 331q-21 79 -47 97l-627 363h13q-317 -152 -353 -172q54 -43 93 -109q45 -115 45 -164l10 -560q-113 -196 -133 -205l-450 -6l-249 187l-203 -4l-3 -129v-11q-76 -56 -105 -56l-180 144v63
q24 21 155 101l4 101q-11 438 -8 438l-329 317l-11 2q-30 0 -161 -139l-78 -76h-27l-273 234l-184 -183l-23 -598q122 -141 141 -158h-19q193 157 193 239q0 30 -29 56q-15 11 -35 11h-6q-64 0 -108 -112h-40l-51 115q69 145 110 145q48 28 116 28q90 0 162 -102
q35 -58 35 -139q0 -145 -24 -145q-65 -119 -210 -285q-21 -22 -77 -69l-276 353v714l401 380l266 -259h14q46 0 114 79q79 80 159 183q239 -235 387 -390v-732h144l195 -2l261 -206q237 9 259 11l76 117q-16 518 -18 518q-60 187 -182 187q-39 0 -136 -44q-49 72 -69 115
q422 246 767 408l58 22l552 -338l19 493q-17 39 -109 46l81 121q94 -34 137 -115l13 -640v-948z" />
    <glyph glyph-name="uni178D17C5.sub1sechalf" horiz-adv-x="1642" 
d="M1660 36q-73 -67 -107 -67l-183 151v56q3 13 157 112l4 110q0 175 -13 440q-333 240 -532 343q-138 -54 -321 -158l45 -213v-1689l-172 -141h-301l-160 111l-119 -3v-68q-4 -16 -75 -44l-129 86v44l102 61q1 5 1 33q0 113 -10 274l-160 138q-36 34 -42 34l-6 2
q-16 0 -123 -102l-25 -22h-23l-172 133q-111 -95 -111 -93l-2 -9l-13 -338l77 -76q106 79 106 123v4q-5 26 -34 26q-36 0 -63 -65h-29q-18 14 -46 75q46 90 73 90q39 19 83 19q58 0 109 -62q25 -35 25 -73v-46q0 -48 -19 -61q-49 -75 -190 -203l-187 210v417l255 219h25
l163 -143h2q28 0 70 41q42 39 99 102h25q244 -220 244 -229v-411h207l177 -120l160 6l69 79v1647q-11 51 -43 86q-31 20 -64 20l-76 -14l-82 109q735 433 771 433q224 -123 445 -268l16 428q-17 39 -109 46l81 121q94 -34 137 -115l12 -579q0 19 1 19v-1036z" />
    <glyph glyph-name="uni178D17C5.sub2sechalf" horiz-adv-x="1636" 
d="M1660 36q-73 -67 -107 -67l-183 151v56q3 13 157 112l4 110q0 175 -13 440q-333 240 -532 343q-138 -54 -321 -158l45 -213v-2579l-172 -141h-301l-160 111l-119 -3v-68q-4 -16 -75 -44l-129 86v44l102 61q1 5 1 33q0 113 -10 274l-160 138q-36 34 -42 34l-6 2
q-16 0 -123 -102l-25 -22h-23l-172 133q-111 -95 -111 -93l-2 -9l-13 -338l77 -76q106 79 106 123v4q-5 26 -34 26q-36 0 -63 -65h-29q-18 14 -46 75q46 90 73 90q39 19 83 19q58 0 109 -62q25 -35 25 -73v-46q0 -48 -19 -61q-49 -75 -190 -203l-187 210v417l269 228
l174 -152h2q28 0 70 41q42 39 99 102h25q244 -220 244 -229v-411h207l177 -120l160 6l69 79v2537q-11 51 -43 86q-31 20 -64 20l-76 -14l-82 109q735 433 771 433q224 -123 445 -268l16 428q-17 39 -109 46l81 121q94 -34 137 -115l12 -579q0 19 1 19v-1036z" />
    <glyph glyph-name="uni178E" unicode="&#x178e;" horiz-adv-x="3575" 
d="M1016 1433l675 -588v-15l-189 -282q251 -313 240 -304l333 343l336 -291l-20 -11q163 225 163 319v46q0 129 -112 217q-25 13 -37 13l-45 -10l-77 100q708 453 731 453l590 -373v-1004q-80 -64 -94 -64h-12l-183 151v63q17 17 147 98l10 8l6 172l-8 375q0 3 -7 6
l-594 353l-345 -233v14q189 -195 189 -406q0 -197 -295 -544l-66 -73q-100 135 -209 261q-97 105 -120 105h-2q-18 0 -219 -236l-100 -116h-90l-366 480l267 299l-519 436q-364 -286 -372 -290l-1 -18l-10 -567h-22l200 -17l24 -244q-53 -58 -53 -77h-39q-235 187 -246 202
v760z" />
    <glyph glyph-name="uni178E.sub2" 
d="M-2196 -1068l507 -338v-16l-137 -156q178 -171 167 -164l248 195l255 -169h-20q113 120 113 169v26q0 68 -78 115q-18 7 -25 7l-36 -6l-68 68q537 263 555 263l443 -215v-580q-66 -39 -76 -39h-10l-141 88v47q17 12 114 59l2 1l4 92l-6 213q0 -5 1 -5l-439 200l-249 -130
v18q140 -110 140 -234q0 -115 -222 -316l-53 -43q-77 79 -157 150q-70 58 -86 58h-1q-12 0 -160 -132l-75 -67h-70l-280 281l196 168l-372 239q-268 -161 -270 -162v-5l-7 -311h-23l154 -10l19 -151q-40 -34 -40 -48h-36q-178 107 -188 120v439z" />
    <glyph glyph-name="uni178E17C5.sechalf" horiz-adv-x="4622" 
d="M4643 1037l-2 -996l-80 -61h-23l-184 150v63q22 21 156 104q7 78 7 260l-1 272q0 7 2 7q-500 347 -501 347l-15 2h-5q-16 0 -112 -53l-287 -176l1 -910q-74 -64 -89 -64h-12l-183 151v63q17 17 147 98l10 8l6 172l-8 375q0 3 -7 6l-594 353l-345 -233v14
q189 -195 189 -406q0 -197 -295 -544l-66 -73q-100 135 -209 261q-97 105 -120 105h-2q-18 0 -219 -236l-100 -116h-90l-366 480l267 299l-519 436q-364 -286 -372 -290l-1 -18l-10 -567h-22l200 -17l24 -244q-53 -58 -53 -77h-39q-235 187 -246 202v760l541 489l675 -588
v-15l-189 -282q251 -313 240 -304l333 343l336 -291l-20 -11q163 225 163 319v46q0 129 -112 217q-25 13 -37 13l-45 -10l-77 100q708 453 732 453l558 -356l497 356h20l414 -282l16 443q-17 39 -109 46l81 121q94 -34 137 -115z" />
    <glyph glyph-name="uni178F" unicode="&#x178f;" horiz-adv-x="1900" 
d="M1569 1418h23q261 -181 344 -218q90 -35 95 -54q-42 -120 -139 -120q-86 0 -203 83q-151 100 -169 103l-17 2q-16 0 -122 -75l-149 -92q-180 71 -441 186h14l-171 -129v11l65 -104l-29 -19q-168 43 -191 59l-62 58q401 267 473 307h18q297 -169 342 -178h25q37 0 196 114
zM1268 984l624 -256l14 -10v-665q-28 -32 -95 -74q-171 133 -192 158v59q18 20 105 72q45 21 45 61q5 12 5 46v40q-6 126 -14 130q-161 104 -581 251q-40 15 -59 15q-121 -15 -435 -168l-22 -289l204 -190q109 157 109 230q0 34 -31 34h-3v0q28 -39 28 -67l-124 -18
q-80 25 -114 78q-12 29 -12 62q0 105 134 147l49 5q169 0 207 -160l5 -39q-12 -167 -35 -167q-167 -281 -188 -296q-24 6 -341 320v404q0 20 168 79z" />
    <glyph glyph-name="uni178F.sub2" 
d="M-662 -1071l536 -222v-105l-2 -468l-69 -53h-23l-158 128v52q17 19 109 75q21 9 21 63l3 29v10q-5 113 -9 114q-160 102 -513 221l-29 6q-68 0 -363 -142l-18 -240l169 -157q87 122 87 192q-2 24 -14 24h-9q-6 -1 -6 14l48 -69l-127 -18q-107 37 -107 116q0 92 104 130
q30 7 59 7q125 0 172 -121l5 -50q-8 -144 -30 -144q-138 -236 -171 -258l-282 281v351q25 18 219 88q378 146 398 146z" />
    <glyph glyph-name="uni178F17C5.sechalf" horiz-adv-x="2941" 
d="M1279 990l639 -262v-15l-1 -660l-91 -71q-176 141 -195 160v63l142 93q14 33 14 88v21q-6 137 -10 137q-51 50 -353 174q-255 99 -287 99q-90 0 -442 -167l-21 -288l205 -193q109 152 109 235q0 32 -32 32q-11 0 -7 3l48 -69l-141 -20q-86 30 -114 81q-9 28 -9 51
q0 110 124 151q28 7 50 7h19q127 0 184 -118q15 -38 15 -83q0 -39 -15 -132l-196 -327h-29l-322 321v411q13 13 140 61zM2974 1028v-973l-80 -64h-23l-184 150v64l156 103q3 24 3 84v13q0 132 -15 460q-514 277 -698 343l-18 6q-20 0 -356 -141l-230 -101q-340 222 -473 246
q-96 -31 -179 -74q-65 -34 -125 -80q7 -18 76 -86q-38 -16 -207 -32l-159 145q406 210 670 309q44 16 63 16q408 -213 428 -213l14 -2q18 0 273 96l317 126q20 0 467 -234l135 -74l18 466q-17 39 -109 46l81 121q94 -34 137 -115z" />
    <glyph glyph-name="uni1790" unicode="&#x1790;" horiz-adv-x="1900" 
d="M1857 1873q63 0 110 -51q23 -48 23 -129q0 -208 -118 -399q-82 -120 -201 -198q-176 -102 -330 -102q-199 0 -478 212l-207 -171v14q229 -177 349 -276v-21q-76 -49 -276 -250q-40 -49 -40 -40l358 -334l17 -15q379 0 497 23q55 16 127 90q77 96 77 186v18q0 32 -24 42
q-30 -18 -62 -18h-14q-54 0 -92 55q-12 26 -12 37v11q0 67 88 120q39 20 72 20h11q99 0 165 -106q26 -50 26 -105v-25q0 -121 -78 -266q-62 -90 -181 -175q-64 -40 -78 -40h-740q-274 304 -371 415v15l291 279l-280 308v15q441 407 474 425q271 -212 329 -226
q62 -28 128 -28h6q106 0 228 79q196 151 196 405v55q0 70 -6 135z" />
    <glyph glyph-name="uni1790.sub2" 
d="M-661 -1054q220 0 385 -172q100 -117 100 -274v-15q0 -146 -87 -320q-14 -34 -41 -34q-10 -4 -143 -44v36q128 172 128 346v4q0 161 -113 267q-80 66 -200 66q-118 0 -257 -73q-123 -138 -184 -219q-8 -19 -12 -48q0 -53 125 -99l5 -3q69 61 69 119v9q0 31 -52 71
q40 52 97 52q49 -11 81 -48q27 -45 27 -94q0 -154 -122 -234q-77 -55 -127 -71h-8q-75 0 -343 250q294 364 345 422q165 106 327 106z" />
    <glyph glyph-name="uni179017C5.sechalf" horiz-adv-x="2900" 
d="M2924 989v-954q-78 -55 -107 -55l-181 143v61q19 19 155 105l4 82q0 150 -23 452q-54 47 -219 154q-375 243 -388 243q-55 -6 -514 -140q-30 -19 -60 -30q-74 -32 -171 -53v3q-25 -6 -79 -6q-199 0 -478 212l-207 -171v14q229 -177 349 -276v-21q-76 -49 -276 -250
q-40 -49 -40 -40l358 -334l17 -15q379 0 497 23q55 16 127 90q77 96 77 186v18q0 32 -24 42q-30 -18 -62 -18h-14q-54 0 -92 55q-12 26 -12 37v11q0 67 88 120q39 20 72 20h11q99 0 165 -106q26 -50 26 -105v-25q0 -121 -78 -266q-62 -90 -181 -175q-64 -40 -78 -40h-740
q-274 304 -371 415v15l291 279l-280 308v15q441 407 474 425q271 -212 329 -226q62 -28 128 -28h6q106 0 228 79q148 114 184 286q12 66 12 154l-5 144v12l15 15q63 0 110 -51q23 -48 23 -129q0 -51 -7 -102q-24 -179 -101 -287l414 122q385 -242 490 -309l17 464
q-17 39 -109 46l81 121q94 -34 137 -115l13 -643z" />
    <glyph glyph-name="uni1791" unicode="&#x1791;" horiz-adv-x="1859" 
d="M1663 1419l220 -260q8 -60 8 -111q0 -186 -149 -255q-51 -30 -109 -30q-126 0 -204 117q-22 43 -22 76q0 81 85 112q13 6 42 6q93 0 130 -108q1 -1 3 -1q19 0 47 42q9 21 9 40v22q0 55 -53 116q-57 75 -59 76l-666 34l-282 -257l333 -264v-17l-302 -293l259 -208
q280 246 317 257q107 59 234 59q198 0 310 -123q73 -83 73 -189q0 -155 -88 -232q-53 -41 -121 -41q-72 0 -126 54q-29 36 -29 83v1q0 99 114 147l84 18l24 -45h-30q1 3 4 35q0 78 -137 145q-53 18 -100 18h-18q-87 0 -183 -54l-407 -404h-27l-372 415v15l292 279v7
q0 29 -104 115l-188 176v15l431 409z" />
    <glyph glyph-name="uni1791.sub2" 
d="M-639 -1044h11q61 0 84 -53q8 -19 8 -40q0 -128 -120 -241q-98 -89 -236 -198l-28 -28q24 -30 141 -140q60 36 165 123q57 47 99 146q32 70 32 115v27h44q26 -47 52 -284q29 -194 96 -194v-32l-195 -111l-20 -20l-26 26v9l6 274l-291 -257h-23l-305 269v20
q118 75 263 197l46 43q107 113 118 179l6 21q-19 31 -19 64v2q0 59 65 81z" />
    <glyph glyph-name="uni179117C5.sechalf" horiz-adv-x="2900" 
d="M2924 992v-957q-78 -55 -107 -55l-181 143v61q19 19 155 105l4 82q0 150 -23 452q-54 47 -219 154q-375 243 -388 243q-53 -5 -240 -144v-27q0 -186 -149 -255q-51 -30 -109 -30q-126 0 -204 117q-22 43 -22 76q0 81 85 112q13 6 42 6q93 0 130 -108q1 -1 3 -1
q19 0 47 42q9 21 9 40v22q0 55 -53 116q-57 75 -59 76l-666 34l-282 -257l333 -264v-17l-302 -293l259 -208q280 246 317 257q107 59 234 59q198 0 310 -123q73 -83 73 -189q0 -155 -88 -232q-53 -41 -121 -41q-72 0 -126 54q-29 36 -29 83v1q0 99 114 147l84 18l24 -45h-30
q1 3 4 35q0 78 -137 145q-53 18 -100 18h-18q-87 0 -183 -54l-407 -404h-27l-372 415v15l292 279v7q0 29 -104 115l-188 176v15l431 409l757 3l177 -209l12 6l407 210q388 -242 493 -309l17 466q-17 39 -109 46l81 121q94 -34 137 -115l13 -643z" />
    <glyph glyph-name="uni1792" unicode="&#x1792;" horiz-adv-x="2000" 
d="M967 1423l362 -268h-17l339 271q108 -141 223 -257q123 -114 134 -153q0 -53 -154 -78l-300 251l-290 -278l-411 295h15l-202 -170l336 -266v-19q-120 -94 -264 -242l-45 -53l265 -249l360 295h24l350 -328l178 229l67 212h38q58 -74 58 -117q0 -49 -56 -196
q-304 -316 -332 -320l-404 280l-389 -292l-377 421v15l288 280l-295 311l438 395q32 31 61 31z" />
    <glyph glyph-name="uni1792.sub2" 
d="M-691 -978q66 0 91 -55l8 -46q0 -78 -62 -173q-23 -38 -180 -176q-91 -77 -166 -134l197 -187q65 42 65 135q0 41 -22 63q-57 85 -57 104q69 48 82 48h12q70 -56 115 -73q82 22 82 114v15q0 71 -27 145q45 33 120 33q51 -106 51 -282q-8 -68 -93 -153q-58 -21 -107 -21
h-1v-4q0 -129 -125 -226q-97 -86 -218 -86q-29 55 -143 161q-70 57 -150 110l-15 80q97 58 275 200l61 56q115 119 121 197l1 3q-19 29 -19 67v4q0 73 97 81h7z" />
    <glyph glyph-name="uni179217C5.sechalf" horiz-adv-x="2871" 
d="M2897 1004l-1 -959q-80 -65 -104 -65l-185 151v65q21 18 157 103q4 59 4 114q0 179 -15 398q-21 38 -107 101q-242 161 -504 283q-58 0 -191 -60q-96 -49 -278 -176l-20 -10l-189 85q-354 160 -407 160q-82 0 -269 -127q-58 -44 -72 -59l305 -241q-108 -82 -268 -241
l-58 -66q276 -261 268 -261h-8l386 318l365 -344l180 229l71 219h34q54 -65 60 -116q0 -52 -55 -199l-324 -335l-420 292l-395 -293l-382 424v15l292 282l-300 294q24 21 433 270q243 149 278 168h15q451 -237 468 -237h37q145 0 558 242l498 -322l18 475q-17 39 -109 46
l81 121q94 -34 137 -115z" />
    <glyph glyph-name="uni1793" unicode="&#x1793;" horiz-adv-x="1800" 
d="M1186 1423l586 -317q84 -136 84 -227q0 -71 -73 -154q-80 -73 -177 -73q-136 0 -212 106q-18 41 -18 67v23q0 70 86 119q33 15 63 15q94 0 141 -71q14 -26 14 -55h-39l31 54q-37 105 -39 107q-61 30 -443 248q-444 -253 -437 -246l56 -67l2 -657h367l132 -115
q65 -61 66 -61l78 -8h36q66 0 85 23q65 61 77 96q75 139 153 338h46l22 -304l-229 -284h-418q-145 171 -233 198q-24 14 -182 22v-162q-85 -56 -115 -56q-158 136 -221 197v99l2 2v14l180 4v487l-182 187v21l692 430h19z" />
    <glyph glyph-name="uni1793.sub2" 
d="M-408 -1045q69 0 94 -77v-118h-19l75 -19q237 -53 393 -53q19 0 90 11v-25q0 -38 -86 -78q-88 -28 -167 -28q-90 0 -286 30v-230q67 -36 83 -86q8 -16 8 -43v-4q0 -75 -85 -126q-42 -15 -72 -15q-103 0 -146 93q-5 8 -8 32q0 28 3 32h45q-281 -95 -461 -135
q-208 0 -319 208q-24 55 -24 101q0 194 140 291q85 51 175 51q109 0 228 -51q14 -4 23 -4q11 0 102 50q47 19 87 19l36 -3v-21l2 125q0 24 40 62q26 11 49 11zM-1137 -1524v-4q0 -97 54 -125q56 -35 143 -35h45q10 0 303 51q74 14 88 15v242l-29 5q-45 0 -116 -167h-22
q-42 0 -143 128q-70 64 -139 64q-108 0 -170 -113q-14 -32 -14 -61z" />
    <glyph glyph-name="uni179317C5.sechalf" horiz-adv-x="2800" 
d="M2829 1000l-1 -965q-80 -54 -106 -54l-181 143v62q14 14 157 104q1 5 1 42v6q0 189 -31 473q-196 142 -409 257q-204 104 -254 104q-67 -25 -270 -131q-124 -64 -202 -64h-1l-6 -1q-27 0 -82 36q-217 127 -223 127q-112 58 -174 58q-32 0 -120 -60q-7 0 -175 -120
q4 -8 58 -63v-659h370q190 -169 200 -176q55 -9 97 -9q79 0 93 21q35 26 66 66q66 109 171 372h44l24 -303l-228 -286h-419q-104 121 -159 158q-73 51 -131 51q-96 13 -128 13v-161q-15 -18 -95 -60h-20l-219 197v101l2 2v13l180 4v486l-192 199q490 321 701 440h20
q396 -232 502 -232h12q13 0 115 56q285 147 329 147h3q26 0 295 -143q181 -98 250 -137l18 470q-17 39 -109 46l81 121q94 -34 137 -115z" />
    <glyph glyph-name="uni1794" unicode="&#x1794;" horiz-adv-x="2000" 
d="M863 1431q188 -170 230 -170h24l101 8q-32 -85 -119 -142q-62 -32 -117 -32h-5q-59 0 -151 64l-37 11h-9q-32 0 -100 -84q-16 -37 -16 -45v1l297 -316v-17l-292 -243v13l370 -321q44 -39 37 -39q415 20 415 31q106 24 292 171l102 94l-1 3q-16 403 -12 403q-44 59 -88 85
q-76 38 -122 38h-2q-37 0 -117 -35l-70 96v19l313 389q228 -122 267 -139h122v-26q-64 -161 -169 -161q-44 0 -220 57h-8q-40 0 -54 -37q153 -45 232 -161l45 -58l2 -186v-80q0 -374 -36 -374q-92 -97 -226 -196q-81 -65 -102 -65h-730l-441 438l280 264l-279 284
q343 406 394 458z" />
    <glyph glyph-name="uni1794.sub2" horiz-adv-x="802" 
d="M561 1417h29q177 -141 197 -141l49 -5h72l2 -2h29q-90 -166 -215 -166q-90 0 -181 67l-37 -40q32 0 137 -87q46 -48 78 -97v-2717q-72 -56 -192 -56l-490 255q-106 -186 -122 -203q-44 -49 -99 -49q-62 0 -268 122l-87 49q60 153 236 511q65 53 114 53h18q61 0 118 -93
q12 -30 12 -60q0 -79 -92 -123h-10q-75 0 -110 46l-9 8q-3 0 -11 -26l-70 -211q137 -100 192 -118h3q32 0 82 93q83 148 101 153h15q365 -226 488 -282v0q31 9 36 65v2542q-58 82 -135 82q-18 0 -73 -11q-82 39 -88 54v11z" />
    <glyph glyph-name="uni179417B6.sub1" horiz-adv-x="1636" 
d="M576 798q-19 99 -87 99h-16l-67 -10q-28 28 -82 105q325 197 735 428h23q209 -113 574 -354v-1013l-89 -73q-152 116 -197 159v56q9 16 154 108q4 27 4 88v18q-5 428 -1 428q-300 219 -506 331l-28 16q-133 -52 -317 -156l45 -204v-1795q-72 -56 -192 -56l-490 255
q-106 -186 -122 -203q-44 -49 -99 -49q-62 0 -268 122l-87 49q60 153 236 511q65 53 114 53h18q61 0 118 -93q12 -30 12 -60q0 -79 -92 -123h-10q-75 0 -110 46l-9 8q-3 0 -11 -26l-70 -211q137 -100 192 -118h3q32 0 82 93q83 148 101 153h15q365 -226 488 -282v0
q31 9 36 65v1635z" />
    <glyph glyph-name="uni179417B6.sub2" horiz-adv-x="1631" 
d="M721 -1771q-72 -56 -192 -56l-490 255q-106 -186 -122 -203q-44 -49 -99 -49q-62 0 -268 122l-87 49q60 153 236 511q65 53 114 53h18q61 0 118 -93q12 -30 12 -60q0 -79 -92 -123h-10q-75 0 -110 46l-9 8q-3 0 -11 -26l-70 -211q137 -100 192 -118h3q32 0 82 93
q83 148 101 153h15q365 -226 488 -282v0q31 9 36 65v2435q-19 99 -87 99h-16l-67 -10q-28 28 -82 105q325 197 735 428h23q209 -113 576 -354l-2 -477v-536l-89 -73q-152 116 -197 159v56q9 16 154 108q4 27 4 88v18q-5 428 -1 428q-300 219 -506 331l-28 16
q-133 -52 -317 -156l45 -204v-2595z" />
    <glyph glyph-name="uni179417C5.sechalf" horiz-adv-x="2831" 
d="M2854 995v-949l-81 -66h-22q-172 137 -187 155v62l159 105l3 87v37q0 190 -14 384q-24 43 -116 109q-261 167 -493 276q-140 0 -435 -212q-24 -17 -58 -34q-529 244 -594 244q-104 0 -300 -146l-26 -25q289 -223 318 -250q-223 -213 -316 -306l357 -356h-9l75 -7
q220 14 255 25.5t189 133.5l82 77v0q-11 71 -8 71q-37 51 -72 71q-62 31 -99 31h-2q-30 0 -98 -31l-61 84v17l263 326q190 -103 223 -116h104v-25q-54 -136 -144 -136q-38 0 -184 46h-5q-30 0 -39 -25q124 -36 190 -134l37 -49l-18 -261q-265 -228 -285 -228h-603l-371 431
l282 293l-276 305q610 386 660 414h17q357 -187 459 -233q15 -5 35 -5q158 0 558 238h19l493 -320l18 478q-17 39 -109 46l81 121q94 -34 137 -115l13 -635z" />
    <glyph glyph-name="uni179417C5.sub1sechalf" horiz-adv-x="1631" 
d="M1658 1057l-2 -468v-536l-89 -73q-152 116 -197 159v56q9 16 154 108q4 27 4 88v18q-5 428 -1 428q-300 219 -506 331l-28 16q-133 -52 -317 -156l45 -204v-1795q-72 -56 -192 -56l-490 255q-106 -186 -122 -203q-44 -49 -99 -49q-62 0 -268 122l-87 49q60 153 236 511
q65 53 114 53h18q61 0 118 -93q12 -30 12 -60q0 -79 -92 -123h-10q-75 0 -110 46l-9 8q-3 0 -11 -26l-70 -211q137 -100 192 -118h3q32 0 82 93q83 148 101 153h15q365 -226 488 -282v0q31 9 36 65v1635q-19 99 -87 99h-16l-67 -10q-28 28 -82 105q325 197 735 428h24
q181 -99 434 -262l16 423q-17 39 -109 46l81 121q94 -34 137 -115z" />
    <glyph glyph-name="uni179417C5.sub2sechalf" horiz-adv-x="1631" 
d="M1658 1057l-2 -468v-536l-89 -73q-152 116 -197 159v56q9 16 154 108q4 27 4 88v18q-5 428 -1 428q-300 219 -506 331l-28 16q-133 -52 -317 -156l45 -204v-2595q-72 -56 -192 -56l-490 255q-106 -186 -122 -203q-44 -49 -99 -49q-62 0 -268 122l-87 49q60 153 236 511
q65 53 114 53h18q61 0 118 -93q12 -30 12 -60q0 -79 -92 -123h-10q-75 0 -110 46l-9 8q-3 0 -11 -26l-70 -211q137 -100 192 -118h3q32 0 82 93q83 148 101 153h15q365 -226 488 -282v0q31 9 36 65v2435q-19 99 -87 99h-16l-67 -10q-28 28 -82 105q325 197 735 428h24
q181 -99 434 -262l16 423q-17 39 -109 46l81 121q94 -34 137 -115z" />
    <glyph glyph-name="uni1795" unicode="&#x1795;" horiz-adv-x="1900" 
d="M1655 1083q-34 -22 -64 -33q-140 -60 -250 -60q-199 0 -489 216h17l-215 -175v15q23 -15 350 -277v-18l-308 -298l237 -221q67 68 325 302h26l313 -320l181 176v12q0 68 -35 81l-3 1q-27 -22 -74 -22q-65 0 -100 59q-12 23 -12 40q0 88 116 139q33 10 54 10
q110 0 180 -127q19 -61 19 -101v-22q0 -70 -70 -149q-36 -59 -272 -296q-4 0 -38 -35h-26l-331 321h20l-336 -321h-25q-33 30 -376 417l296 290l-288 316l469 424h23q264 -212 353 -234q61 -13 100 -13q74 0 179 48q153 85 222 267q24 83 24 207l-6 164q148 0 148 -161v-17
q0 -235 -141 -431q-81 -100 -193 -174z" />
    <glyph glyph-name="uni1795.sub2" 
d="M-1105 -1088l295 -199v-19l-247 -237l178 -168l265 237h25l250 -260l139 134v10q0 47 -23 57h-1q-27 -16 -55 -16h-1q-71 0 -93 66l-3 10v11q0 66 96 111l40 6q98 0 150 -108q16 -50 16 -84q0 -61 -43 -112q-39 -62 -213 -236l-62 -56l-287 278l5 -5h22l-268 -259h-27
l-303 338l265 260q-14 34 -85 65q-15 8 -28 8h-18q-37 0 -113 -23l-19 19v13l117 159h26z" />
    <glyph glyph-name="uni179517C5.sechalf" horiz-adv-x="2900" 
d="M2924 35q-78 -55 -107 -55l-181 143v61q19 19 155 105l4 82q0 150 -23 452q-54 47 -219 154q-375 243 -388 243q-55 -6 -514 -140q-30 -19 -60 -30q-140 -60 -250 -60q-199 0 -489 216h17l-215 -175v15q23 -15 350 -277v-18l-308 -298l237 -221q67 68 325 302h26
l313 -320l181 176v12q0 68 -35 81l-3 1q-27 -22 -74 -22q-65 0 -100 59q-12 23 -12 40q0 88 116 139q33 10 54 10q110 0 180 -127q19 -61 19 -101v-22q0 -70 -70 -149q-36 -59 -272 -296q-4 0 -38 -35h-26l-331 321h20l-336 -321h-25q-33 30 -376 417l296 290l-288 316
l469 424h23q264 -212 353 -234q61 -13 100 -13q74 0 179 48q153 85 222 267q24 83 24 207l-6 164q148 0 148 -161v-17q0 -235 -106 -383l413 121q383 -241 488 -308l18 469q-17 39 -109 46l81 121q94 -34 137 -115l13 -620v-984z" />
    <glyph glyph-name="uni1796" unicode="&#x1796;" horiz-adv-x="1800" 
d="M879 1434l269 -265h4q45 0 76 33q36 28 112 113l101 122l389 -392l-1 -1010l-94 -61q-128 96 -194 149v66l157 103q2 14 3 102q0 151 -16 453l-260 252l-56 55q-10 6 -13 6h-6q-25 0 -94 -70q-8 -3 -161 -159l-291 250l-189 -184l-22 -612l136 -148q183 149 183 236
q0 25 -25 53q-15 14 -48 14q-62 0 -107 -116h-33q-16 21 -57 117q22 56 57 106q35 41 74 51q45 18 95 18q89 0 161 -97q39 -63 39 -145q0 -140 -20 -140q-61 -107 -170 -243q-89 -102 -132 -114l-271 349v722q31 31 404 386z" />
    <glyph glyph-name="uni1796.sub2" 
d="M-966 -1034l223 -158h3q37 0 63 20q30 16 92 67l84 73l326 -237l-1 -615l-82 -39q-105 58 -164 92v51l131 62q0 2 1 55q0 89 -12 266l-212 148q-45 32 -47 32q-8 4 -10 4h-5q-21 0 -80 -44q-7 -1 -132 -93l-239 149l-153 -107l-18 -356l108 -86q147 87 147 134
q0 10 -16 24q-12 8 -40 8q-50 0 -87 -69h-27q-17 14 -54 78q21 38 51 70q30 25 63 31q38 11 78 11q74 0 135 -59q35 -41 35 -94q0 -91 -20 -91q-49 -63 -141 -145q-74 -61 -110 -69l-228 213v441q30 21 338 233z" />
    <glyph glyph-name="uni179617C5.sechalf" horiz-adv-x="2831" 
d="M2852 43l-80 -63h-21l-186 151v65l157 103q7 110 7 257l-3 285l-455 313q-44 32 -48 32l-12 2q-14 0 -81 -39l-308 -156v-545l-2 -405l-91 -71l-196 159v60q6 12 103 73l53 35l5 101q0 146 -17 449l-318 308q-6 4 -13 4q-24 0 -90 -66q-41 -36 -164 -162l-300 257h22
l-199 -191l-21 -608q138 -152 133 -146q102 78 159 165q24 41 24 65q0 31 -28 59q-17 10 -37 10h-4q-54 0 -85 -60q-9 -11 -24 -54h-38l-55 117q40 89 85 133q76 40 138 40q99 0 171 -109q31 -56 31 -128v-18q0 -127 -20 -127q-64 -113 -190 -264q-54 -60 -87 -85h-28
l-250 325q-14 0 -14 27v708q33 33 402 384l268 -263h3q50 0 87 43q78 73 107 111l93 112l344 -342l512 335q333 -226 424 -287l16 439q-17 39 -109 46l81 121q94 -34 137 -115l12 -594v-996z" />
    <glyph glyph-name="uni1797" unicode="&#x1797;" horiz-adv-x="1936" 
d="M1638 1423q262 -178 305 -198q70 -33 136 -57v-17q-14 -59 -62 -97q-32 -21 -76 -21h-16q-77 0 -213 97q-129 86 -142 86l-20 2q-14 0 -102 -61l-168 -105q-191 73 -442 186h14l-169 -125l70 -114h-46q-163 42 -179 54l-53 51v20l459 297h21q311 -177 340 -177l16 -2h14
q30 0 220 130q68 51 93 51zM1325 980l637 -261v-675q-77 -64 -103 -64l-184 151v63l144 95q13 35 13 95v15q-6 139 -10 139q-111 78 -479 219q-141 50 -161 50q-87 0 -293 -94v16l47 -57l-14 -491l-256 -212l-77 90q19 218 29 239l163 39l2 96v94l2 24q-133 120 -145 138
l-2 36v32q0 19 137 57q37 13 550 166z" />
    <glyph glyph-name="uni1797.sub2" 
d="M-677 -1078l546 -224v-578q-68 -56 -93 -56l-159 130v57l123 82q11 27 11 78v13q-5 115 -6 115q-96 67 -408 187q-120 42 -136 42q-73 0 -246 -78v16l40 -49l-12 -420l-223 -185l-67 82q15 188 26 207l137 32l1 80v81l1 18q-112 102 -122 118l-2 31v28q0 18 119 51
q30 11 470 142z" />
    <glyph glyph-name="uni179717C5.sechalf" horiz-adv-x="2956" 
d="M1297 983l639 -263v-676q-78 -64 -104 -64l-184 150v62q12 14 138 92q7 4 11 21q9 37 9 83q-6 149 -11 149q-48 43 -293 148q-295 117 -322 117q-7 5 -30 8q-74 0 -275 -87l-7 -4q19 -21 38 -47l-14 -489l-254 -212q-26 22 -80 89q21 220 28 239l165 38l3 211v4l-145 136
v14l-1 68q30 14 689 213zM2985 1027v-978l-83 -63h-21l-183 150v62q15 17 155 106q3 15 5 99q0 102 -17 460q-527 283 -709 348l-5 1q-134 -39 -360 -140l-232 -102q-259 170 -413 229q-55 18 -61 18q-110 -35 -196 -81q-53 -31 -109 -71q-5 -4 -5 4q12 -26 79 -94
q-40 -16 -209 -31l-159 145q345 179 646 302l85 27q398 -205 416 -206q23 -11 27 -11h2q25 0 291 100l307 122h15q301 -155 590 -310l18 468q-17 39 -109 46l81 121q94 -34 137 -115z" />
    <glyph glyph-name="uni1798" unicode="&#x1798;" horiz-adv-x="2000" 
d="M863 1435q190 -171 228 -171l25 -2q33 0 81 8l21 -22q-97 -153 -238 -153q-56 0 -146 61q-29 15 -53 15q-19 0 -73 -51q-45 -50 -45 -76l244 -259h969v-18l-2 62q-45 69 -131 99q-39 14 -70 17q-36 0 -124 -35q-70 95 -70 114l316 392l263 -141h128v-25
q-66 -161 -162 -161h-4q-54 0 -225 57h-4q-45 0 -63 -53v15q159 -47 226 -149q21 -22 57 -73l2 -136v-171q0 -337 -37 -337q-36 -43 -91 -87q-67 -59 -221 -175h-753l-443 442l281 265l-256 260l-23 27zM677 469l412 -357l396 26q95 30 160 70q98 60 240 192l10 11l-11 245
h-981q-194 -158 -226 -187z" />
    <glyph glyph-name="uni1798.sub2" 
d="M-387 -1040q64 -19 85 -59q18 -42 18 -168v-36q0 2 -14 2q75 -11 178 -70q46 -26 115 -102q62 -76 62 -109q3 0 6 -85q0 -196 -181 -275l-70 -7q-196 0 -310 224q23 246 23 318v2h13q-69 0 -196 -107l-106 -101q-54 103 -75 130q-48 48 -95 67l-2 1q-125 -23 -475 -47
q-78 55 -78 118q8 57 43 57q98 -25 160 -25q143 0 396 87h16q95 0 204 -121q43 37 136 50q39 9 60 9l-12 -12l-5 186q0 38 74 66zM-287 -1432q-6 -98 -8 -214q0 -123 94 -160q17 -7 36 -9q80 36 80 144v1q0 148 -201 238h-1z" />
    <glyph glyph-name="uni179817C5.sechalf" horiz-adv-x="3000" 
d="M677 470q9 -9 411 -356q388 23 389 25q140 36 309 176q75 64 104 98l-13 243h-975zM3028 993v-949l-81 -64h-21q-165 132 -185 152v62l156 104l5 117q-10 332 -19 332q-17 72 -43 100l-624 359l-360 -169v17q75 -71 87 -96q28 -33 48 -103l17 -62l-11 -492q0 -17 -55 -62
l-284 -257h-746l-444 440q293 275 278 268l-269 275v14q56 70 387 453q186 -168 216 -170l37 -3q38 2 102 11q-21 -65 -80 -117q-77 -59 -157 -59q-63 0 -147 60q-31 15 -46 15h-9q-26 0 -88 -68q-29 -41 -29 -65v5l241 -256h960q-48 141 -139 141h-13q-41 0 -131 -48
l-70 115q443 263 822 434q433 -263 551 -336l19 490q-17 39 -109 46l81 121q94 -34 137 -115z" />
    <glyph glyph-name="uni1799" unicode="&#x1799;" horiz-adv-x="2700" 
d="M823 1420h16q105 0 180 -136l6 -36q0 -51 -111 -162l-157 48l-108 -143l-42 -509l398 -356l2 -2h39q244 0 343 49q104 107 249 283l-2 16q-3 276 -14 276q-99 242 -214 242l-80 -12l-96 50l301 404q194 -157 223 -157l49 -3h62l22 -22q-83 -147 -210 -147q-72 6 -168 62
l-8 6l-36 -40q41 -1 146 -95q93 -101 112 -202q11 0 23 -380l286 -316h-11q374 14 374 40q115 123 218 275l-8 270q-33 120 -123 220q-55 47 -97 47q-22 0 -79 -12q-83 39 -94 61l294 393q197 -154 221 -154q14 -6 50 -6h82v-32q-81 -137 -204 -137q-97 10 -189 76l11 -11
l-37 -41q38 -5 118 -62q156 -136 156 -364l11 -449l-228 -259h-558l-231 212q0 41 -205 -212h-655l-375 441l13 559l206 373q75 54 129 54z" />
    <glyph glyph-name="uni1799.sub2" horiz-adv-x="779" 
d="M572 1432q195 -155 216 -155l75 -5h43l3 -3h29q-90 -164 -208 -164h-5q-94 0 -181 66l-36 -39q46 0 156 -108l57 -76v-2526q-246 -310 -282 -347h-655q-70 67 -371 384v369q67 93 164 93h11q105 0 146 -110l5 -35q0 -108 -98 -144l-46 -6h-14l-19 2v-103l313 -275l30 -25
h323q131 0 348 324v2359q-60 82 -128 82q-31 0 -75 -13l-101 50z" />
    <glyph glyph-name="uni179917B6.sub1" horiz-adv-x="1731" 
d="M576 740q-10 64 -33 99q-18 28 -54 28q-41 -6 -97 -29l-92 114l802 468q26 0 256 -150l396 -253v-964l-77 -92l-233 182v17q159 142 159 141q7 23 9 92q0 140 -28 419q-51 54 -129 107q-190 127 -456 280q-175 -89 -335 -189v0v-7q0 -56 57 -128v-1553
q-246 -310 -282 -347h-655q-70 67 -371 384v369q67 93 164 93h11q105 0 146 -110l5 -35q0 -108 -98 -144l-46 -6h-14l-19 2v-103l313 -275l30 -25h323q131 0 348 324v1291z" />
    <glyph glyph-name="uni179917B6.sub2" horiz-adv-x="1720" 
d="M576 740q-10 64 -33 99q-18 28 -54 28q-41 -6 -97 -29l-92 114l802 468q26 0 256 -150l396 -253v-964l-77 -92l-233 182v17q159 142 159 141q7 23 9 92q0 140 -28 419q-51 54 -129 107q-190 127 -456 280q-175 -89 -335 -189v0v-7q0 -56 57 -128v-2453
q-246 -310 -282 -347h-655q-70 67 -371 384v369q67 93 164 93h11q105 0 146 -110l5 -35q0 -108 -98 -144l-46 -6h-14l-19 2v-103l313 -275l30 -25h323q131 0 348 324v2191z" />
    <glyph glyph-name="uni179917C5.sechalf" horiz-adv-x="3738" 
d="M3759 994v-948q-76 -66 -105 -66l-182 152v63l156 103l2 60v89q0 325 -51 389q0 10 -92 60l-540 315l-361 -173v15q50 -42 90 -96q62 -89 62 -278l7 -414l3 -15l-232 -268h-564l-253 234q-165 -212 -190 -234h-657l-378 448l3 29l12 534l204 370q71 58 142 58h9
q91 0 168 -115q16 -31 16 -57q0 -57 -111 -165l-158 48l-108 -137l-44 -518l407 -364h-9q306 0 394 52q135 141 249 284q-7 285 -12 285q-100 253 -229 253q-17 0 -68 -13q-86 41 -94 61l286 383h28q179 -144 205 -144l84 -5l33 5l14 -20v-11q-78 -142 -200 -142
q-77 7 -156 51l-27 18l-37 -40q29 0 135 -84q99 -111 108 -165q31 -73 31 -204l9 -228q10 -14 290 -321q367 14 367 44q96 100 195 241l24 31l-5 269q-12 83 -48 133q-56 79 -124 79h-3q-53 0 -145 -47q-61 102 -61 123q503 290 816 426q369 -222 552 -335l19 489
q-17 39 -109 46l81 121q94 -34 137 -115z" />
    <glyph glyph-name="uni179917C5.sub1sechalf" horiz-adv-x="1726" 
d="M1754 53l-77 -92l-233 182v17q159 142 159 141q7 23 9 92q0 140 -28 419q-51 54 -129 107q-190 127 -456 280q-175 -89 -335 -189v0v-7q0 -56 57 -128v-1553q-246 -310 -282 -347h-655q-70 67 -371 384v369q67 93 164 93h11q105 0 146 -110l5 -35q0 -108 -98 -144l-46 -6
h-14l-19 2v-103l313 -275l30 -25h323q131 0 348 324v1291q-10 64 -33 99q-18 28 -54 28q-41 -6 -97 -29l-92 114l802 468q26 0 256 -150l256 -164l17 478q-17 39 -109 46l81 121q94 -34 137 -115l14 -620v-963z" />
    <glyph glyph-name="uni179917C5.sub2sechalf" horiz-adv-x="1731" 
d="M1754 53l-77 -92l-233 182v17q159 142 159 141q7 23 9 92q0 140 -28 419q-51 54 -129 107q-190 127 -456 280q-175 -89 -335 -189v0v-7q0 -56 57 -128v-2453q-246 -310 -282 -347h-655q-70 67 -371 384v369q67 93 164 93h11q105 0 146 -110l5 -35q0 -108 -98 -144l-46 -6
h-14l-19 2v-103l313 -275l30 -25h323q131 0 348 324v2191q-10 64 -33 99q-18 28 -54 28q-41 -6 -97 -29l-92 114l802 468q26 0 256 -150l256 -164l17 478q-17 39 -109 46l81 121q94 -34 137 -115l14 -620v-963z" />
    <glyph glyph-name="uni179A" unicode="&#x179a;" horiz-adv-x="1002" 
d="M784 1423q180 -144 199 -144q29 -7 89 -7h52v-25q-45 -89 -123 -126q-41 -16 -78 -16q-57 0 -140 40q-40 25 -44 28l-56 -60v18q72 -21 165 -101q50 -54 50 -66l2 -787l-245 -197h-24l-65 79q20 215 25 241l173 14v614q-55 55 -134 55h-18l-47 -5q-80 44 -94 65l288 380
h25z" />
    <glyph glyph-name="uni179A.sub2" horiz-adv-x="800" 
d="M686 -1061l303 -317l633 14l272 290v107q7 41 51 41q49 -20 49 -48v-163l-335 -329h-741l-356 323v3530l356 323h741l335 -329v-163q0 -28 -49 -48q-44 0 -51 41v107l-272 290l-633 14l-303 -317v-3366z" />
    <glyph glyph-name="uni179A17C5.sechalf" horiz-adv-x="1779" 
d="M1804 1016v-971q-79 -53 -103 -53l-180 139v64q23 20 154 103q1 6 2 84q0 147 -24 443q-97 108 -243 241q-190 173 -222 188q-150 -121 -223 -148l-33 -6q-90 0 -190 70l-41 -43q4 -1 92 -55q74 -56 107 -105v-790l-242 -197h-26l-66 78q20 225 33 242l166 14l-1 614
q-60 52 -126 52h-30q-13 0 -41 -6q-85 49 -95 68q260 345 299 391q135 -107 217 -161l4 -1l322 157q82 -65 352 -288l16 444q-17 39 -109 46l81 121q94 -34 137 -115z" />
    <glyph glyph-name="uni179B" unicode="&#x179b;" horiz-adv-x="2500" 
d="M2298 1423h27q180 -145 201 -145q47 -5 92 -5h30l1 -1h28q-92 -167 -214 -167q-73 0 -174 61l-9 7l-46 -48q75 -15 126 -64q97 -91 120 -166q17 -44 33 -117l5 -477l-239 -321h-660q-20 16 -194 224l-187 224v12q201 406 201 399q-150 133 -444 373q-348 -275 -373 -292
l-11 -600v-4l167 -14q12 -19 33 -243l-77 -90q-245 196 -259 212v786q27 26 571 453h24l577 -543q0 -15 -155 -285l-86 -147l370 -335h-9q327 0 402 56q136 146 246 282l-8 270q-17 63 -71 158q-24 36 -68 76q-40 38 -93 38q-21 0 -70 -14l-102 52z" />
    <glyph glyph-name="uni179B.sub2" 
d="M-13 -907v-39q-92 -109 -273 -288q-117 -109 -165 -137q-120 -86 -206 -138h-20q-42 35 -76 50q-62 29 -102 29q-76 0 -149 -70q-38 -45 -38 -94v1q94 -107 138 -130l27 -17q42 19 103 64q48 42 92 95l29 -29v-126l-221 -187h-25l-354 285v14q41 77 150 187q63 55 157 74
q37 8 126 13q86 -2 137 -8q177 65 419 274q30 19 124 118q8 19 127 59z" />
    <glyph glyph-name="uni179B17C5.sechalf" horiz-adv-x="3500" 
d="M3519 995v-950q-76 -65 -105 -65l-183 150v63q31 27 170 111q-11 0 -9 115q-8 312 -23 350q-28 79 -40 79q-610 357 -623 363l-346 -170q87 -78 110 -152q27 -95 27 -113l5 -472l-236 -317h-660q-343 405 -377 450q203 409 203 403q-131 115 -440 369l-370 -289l-13 -600
l152 -11q25 0 47 -244l-75 -89q-244 195 -258 211v781l581 457q551 -517 587 -555l-244 -423l366 -330h34q215 0 345 45q7 0 121 129l134 161q-7 287 -10 287q-25 87 -62 128q-48 56 -108 56q-56 0 -149 -44l-62 103v16q480 282 808 425h16l545 -333l19 497q-17 39 -109 46
l81 121q94 -34 137 -115z" />
    <glyph glyph-name="uni179C" unicode="&#x179c;" horiz-adv-x="1000" 
d="M1124 2087q174 -319 191 -419q18 -66 18 -148q0 -235 -154 -351q-96 -63 -192 -63t-233 81l-8 3l-44 -53q118 -41 207 -159v-804l-246 -199h-25l-67 79q20 217 26 235l13 13h13l150 12v621q-54 56 -135 56h-22l-48 -5l-88 54v17q254 339 289 380h23l213 -129h14
q122 0 168 162q10 51 10 89q0 132 -76 260q-36 70 -84 148v8q0 77 59 112h28z" />
    <glyph glyph-name="uni179C.sub2" 
d="M-190 -1225q-13 -19 -144.5 -160.5t-244.5 -217.5l-80 -52l101 -117q35 5 136 106t155 232q61 137 77 209zM-85 -1159q-44 -320 -213 -641q-103 -162 -320 -162q-105 6 -105 28q-176 164 -176 177q16 126 37 126q125 67 278 183q99 82 227 211q161 174 252 306z" />
    </font>
</defs>
</svg>
